<svg width="141" height="100" viewBox="0 0 141 100" fill="none" xmlns="http://www.w3.org/2000/svg">
<path d="M43.4189 99.4321C43.0727 97.8669 43.4135 96.3721 44.0609 94.9764C45.9452 90.9156 49.1116 88.557 53.6269 88.2919C56.6472 88.1152 59.682 88.1531 62.7096 88.0972C63.0306 88.0917 63.3515 88.0972 63.7338 88.0972V69.6738C66.0978 71.3346 68.4564 72.6203 71.3055 72.6491C74.1744 72.678 76.551 71.4374 78.8916 69.7153V88.1008C79.3117 88.1008 79.6597 88.0954 80.0077 88.1008C83.2445 88.1513 86.4975 88.0124 89.7144 88.2973C94.7868 88.7445 98.8873 92.8775 99.5851 97.9084C99.6536 98.4097 99.6122 98.9254 99.6212 99.4339H43.4189V99.4321Z" fill="url(#paint0_linear_223_583)"/>
<path d="M47.189 53.2911C47.189 54.9843 47.2503 56.6036 47.1692 58.2156C47.1025 59.5265 46.2568 60.3488 44.9531 60.549C44.4211 60.6301 43.8783 60.6608 43.3392 60.6626C38.2956 60.6698 33.2539 60.6644 28.2103 60.6626C27.8551 60.6626 27.4981 60.6626 27.0887 60.6626C27.0112 61.9122 26.8561 63.1023 26.8832 64.287C26.9264 66.2254 28.7369 67.6788 30.6464 67.3488C40.0393 65.7242 49.4304 64.0832 58.8215 62.4441C59.8836 62.2584 60.9439 62.0582 62.0023 61.8527C63.1744 61.6255 63.9444 60.9222 64.2672 59.788C65.0876 56.9065 67.0549 55.3377 69.9202 54.7859C72.9748 54.1999 75.5047 55.0961 77.3945 57.5809C78.1194 58.533 78.9218 58.8269 80.1155 58.6141C90.4731 56.7586 100.838 54.9482 111.203 53.1378C112.321 52.9431 113.181 52.5698 113.433 51.2967C113.516 50.8838 113.902 50.4402 114.272 50.1896C115.399 49.4214 115.889 48.3882 115.86 47.0556C115.842 46.1901 115.857 45.3245 115.857 44.3255C115.388 44.3255 115.044 44.3255 114.697 44.3255C109.684 44.3255 104.672 44.3255 99.6586 44.3219C99.2096 44.3219 98.7552 44.3111 98.3135 44.2444C96.5661 43.9793 95.697 43.1949 95.5491 41.4584C95.4211 39.9474 95.5221 38.4182 95.5221 36.8477H140.016C140.016 38.6599 140.115 40.4757 139.98 42.2771C139.897 43.3843 138.947 43.9216 137.919 44.138C137.308 44.2678 136.669 44.3111 136.044 44.3129C131.031 44.3273 126.018 44.3219 121.005 44.3237C120.682 44.3237 120.358 44.3237 119.988 44.3237C119.941 45.3317 119.864 46.2532 119.865 47.1746C119.867 48.3503 120.311 49.3619 121.283 50.0489C123.156 51.3743 123.324 54.1981 121.917 56.288C120.547 58.322 117.712 59.1208 115.731 57.8532C114.32 56.9516 112.948 56.8235 111.369 57.1066C101.188 58.9279 90.9997 60.7094 80.8116 62.482C79.5998 62.693 78.8821 63.3151 78.5774 64.498C77.7966 67.5093 75.7229 69.1286 72.7657 69.6822C69.7561 70.2448 67.2316 69.3955 65.423 66.8421C64.6963 65.8161 63.856 65.4627 62.5776 65.6935C52.3119 67.5526 42.0373 69.3612 31.7644 71.177C30.6915 71.3664 29.7791 71.7252 29.1877 72.7494C27.9164 74.9511 25.9761 75.7337 23.549 75.1134C21.5222 74.5941 20.0779 72.6521 19.9697 70.3422C19.9066 68.9898 20.3105 67.8646 21.4339 67.0477C22.5807 66.2128 22.9918 65.0443 22.981 63.6775C22.9738 62.7218 22.981 61.7643 22.981 60.659C22.5338 60.659 22.1876 60.659 21.8432 60.659C17.1008 60.6626 12.3584 60.6716 7.61593 60.6644C6.77744 60.6644 5.93174 60.6445 5.09866 60.5544C3.82921 60.4173 2.83204 59.6095 2.72204 58.3472C2.57959 56.6919 2.68778 55.0149 2.68778 53.2857H47.1854L47.189 53.2911Z" fill="url(#paint1_linear_223_583)"/>
<path d="M45.2941 25.8839C45.2003 38.5478 35.1348 48.442 22.5304 48.3681C10.0216 48.2959 -0.168282 37.7796 0.35104 24.8958C0.825283 13.0992 10.6978 3.33305 22.9326 3.45026C35.3224 3.56747 45.3842 13.6402 45.2941 25.8839ZM21.4088 10.3926C21.4088 10.9281 21.3926 11.3735 21.4125 11.8189C21.4738 13.1948 21.1257 13.532 19.795 13.9702C18.4426 14.4155 17.0361 14.879 15.8604 15.6489C12.0412 18.1464 12.1963 23.5398 16.0822 25.938C16.7944 26.3762 17.5464 26.7675 18.3182 27.0885C19.9771 27.7791 21.6613 28.4066 23.3329 29.0648C24.2777 29.4362 24.99 30.0565 25.2262 31.0717C25.3002 31.3891 25.2821 31.8255 25.1144 32.0851C24.1371 33.6016 21.5044 33.5493 20.6227 31.9914C20.1989 31.2412 19.9032 30.4208 19.5209 29.5697C17.5392 29.5697 15.5304 29.5606 13.5216 29.5733C12.4866 29.5805 12.1783 29.8996 12.2215 30.9437C12.3387 33.7188 13.6533 35.7348 16.1922 36.8672C17.5013 37.4515 18.8717 37.9113 20.2314 38.3729C20.7272 38.5424 20.958 38.7588 20.9526 39.3088C20.9454 40.0138 21.0392 40.7207 21.0897 41.4131H25.2352C25.3074 40.4069 25.3759 39.453 25.4462 38.4649C25.8087 38.3747 26.1657 38.3224 26.4957 38.198C27.8048 37.7003 29.1879 37.3252 30.3942 36.6418C34.0511 34.5717 34.5849 28.5689 30.4447 26.14C29.7992 25.7613 29.1554 25.3682 28.472 25.0689C26.6327 24.2664 24.7664 23.5253 22.9235 22.7301C22.4349 22.5191 21.948 22.2559 21.5351 21.9259C20.9833 21.4823 20.9003 20.8566 21.1672 20.211C21.4882 19.4357 22.7126 18.7306 23.6142 18.8027C24.5699 18.8803 25.1415 19.4573 25.4065 20.3319C25.5869 20.9233 25.6879 21.54 25.8357 22.2C27.913 22.2 29.9506 22.2072 31.9882 22.1982C33.1134 22.1928 33.4579 21.8411 33.3659 20.7177C33.1549 18.1572 31.8909 16.2422 29.6297 15.0521C28.6289 14.5237 27.5397 14.1523 26.4704 13.77C25.9764 13.5933 25.7564 13.3625 25.7582 12.8179C25.7582 12.0191 25.6644 11.2221 25.6085 10.3926H21.4088Z" fill="url(#paint2_linear_223_583)"/>
<path d="M136.569 16.0212C136.554 24.7343 129.664 31.5882 120.94 31.5702C112.29 31.5522 105.366 24.5882 105.377 15.913C105.386 7.35139 112.402 0.4325 121.041 0.464957C129.726 0.497415 136.583 7.36762 136.569 16.0212ZM122.679 20.1253C121.218 21.2162 121.13 21.2144 119.797 20.1235C119.727 20.0658 119.649 20.0153 119.593 19.9468C118.369 18.4645 116.737 18.3473 115.001 18.5745C113.576 18.7621 113.192 19.4383 113.812 20.7474C114.721 22.6624 116.335 23.7966 118.286 24.37C119.298 24.6676 119.839 25.0625 119.821 26.1444C119.817 26.3572 120.086 26.7466 120.253 26.7611C121.043 26.826 121.844 26.7899 122.635 26.7899C122.765 26.0506 122.686 25.2734 123.036 24.8641C123.386 24.4548 124.183 24.4494 124.756 24.2041C125.385 23.9336 126.09 23.7046 126.57 23.252C127.181 22.6768 127.782 21.9646 128.063 21.1946C128.88 18.9622 127.96 16.9012 125.741 15.8102C124.424 15.1647 123.023 14.6904 121.709 14.0449C121.173 13.7816 120.708 13.3146 120.315 12.853C120.028 12.5176 119.723 12.0704 120.257 11.5979C120.794 11.1255 121.31 11.0353 121.849 11.5258C122.332 11.9676 122.771 12.4563 123.249 12.9035C123.454 13.0946 123.703 13.3669 123.941 13.3741C125.313 13.4192 126.687 13.3957 128.047 13.3957C128.627 11.1075 127.549 9.12394 125.216 8.22775C123.84 7.69941 122.662 7.0737 122.989 5.30115H120.122C120.125 6.95829 119.801 7.40368 118.275 7.89055C118.075 7.95366 117.871 8.00595 117.673 8.07087C115.608 8.73986 114.416 10.1734 114.279 12.1461C114.15 14.0106 115.109 15.5542 117.062 16.463C118.282 17.031 119.538 17.5323 120.805 17.9903C121.831 18.3599 122.47 19.0073 122.682 20.1271L122.679 20.1253Z" fill="url(#paint3_linear_223_583)"/>
<defs>
<linearGradient id="paint0_linear_223_583" x1="71.4534" y1="69.6738" x2="71.4534" y2="99.4339" gradientUnits="userSpaceOnUse">
<stop offset="0.583333" stop-color="#D42EBC"/>
<stop offset="1" stop-color="#D42EBC" stop-opacity="0"/>
</linearGradient>
<linearGradient id="paint1_linear_223_583" x1="71.3498" y1="36.8477" x2="71.3498" y2="75.319" gradientUnits="userSpaceOnUse">
<stop offset="0.583333" stop-color="#D42EBC"/>
<stop offset="1" stop-color="#D42EBC" stop-opacity="0"/>
</linearGradient>
<linearGradient id="paint2_linear_223_583" x1="22.8134" y1="3.44922" x2="22.8134" y2="48.3685" gradientUnits="userSpaceOnUse">
<stop offset="0.583333" stop-color="#D42EBC"/>
<stop offset="1" stop-color="#D42EBC" stop-opacity="0"/>
</linearGradient>
<linearGradient id="paint3_linear_223_583" x1="120.973" y1="0.464844" x2="120.973" y2="31.5702" gradientUnits="userSpaceOnUse">
<stop offset="0.583333" stop-color="#D42EBC"/>
<stop offset="1" stop-color="#D42EBC" stop-opacity="0"/>
</linearGradient>
</defs>
</svg>
