<svg width="57" height="57" viewBox="0 0 57 57" fill="none" xmlns="http://www.w3.org/2000/svg">
<path d="M29.5746 56.6933H27.0352C26.9417 56.6771 26.8487 56.6575 26.7545 56.6459C25.4392 56.4836 24.1089 56.4016 22.812 56.1468C17.6467 55.133 13.1075 52.8369 9.22736 49.2797C1.92352 42.5835 -1.3148 32.7917 0.540618 23.0652C1.53765 17.8392 3.8396 13.2486 7.44011 9.34019C12.0284 4.35851 17.6934 1.36916 24.4087 0.409102C28.1882 -0.131581 31.932 0.0890822 35.6134 1.09247C42.1443 2.87279 47.3935 6.53338 51.3423 12.0245C54.2173 16.0231 55.893 20.4964 56.4175 25.3972C56.4799 25.9783 56.5285 26.5612 56.5833 27.1434V29.6828C56.5666 29.7955 56.54 29.9075 56.5337 30.0213C56.369 33.069 55.7353 36.0168 54.591 38.8444C52.0476 45.1258 47.803 49.922 41.8855 53.2181C38.6074 55.0441 35.0843 56.1318 31.3503 56.5252C30.7594 56.5876 30.1673 56.6378 29.5758 56.6933H29.5746ZM53.0545 28.4195C53.0591 14.7851 41.9762 3.67919 28.354 3.6688C14.6637 3.6584 3.56463 14.736 3.56174 28.4126C3.55885 42.0613 14.6273 53.1413 28.2893 53.1656C41.9323 53.1898 53.0504 42.0804 53.055 28.4195H53.0545Z" fill="url(#paint0_linear_201_617)"/>
<path d="M26.5363 34.6581V34.2902C26.5363 28.2797 26.5375 22.2692 26.534 16.2593C26.534 15.7094 26.6409 15.2057 27.047 14.8082C27.5582 14.308 28.1682 14.1422 28.8492 14.3669C29.5395 14.5945 29.9439 15.089 30.0484 15.8128C30.0733 15.9832 30.075 16.1576 30.075 16.3304C30.0762 22.3212 30.0762 28.3126 30.0762 34.3034V34.7303C30.2102 34.6044 30.2934 34.531 30.3714 34.4525C32.6837 32.1407 34.9931 29.8266 37.3078 27.5178C38.1408 26.6865 39.4209 26.7853 40.0626 27.7182C40.5074 28.3652 40.4693 29.2317 39.9656 29.8359C39.8737 29.9462 39.7703 30.0479 39.6681 30.1501C36.4662 33.3532 33.2596 36.5522 30.0652 39.7628C29.5782 40.2521 29.048 40.5334 28.3438 40.43C28.1849 40.4069 28.018 40.4491 27.8557 40.4416C27.4149 40.4202 27.0395 40.2458 26.7269 39.9332C23.4095 36.6146 20.0891 33.2989 16.7751 29.9768C16.0565 29.2565 16.0617 28.1665 16.7607 27.4669C17.455 26.772 18.5543 26.7714 19.2718 27.486C21.6014 29.807 23.9242 32.1349 26.2481 34.4623C26.3214 34.5357 26.3728 34.631 26.4346 34.7159C26.4687 34.6968 26.5022 34.6772 26.5363 34.6581Z" fill="url(#paint1_linear_201_617)"/>
<defs>
<linearGradient id="paint0_linear_201_617" x1="28.3053" y1="0.12207" x2="28.3053" y2="56.6933" gradientUnits="userSpaceOnUse">
<stop offset="0.666667" stop-color="#D42EBC"/>
<stop offset="1" stop-color="#D42EBC" stop-opacity="0"/>
</linearGradient>
<linearGradient id="paint1_linear_201_617" x1="28.304" y1="14.2686" x2="28.304" y2="40.4513" gradientUnits="userSpaceOnUse">
<stop offset="0.666667" stop-color="#D42EBC"/>
<stop offset="1" stop-color="#D42EBC" stop-opacity="0"/>
</linearGradient>
</defs>
</svg>
