<svg width="114" height="98" viewBox="0 0 114 98" fill="none" xmlns="http://www.w3.org/2000/svg">
<path d="M0.234627 38.2685C0.234627 29.6217 0.212399 20.975 0.242963 12.3282C0.262413 6.61552 4.18292 1.85868 9.76498 0.730602C10.593 0.56389 11.4571 0.513877 12.3073 0.513877C34.9329 0.502763 57.5612 0.505541 80.1868 0.505541C85.9911 0.505541 91.7955 0.463863 97.5998 0.527769C103.763 0.597232 108.97 5.77919 109.031 11.9475C109.106 19.4551 109.061 26.9655 109.061 34.4758C109.061 42.6975 109.056 50.9164 109.072 59.1381C109.072 59.4631 109.203 59.841 109.395 60.1078C119.258 73.8476 111.668 93.3612 95.0769 96.8871C81.8261 99.7018 68.8309 90.7716 66.7693 77.4347C66.5692 76.1482 66.5692 76.1399 65.2327 76.1399C49.1228 76.1399 33.0102 76.1482 16.9002 76.1399C14.7219 76.1399 12.5268 76.2204 10.3707 75.9815C4.90256 75.3785 0.376332 70.43 0.270748 64.9202C0.167943 59.5437 0.234627 54.1645 0.22907 48.788C0.226292 45.2815 0.22907 41.775 0.22907 38.2685H0.237406H0.234627ZM104.329 54.9091C104.329 54.4646 104.329 54.1895 104.329 53.9172C104.329 40.1301 104.329 26.3459 104.329 12.5588C104.329 8.29098 101.326 5.24571 97.0469 5.23182C89.4893 5.20959 81.9317 5.22626 74.3741 5.22626C53.6907 5.22626 33.0102 5.22626 12.3268 5.22626C7.97005 5.22626 4.9609 8.25764 4.9609 12.6116C4.9609 29.7134 4.9609 46.8181 4.9609 63.9199C4.9609 68.4128 7.95338 71.4136 12.4407 71.4164C19.7149 71.4192 26.9863 71.4164 34.2605 71.4164C44.8022 71.4164 55.344 71.4108 65.8885 71.4219C66.4136 71.4219 66.597 71.2886 66.6831 70.7356C68.0835 61.9082 72.8515 55.601 81.0398 52.0167C83.1348 51.0998 85.441 50.6635 87.6471 50.0078C87.4165 50.1467 87.1303 50.1467 86.8469 50.1467C84.763 50.1467 82.6764 50.1662 80.5925 50.1301C79.2838 50.1078 78.2974 49.077 78.2863 47.8128C78.2752 46.5152 79.231 45.4399 80.5147 45.4343C84.5658 45.4093 88.6168 45.4093 92.6679 45.4343C93.6599 45.4399 94.3712 45.9956 94.7352 46.9153C95.0992 47.8378 94.9491 48.7352 94.21 49.391C93.7516 49.7966 93.1236 50.0161 92.6679 50.2634C96.8079 50.7247 100.703 52.2556 104.329 54.9119V54.9091ZM90.095 92.661C100.487 92.6943 108.983 84.2754 109.047 73.8865C109.114 63.4698 100.592 54.8563 90.1812 54.8591C79.77 54.8647 71.3733 63.2114 71.2344 73.3724C71.0871 84.1059 79.5199 92.6277 90.095 92.661Z" fill="url(#paint0_linear_223_584)"/>
<path d="M23.9075 33.595C22.3432 33.595 20.7816 33.6061 19.2173 33.595C16.4943 33.5728 14.4271 31.4722 14.4327 28.7492C14.4355 26.4764 14.4271 24.2036 14.4355 21.9279C14.4466 19.0911 16.4888 17.0405 19.3173 17.035C22.3959 17.0266 25.4746 17.035 28.5532 17.035C31.1539 17.035 33.285 19.0577 33.3433 21.6723C33.3989 24.1091 33.3961 26.5514 33.3489 28.9882C33.2989 31.5361 31.1344 33.5894 28.5921 33.5894H23.9019L23.9075 33.595ZM19.1867 28.7881H28.5671V21.8501H19.1867V28.7881Z" fill="url(#paint1_linear_223_584)"/>
<path d="M77.1243 26.5094C72.0812 26.5094 67.0382 26.5122 61.998 26.5094C60.5309 26.5094 59.514 25.6842 59.3834 24.4311C59.225 22.8973 60.2419 21.7942 61.9035 21.7803C64.9821 21.7553 68.0579 21.7665 71.1365 21.7665C77.8133 21.7665 84.4874 21.7665 91.1642 21.7665C91.731 21.7665 92.3034 21.747 92.8646 21.8109C93.9872 21.9387 94.8374 22.8834 94.9096 24.0198C94.9791 25.0951 94.24 26.1287 93.1619 26.3983C92.8007 26.49 92.4145 26.5122 92.0394 26.5122C87.0686 26.5205 82.0951 26.5177 77.1243 26.5177V26.5094Z" fill="url(#paint2_linear_223_584)"/>
<path d="M32.1485 61.9392C27.0361 61.9392 21.9208 61.9448 16.8083 61.9364C15.4968 61.9364 14.5355 61.0556 14.4049 59.797C14.2826 58.6355 15.0856 57.5352 16.2526 57.2907C16.5277 57.2324 16.8166 57.2324 17.1 57.2324C27.1861 57.2268 37.2694 57.224 47.3554 57.2296C48.9031 57.2296 49.97 58.2382 49.9478 59.633C49.9256 61.0028 48.8697 61.9503 47.3471 61.9503C42.2818 61.9531 37.2138 61.9503 32.1485 61.9503V61.942V61.9392Z" fill="url(#paint3_linear_223_584)"/>
<path d="M65.3014 45.4175C67.1713 45.4175 69.0413 45.412 70.914 45.4175C72.5561 45.4231 73.6175 46.3594 73.6147 47.7793C73.6119 49.1574 72.5394 50.1299 70.9668 50.1354C67.1324 50.1466 63.2953 50.1466 59.4609 50.1354C58.0161 50.1299 56.9769 49.1157 56.9824 47.7654C56.988 46.4261 58.0522 45.4231 59.4803 45.4175C61.4225 45.412 63.3647 45.4175 65.3041 45.4175H65.3014Z" fill="url(#paint4_linear_223_584)"/>
<path d="M44.0458 45.4234C45.963 45.4234 47.8802 45.4178 49.7973 45.4234C51.2644 45.4289 52.2869 46.3875 52.298 47.7518C52.3091 49.1244 51.3089 50.1191 49.8418 50.1246C45.938 50.1413 42.0314 50.1413 38.1247 50.1246C36.691 50.1191 35.6491 49.0605 35.6824 47.724C35.7158 46.4014 36.7466 45.4317 38.1525 45.4261C40.117 45.4178 42.0814 45.4261 44.0458 45.4261V45.4234Z" fill="url(#paint5_linear_223_584)"/>
<path d="M22.7577 45.4206C24.7221 45.4206 26.6865 45.4123 28.6509 45.4206C29.9902 45.4289 30.9904 46.4348 31.0015 47.7518C31.0127 49.0716 30.0346 50.1191 28.6926 50.1246C24.7165 50.1441 20.7377 50.1441 16.7616 50.1191C15.414 50.1108 14.3971 49.066 14.3887 47.7879C14.3804 46.4542 15.3945 45.4373 16.7921 45.4262C18.7816 45.4095 20.7682 45.4206 22.7577 45.4206V45.415V45.4206Z" fill="url(#paint6_linear_223_584)"/>
<path d="M87.6925 68.9963H83.094C82.9023 65.0536 86.1559 61.8638 90.2265 61.9499C94.3998 62.0389 97.3312 65.0702 97.2284 69.1936C97.2006 70.3272 96.756 71.3136 96.0947 72.2027C95.489 73.0196 94.8444 73.8087 94.2053 74.6006C93.2968 75.7231 92.5604 76.9207 92.4993 78.5128C91.3629 78.5128 90.2598 78.5128 89.154 78.5128C88.8928 78.5128 88.6316 78.4905 88.3732 78.5183C87.8953 78.5711 87.7536 78.3794 87.7897 77.9098C87.9286 76.1177 88.5316 74.4839 89.5513 73.0279C90.282 71.9832 91.0962 70.9913 91.9242 70.0216C92.4993 69.3492 92.6466 68.6712 92.2798 67.871C91.9242 67.0902 91.2795 66.779 90.471 66.7096C88.89 66.5706 88.1065 67.1458 87.8008 68.6629C87.7786 68.774 87.7314 68.8824 87.6925 68.9991V68.9963Z" fill="url(#paint7_linear_223_584)"/>
<path d="M87.8203 85.5345V80.8916H92.4521V85.5345H87.8203Z" fill="url(#paint8_linear_223_584)"/>
<defs>
<linearGradient id="paint0_linear_223_584" x1="57.0008" y1="0.492187" x2="57.0008" y2="97.4064" gradientUnits="userSpaceOnUse">
<stop stop-color="#D42EBC"/>
<stop offset="1" stop-color="#D42EBC" stop-opacity="0"/>
</linearGradient>
<linearGradient id="paint1_linear_223_584" x1="23.9082" y1="17.0312" x2="23.9082" y2="33.5999" gradientUnits="userSpaceOnUse">
<stop offset="0.692708" stop-color="#D42EBC"/>
<stop offset="1" stop-color="#D42EBC" stop-opacity="0"/>
</linearGradient>
<linearGradient id="paint2_linear_223_584" x1="77.1407" y1="21.7637" x2="77.1407" y2="26.5182" gradientUnits="userSpaceOnUse">
<stop offset="0.692708" stop-color="#D42EBC"/>
<stop offset="1" stop-color="#D42EBC" stop-opacity="0"/>
</linearGradient>
<linearGradient id="paint3_linear_223_584" x1="32.1704" y1="57.2266" x2="32.1704" y2="61.9515" gradientUnits="userSpaceOnUse">
<stop offset="0.692708" stop-color="#D42EBC"/>
<stop offset="1" stop-color="#D42EBC" stop-opacity="0"/>
</linearGradient>
<linearGradient id="paint4_linear_223_584" x1="65.2986" y1="45.415" x2="65.2986" y2="50.1438" gradientUnits="userSpaceOnUse">
<stop offset="0.692708" stop-color="#D42EBC"/>
<stop offset="1" stop-color="#D42EBC" stop-opacity="0"/>
</linearGradient>
<linearGradient id="paint5_linear_223_584" x1="43.9899" y1="45.4209" x2="43.9899" y2="50.1371" gradientUnits="userSpaceOnUse">
<stop offset="0.692708" stop-color="#D42EBC"/>
<stop offset="1" stop-color="#D42EBC" stop-opacity="0"/>
</linearGradient>
<linearGradient id="paint6_linear_223_584" x1="22.6952" y1="45.415" x2="22.6952" y2="50.1386" gradientUnits="userSpaceOnUse">
<stop offset="0.692708" stop-color="#D42EBC"/>
<stop offset="1" stop-color="#D42EBC" stop-opacity="0"/>
</linearGradient>
<linearGradient id="paint7_linear_223_584" x1="90.1585" y1="61.9482" x2="90.1585" y2="78.5268" gradientUnits="userSpaceOnUse">
<stop offset="0.692708" stop-color="#D42EBC"/>
<stop offset="1" stop-color="#D42EBC" stop-opacity="0"/>
</linearGradient>
<linearGradient id="paint8_linear_223_584" x1="90.1362" y1="80.8916" x2="90.1362" y2="85.5345" gradientUnits="userSpaceOnUse">
<stop offset="0.692708" stop-color="#D42EBC"/>
<stop offset="1" stop-color="#D42EBC" stop-opacity="0"/>
</linearGradient>
</defs>
</svg>
