<svg width="194" height="31" viewBox="0 0 194 31" fill="none" xmlns="http://www.w3.org/2000/svg">
<path d="M15.7161 0.587891L19.1126 11.0412H30.1039L21.2118 17.5018L24.6082 27.9551L15.7161 21.4946L6.82397 27.9551L10.2205 17.5018L1.32832 11.0412H12.3196L15.7161 0.587891Z" fill="#C4C4C4"/>
<path d="M56.261 0.587891L59.6575 11.0412H70.6488L61.7567 17.5018L65.1532 27.9551L56.261 21.4946L47.3689 27.9551L50.7654 17.5018L41.8732 11.0412H52.8645L56.261 0.587891Z" fill="#C4C4C4"/>
<path d="M96.8079 0.587891L100.204 11.0412H111.196L102.304 17.5018L105.7 27.9551L96.8079 21.4946L87.9158 27.9551L91.3123 17.5018L82.4201 11.0412H93.4114L96.8079 0.587891Z" fill="#C4C4C4"/>
<path d="M137.355 0.587891L140.751 11.0412H151.743L142.85 17.5018L146.247 27.9551L137.355 21.4946L128.463 27.9551L131.859 17.5018L122.967 11.0412H133.958L137.355 0.587891Z" fill="#C4C4C4"/>
<path d="M177.902 0.587891L181.298 11.0412H192.289L183.397 17.5018L186.794 27.9551L177.902 21.4946L169.01 27.9551L172.406 17.5018L163.514 11.0412H174.505L177.902 0.587891Z" fill="#C4C4C4"/>
</svg>
