<svg width="56" height="75" viewBox="0 0 56 75" fill="none" xmlns="http://www.w3.org/2000/svg">
<g clip-path="url(#clip0_200_883)">
<path d="M28.712 0.681641C30.188 0.874202 31.6742 1.01609 33.1401 1.26801C37.1365 1.95428 40.9606 3.12413 44.2878 5.55214C46.1419 6.90441 47.589 8.57231 48.1336 10.8773C48.2002 11.1567 48.2683 11.4448 48.2698 11.73C48.2843 14.5214 48.3857 17.3172 48.2596 20.1028C48.1452 22.6307 46.6243 24.4695 44.7412 25.9998C44.2762 26.3777 44.0865 26.7484 44.1256 27.3333C44.1748 28.076 44.0937 28.8289 44.1444 29.5716C44.3834 33.0754 42.7596 35.6236 40.0466 37.61C37.0525 39.802 33.6282 40.9791 30.0359 41.6929C24.2868 42.8337 18.5492 42.7541 12.845 41.3468C12.7523 41.3237 12.6567 41.3034 12.5625 41.2947C12.5219 41.2904 12.4785 41.3208 12.3771 41.4902C13.6764 41.9679 14.9497 42.534 16.2779 42.9076C23.9956 45.0764 31.6409 44.9201 39.1586 42.0012C40.9649 41.3005 42.6351 40.3377 44.03 38.9637C45.4133 37.5998 46.2752 36.0362 45.9348 33.9933C45.8088 33.2346 46.2172 32.7018 46.8647 32.6063C47.5643 32.502 48.1017 32.906 48.2162 33.6849C48.2958 34.2307 48.3321 34.7882 48.3364 35.3398C48.3494 37.4102 48.3321 39.482 48.3451 41.5524C48.3596 43.7111 47.6223 45.5962 46.1042 47.0889C44.9324 48.2414 43.5867 49.2187 42.354 50.2452C42.2729 50.2206 42.3309 50.2611 42.3772 50.2495C45.5567 49.4344 48.5725 48.2732 51.0075 45.9683C52.2358 44.8057 53.0788 43.4331 53.0064 41.6552C52.9629 40.5824 52.524 39.6601 51.9128 38.8001C51.5912 38.3469 51.4855 37.7953 51.8853 37.4073C52.1677 37.1336 52.6646 37.0135 53.0788 36.9758C53.2932 36.957 53.5959 37.222 53.7567 37.4362C54.7243 38.7147 55.3124 40.1437 55.3197 41.771C55.3298 44.0108 55.2907 46.2506 55.3342 48.489C55.3776 50.7143 54.6287 52.6515 53.0441 54.1398C51.794 55.314 50.3296 56.2696 48.9086 57.2454C48.4943 57.5292 48.3176 57.7681 48.3321 58.256C48.3639 59.4114 48.2799 60.5711 48.3538 61.7221C48.5783 65.1911 46.998 67.7364 44.3298 69.733C41.3589 71.9568 37.9491 73.1817 34.3539 73.8955C27.9834 75.1594 21.6606 74.9118 15.4219 73.0673C12.9869 72.3477 10.6722 71.3386 8.61966 69.814C6.60912 68.3213 5.05777 66.5043 4.64784 63.9301C4.57686 63.4812 4.56817 63.0194 4.56817 62.5633C4.56238 58.1807 4.57686 53.7982 4.55658 49.4141C4.55079 48.1603 4.784 46.9818 5.3156 45.8481C5.41121 45.6425 5.45032 45.3168 5.35327 45.13C4.73041 43.9153 4.545 42.6224 4.55369 41.2831C4.55948 40.3435 4.53341 39.4038 4.57107 38.4656C4.59135 37.943 4.45084 37.5998 4.01484 37.2538C2.21579 35.8277 0.844048 34.0946 0.451501 31.7506C0.380524 31.3264 0.371833 30.8877 0.368936 30.4562C0.360245 28.506 0.447156 26.5515 0.347208 24.6056C0.18932 21.5463 1.45242 19.1892 3.75266 17.3288C4.37987 16.8206 4.62322 16.3167 4.58555 15.5175C4.52472 14.2217 4.49285 12.9071 4.6348 11.6214C4.89409 9.28754 6.23106 7.52987 7.98376 6.0748C10.594 3.9074 13.6489 2.61449 16.9109 1.85873C19.0359 1.36646 21.2232 1.14639 23.3829 0.80181C23.5697 0.771406 23.7552 0.72218 23.9406 0.681641C25.531 0.681641 27.1215 0.681641 28.712 0.681641ZM25.0936 21.9459C30.0736 21.9589 33.6876 21.4869 37.1959 20.3374C39.7786 19.4918 42.2251 18.3785 44.1719 16.408C46.6228 13.9278 46.6214 11.064 44.198 8.56362C43.0073 7.33586 41.5776 6.45558 40.0437 5.73457C37.051 4.32728 33.8803 3.57875 30.6052 3.22692C25.2413 2.65069 19.9774 3.08504 14.8729 4.89482C12.3568 5.78669 9.99864 6.98259 8.23291 9.07905C6.4382 11.2103 6.42227 13.6238 8.16338 15.7883C9.38447 17.3056 10.9778 18.335 12.7103 19.1516C17.0384 21.193 21.6447 21.9141 25.0921 21.9459H25.0936ZM6.94808 54.4685C6.65837 56.5027 7.04947 58.2662 8.46467 59.6575C9.31495 60.4944 10.2536 61.2892 11.2762 61.8944C15.2437 64.2385 19.637 65.1404 24.1752 65.4011C25.9265 65.5024 27.6893 65.4112 29.4478 65.3895C30.0533 65.3822 30.5603 65.611 30.6457 66.1945C30.7008 66.5781 30.5241 67.0979 30.2633 67.3918C30.0547 67.6278 29.5695 67.6857 29.2001 67.706C25.3833 67.913 21.5925 67.7046 17.8554 66.8576C13.8618 65.9541 10.1058 64.5497 7.09582 61.6179C7.05816 61.5817 6.97705 61.5904 6.93359 61.5831C6.56857 63.9199 7.47823 65.7341 9.1643 67.2398C10.6389 68.5573 12.3452 69.4897 14.1805 70.1832C20.4526 72.5533 26.8941 72.8892 33.4428 71.6861C36.686 71.091 39.7815 70.0674 42.5308 68.1794C43.6736 67.3947 44.6688 66.4623 45.3597 65.2375C46.0188 64.0705 46.1187 62.8268 45.9623 61.4123C44.1488 63.2438 42.0817 64.4469 39.8438 65.3793C38.9834 65.7384 38.3663 65.5589 38.0679 64.8798C37.7768 64.2182 38.1012 63.655 38.9211 63.2467C40.0813 62.669 41.2735 62.1275 42.3497 61.4152C43.2912 60.7926 44.0937 59.9587 44.957 59.2188C44.9092 59.1537 44.8614 59.0885 44.8136 59.0234C44.6326 59.0683 44.4529 59.1189 44.2704 59.1566C42.3178 59.5591 40.3797 60.144 38.4069 60.325C33.2748 60.7984 28.1166 60.9258 22.9701 60.6145C19.1301 60.3829 15.4001 59.5316 11.8875 57.8912C10.0711 57.0427 8.42121 55.9453 6.94808 54.4656V54.4685ZM6.94663 40.3637C6.55988 42.8511 7.44492 44.7623 9.24831 46.3201C10.7243 47.5957 12.4017 48.5425 14.2211 49.2013C21.988 52.0101 29.8143 52.0883 37.6652 49.569C39.8583 48.8654 41.8949 47.836 43.6505 46.3129C45.4423 44.7594 46.3259 42.8482 45.9652 40.4144C45.8841 40.4492 45.8087 40.4593 45.7667 40.5013C43.3405 42.8699 40.371 44.2497 37.1684 45.1807C31.8857 46.7154 26.4986 47.0151 21.0696 46.2868C15.8695 45.5904 10.9416 44.1556 6.94663 40.3623V40.3637ZM6.91621 18.1396C6.64534 20.0304 7.14218 21.7736 8.55303 23.2475C10.1536 24.9212 12.1265 26.0042 14.2529 26.8207C19.3155 28.7652 24.575 29.2647 29.9403 28.7927C33.4109 28.4872 36.7845 27.7416 39.9568 26.2518C41.7978 25.3874 43.5201 24.3508 44.7977 22.7017C45.8754 21.3103 46.1825 19.7481 45.9753 18.0035C45.8725 18.0541 45.8001 18.0686 45.7552 18.1121C43.4622 20.3547 40.6665 21.7143 37.6464 22.6438C32.1493 24.3363 26.5349 24.6244 20.861 23.8831C17.3832 23.4299 14.0009 22.5699 10.9199 20.8398C9.51194 20.0493 8.23001 19.0343 6.91621 18.1381V18.1396ZM41.7616 29.1807C38.3895 31.9084 36.4774 32.9523 33.1647 33.9195C27.6227 35.5381 21.9865 35.8378 16.291 35.0386C12.4988 34.5073 8.84852 33.4793 5.58213 31.3944C4.58411 30.7574 3.67879 29.977 2.7387 29.2661C2.37947 31.4755 3.10952 33.3099 4.72606 34.8301C6.03986 36.0666 7.555 37.0048 9.21645 37.6693C17.1528 40.8401 25.2037 40.9501 33.3139 38.4164C35.8618 37.6201 38.2156 36.4257 40.1089 34.4682C41.5269 33.003 42.0368 31.2598 41.7616 29.1793V29.1807ZM52.9557 47.5855C51.5608 48.5092 50.1948 49.585 48.6826 50.3842C44.6731 52.5038 40.3001 53.3421 35.8184 53.552C32.5983 53.7026 29.3652 53.7359 26.1423 53.6476C23.816 53.5839 21.4897 53.2914 19.1779 52.9859C17.8351 52.8078 16.5227 52.4039 15.0757 52.0738C15.3176 52.3518 15.4784 52.5545 15.6565 52.7412C17.2803 54.428 19.2923 55.5037 21.4506 56.3072C28.0848 58.7816 34.8652 58.9075 41.7109 57.3946C44.7875 56.7155 47.7193 55.6427 50.2426 53.6736C52.2619 52.0984 53.3989 50.1236 52.9557 47.5855ZM36.3789 30.0798C33.5688 30.7603 30.7196 31.1657 27.8269 31.2439C22.5239 31.3872 17.3411 30.7255 12.4553 28.5639C8.56462 26.8425 5.18089 24.5592 4.50154 19.7959C4.37697 19.9132 4.28861 19.987 4.21184 20.0724C2.12743 22.3527 2.15495 25.0645 4.3002 27.3767C5.90949 29.1112 7.93017 30.2188 10.1116 31.0354C16.5097 33.4301 23.07 33.6979 29.7259 32.4007C32.0435 31.949 34.2829 31.2337 36.3789 30.0784V30.0798ZM7.06541 47.7491C6.5367 49.5169 7.10307 51.0791 8.2865 52.4676C9.87552 54.3295 11.9599 55.4704 14.2037 56.3246C15.5363 56.8314 16.9138 57.2179 18.2711 57.6581L18.3305 57.4843C17.9162 57.244 17.4976 57.0138 17.0906 56.7633C14.7918 55.3488 12.8232 53.6403 11.902 50.985C11.8455 50.8214 11.6948 50.6593 11.5457 50.5652C10.074 49.6284 8.59359 48.7061 7.06396 47.7491H7.06541Z" fill="url(#paint0_linear_200_883)"/>
<path d="M26.4353 18.5911C22.7489 18.4738 19.1073 18.148 15.6874 16.6785C14.6705 16.2413 13.6551 15.6158 12.8831 14.8354C10.8624 12.7911 12.0139 10.3529 14.0332 9.19178C14.5691 8.88339 15.079 9.08608 15.4295 9.56676C15.7873 10.059 15.7294 10.5701 15.3209 11.0146C15.0935 11.2607 14.8067 11.4518 14.5735 11.6936C14.0317 12.2568 13.9825 12.7404 14.5822 13.2428C15.1992 13.7597 15.9003 14.2157 16.6333 14.5473C18.7626 15.5087 21.0469 15.8909 23.3558 16.0762C27.3682 16.3976 31.3487 16.2311 35.2075 14.957C36.0448 14.6805 36.8675 14.2968 37.6135 13.8292C39.0823 12.9084 39.0678 12.0628 37.6294 11.1159C36.1983 10.1734 34.5774 9.7101 32.9247 9.36552C29.7901 8.7111 26.6222 8.61264 23.4384 8.87904C23.2225 8.89642 23.0053 8.91958 22.7894 8.91379C22.1275 8.89642 21.6668 8.48379 21.6147 7.87859C21.5582 7.22852 21.9565 6.68124 22.6359 6.62333C27.5753 6.20201 32.4568 6.37575 37.1326 8.24779C37.9684 8.58224 38.781 9.06437 39.4864 9.62468C41.5897 11.2955 41.5708 13.696 39.4821 15.3856C37.8887 16.6756 35.9796 17.2678 34.0241 17.7195C33.2057 17.9092 32.3742 18.0728 31.5399 18.1596C29.8422 18.3363 28.1373 18.4506 26.4353 18.5911Z" fill="url(#paint1_linear_200_883)"/>
<path d="M18.948 9.53806C18.2977 9.52938 17.8414 9.05159 17.8457 8.38415C17.8501 7.73118 18.3252 7.25484 18.9785 7.24905C19.6245 7.2447 20.1778 7.81225 20.146 8.4493C20.1141 9.07331 19.5941 9.54675 18.9495 9.53662L18.948 9.53806Z" fill="url(#paint2_linear_200_883)"/>
<path d="M36.091 65.7048C36.0968 66.339 35.6058 66.8486 34.9757 66.8631C34.3253 66.8776 33.7749 66.3347 33.7893 65.6904C33.8024 65.0808 34.3412 64.5596 34.9539 64.5625C35.5783 64.5654 36.0852 65.075 36.091 65.7048Z" fill="url(#paint3_linear_200_883)"/>
</g>
<defs>
<linearGradient id="paint0_linear_200_883" x1="27.835" y1="0.681641" x2="27.835" y2="74.682" gradientUnits="userSpaceOnUse">
<stop offset="0.473958" stop-color="#D42EBC"/>
<stop offset="1" stop-color="#C957B8" stop-opacity="0.08"/>
</linearGradient>
<linearGradient id="paint1_linear_200_883" x1="26.4412" y1="6.43359" x2="26.4412" y2="18.5911" gradientUnits="userSpaceOnUse">
<stop offset="0.473958" stop-color="#D42EBC"/>
<stop offset="1" stop-color="#C957B8" stop-opacity="0.08"/>
</linearGradient>
<linearGradient id="paint2_linear_200_883" x1="18.9965" y1="7.24902" x2="18.9965" y2="9.53806" gradientUnits="userSpaceOnUse">
<stop offset="0.473958" stop-color="#D42EBC"/>
<stop offset="1" stop-color="#C957B8" stop-opacity="0.08"/>
</linearGradient>
<linearGradient id="paint3_linear_200_883" x1="34.9401" y1="64.5625" x2="34.9401" y2="66.8634" gradientUnits="userSpaceOnUse">
<stop offset="0.473958" stop-color="#D42EBC"/>
<stop offset="1" stop-color="#C957B8" stop-opacity="0.08"/>
</linearGradient>
<clipPath id="clip0_200_883">
<rect width="55" height="74" fill="white" transform="translate(0.333984 0.681641)"/>
</clipPath>
</defs>
</svg>
