<svg width="41" height="42" viewBox="0 0 41 42" fill="none" xmlns="http://www.w3.org/2000/svg">
<path d="M28.5003 0.5C28.5003 0.5 1.50034 34 0.500338 33C-0.499662 32 3.50034 37 3.50034 37C3.50034 37.5 8.50034 41.5 8.50034 41.5L41.0003 0.5H28.5003Z" fill="#FF1DDE"/>
<path d="M8.40575 34.329L9.11225 33.4385C9.43711 33.7162 9.66625 34.0077 9.79967 34.313C9.93104 34.6167 9.96606 34.9287 9.90473 35.249C9.84501 35.5673 9.6889 35.8855 9.43641 36.2038C9.24056 36.4506 9.02577 36.6376 8.79202 36.7646C8.55623 36.89 8.30434 36.9561 8.03635 36.9629C7.76836 36.9697 7.48852 36.9139 7.19684 36.7955C6.90474 36.6734 6.60364 36.4894 6.29355 36.2434L5.5377 35.6437C5.2276 35.3977 4.98154 35.1443 4.7995 34.8835C4.61907 34.6207 4.50169 34.358 4.44735 34.0955C4.39259 33.8293 4.40048 33.568 4.47102 33.3115C4.54114 33.0513 4.6725 32.7998 4.86511 32.5571C5.12246 32.2327 5.39893 32.0099 5.69452 31.8888C5.99011 31.7676 6.30215 31.7409 6.63064 31.8087C6.9587 31.8729 7.30075 32.0262 7.65679 32.2688L6.94543 33.1654C6.73003 33.0012 6.54515 32.8927 6.39079 32.8401C6.23602 32.7838 6.09854 32.7811 5.97836 32.832C5.85614 32.8813 5.73191 32.9855 5.60566 33.1446C5.51178 33.2629 5.45228 33.3819 5.42714 33.5016C5.39996 33.6197 5.41042 33.7427 5.45853 33.8706C5.50663 33.9985 5.59462 34.1348 5.72251 34.2795C5.85201 34.4221 6.02387 34.5784 6.23808 34.7483L7.00005 35.3529C7.21018 35.5196 7.39861 35.6508 7.56534 35.7465C7.73003 35.8406 7.87872 35.9004 8.01141 35.9259C8.1441 35.9514 8.26504 35.9393 8.37424 35.8896C8.48507 35.838 8.59227 35.7468 8.69586 35.6163C8.81563 35.4653 8.88949 35.3261 8.91745 35.1987C8.94702 35.0692 8.92147 34.9359 8.84079 34.7988C8.76012 34.6617 8.6151 34.5051 8.40575 34.329Z" fill="white"/>
<path d="M9.38672 32.9731L9.16333 32.7959C8.90424 32.5903 8.69901 32.3776 8.54764 32.1578C8.39788 31.936 8.30181 31.7135 8.25943 31.4904C8.215 31.2656 8.22284 31.0442 8.28297 30.8259C8.34267 30.604 8.45345 30.3911 8.6153 30.1871C8.77878 29.981 8.96096 29.8247 9.16184 29.7182C9.36231 29.6079 9.57702 29.5489 9.80596 29.5411C10.0345 29.5296 10.2738 29.5715 10.5239 29.6669C10.774 29.7623 11.0286 29.9127 11.2877 30.1183L11.5111 30.2955C11.7681 30.4995 11.9715 30.7124 12.1213 30.9342C12.271 31.1561 12.3673 31.3804 12.4101 31.6072C12.4546 31.8319 12.4467 32.0534 12.3866 32.2716C12.3265 32.4898 12.2155 32.701 12.0536 32.905C11.8918 33.109 11.7106 33.2661 11.5101 33.3763C11.3113 33.4845 11.0966 33.5435 10.866 33.5534C10.6355 33.5633 10.3951 33.5205 10.145 33.4252C9.89654 33.3277 9.64377 33.1771 9.38672 32.9731ZM9.84313 31.9391L10.0665 32.1163C10.2195 32.2377 10.3602 32.3327 10.4886 32.4013C10.6186 32.4679 10.7365 32.5099 10.8423 32.5274C10.9498 32.5428 11.0443 32.5347 11.1259 32.503C11.2075 32.4714 11.2791 32.4168 11.3406 32.3393C11.4021 32.2618 11.4398 32.1786 11.4537 32.0899C11.4676 32.0012 11.4531 31.9083 11.4105 31.8113C11.3694 31.7122 11.3 31.609 11.2024 31.5016C11.1064 31.3922 10.9819 31.2768 10.8289 31.1554L10.6055 30.9782C10.4565 30.86 10.3171 30.7677 10.1871 30.7011C10.055 30.6329 9.9371 30.5909 9.83333 30.575C9.72751 30.5575 9.63197 30.5648 9.54669 30.5969C9.46099 30.6253 9.3882 30.6773 9.32831 30.7528C9.26842 30.8282 9.23439 30.9109 9.22622 31.0008C9.21762 31.0871 9.23305 31.1808 9.2725 31.2819C9.31153 31.3793 9.37927 31.4846 9.47571 31.5977C9.57173 31.7071 9.6942 31.8209 9.84313 31.9391Z" fill="white"/>
<path d="M11.5422 28.0315L14.1678 30.1145L13.4855 30.9744L10.1745 28.3475L10.8154 27.5396L11.5422 28.0315ZM12.3043 28.8306L12.1211 29.0741C11.8853 28.8937 11.6872 28.7034 11.527 28.5031C11.3668 28.3028 11.2498 28.1004 11.1762 27.8957C11.1042 27.689 11.0834 27.4847 11.1139 27.2828C11.1444 27.081 11.2333 26.8872 11.3806 26.7016C11.4761 26.5812 11.5868 26.4878 11.7126 26.4214C11.8363 26.3534 11.9743 26.3199 12.1264 26.3209C12.2781 26.3183 12.4446 26.3556 12.6259 26.433C12.8067 26.5067 13.0002 26.6253 13.2063 26.7887L15.4157 28.5416L14.7359 29.3985L12.6305 27.7281C12.4836 27.6116 12.3601 27.5368 12.2599 27.5039C12.1577 27.4693 12.0702 27.4664 11.9975 27.4952C11.9228 27.5224 11.8547 27.5747 11.7932 27.6522C11.7285 27.7338 11.6942 27.823 11.6906 27.9198C11.6869 28.0166 11.7105 28.1168 11.7613 28.2203C11.8118 28.3201 11.883 28.4232 11.9749 28.5293C12.0684 28.6335 12.1783 28.7339 12.3043 28.8306ZM13.4957 27.153L13.2903 27.4936C13.0687 27.3245 12.8811 27.1441 12.7274 26.9523C12.5717 26.759 12.459 26.5616 12.3895 26.3601C12.3179 26.1571 12.2957 25.9567 12.323 25.7589C12.3519 25.5591 12.4375 25.3694 12.58 25.1899C12.6868 25.0552 12.8063 24.9506 12.9386 24.8761C13.0709 24.8015 13.2178 24.7651 13.3793 24.7669C13.5403 24.765 13.7176 24.8076 13.9111 24.8947C14.1043 24.9781 14.3171 25.1121 14.5497 25.2966L16.6612 26.9718L15.9789 27.8317L13.8705 26.1589C13.7216 26.0408 13.596 25.9644 13.4938 25.9298C13.3932 25.8932 13.3067 25.8911 13.2345 25.9236C13.1638 25.9539 13.0994 26.0059 13.0411 26.0793C12.9828 26.1527 12.9523 26.2332 12.9494 26.3206C12.9481 26.4061 12.9696 26.4963 13.0139 26.5913C13.0582 26.6862 13.121 26.781 13.2023 26.8754C13.2837 26.9698 13.3814 27.0624 13.4957 27.153Z" fill="white"/>
<path d="M14.5762 22.7995L17.8872 25.4264L17.205 26.2863L13.8939 23.6594L14.5762 22.7995ZM13.0055 23.0194C12.8729 22.9142 12.797 22.7858 12.7776 22.6341C12.7579 22.4789 12.8055 22.3288 12.9204 22.184C13.0337 22.0412 13.1664 21.9619 13.3184 21.9463C13.4705 21.9306 13.6128 21.9754 13.7454 22.0806C13.878 22.1858 13.955 22.315 13.9763 22.4682C13.9957 22.6199 13.9487 22.7671 13.8354 22.9099C13.7205 23.0547 13.5862 23.136 13.4325 23.1537C13.2784 23.1678 13.1361 23.123 13.0055 23.0194Z" fill="white"/>
<path d="M16.4897 21.8395L19.0938 23.9055L18.4116 24.7654L15.1006 22.1385L15.7391 21.3337L16.4897 21.8395ZM17.2231 22.6308L17.0472 22.8651C16.795 22.6718 16.5903 22.4711 16.4328 22.2631C16.277 22.053 16.1686 21.844 16.1076 21.636C16.0445 21.4264 16.0296 21.2252 16.063 21.0322C16.0944 20.8377 16.1772 20.6558 16.3116 20.4865C16.4119 20.36 16.5266 20.2615 16.6556 20.191C16.7863 20.1185 16.9314 20.0823 17.0908 20.0825C17.2502 20.0827 17.4275 20.1253 17.6227 20.2103C17.8178 20.2953 18.0337 20.4317 18.2704 20.6194L20.3757 22.2898L19.6935 23.1497L17.582 21.4745C17.4392 21.3612 17.3177 21.2881 17.2176 21.2551C17.1153 21.2206 17.0263 21.2197 16.9503 21.2525C16.874 21.2817 16.801 21.3402 16.7314 21.4279C16.6667 21.5095 16.6327 21.6005 16.6294 21.701C16.6241 21.7999 16.6443 21.9023 16.6899 22.0082C16.737 22.1122 16.8058 22.2182 16.8961 22.3265C16.9881 22.4327 17.0971 22.5341 17.2231 22.6308Z" fill="white"/>
<path d="M18.9438 17.2943L19.5605 16.5171L22.8716 19.144C23.1735 19.3835 23.3742 19.6375 23.4737 19.906C23.5769 20.174 23.5916 20.4466 23.5179 20.7239C23.4479 21.0007 23.3044 21.2758 23.0875 21.5492C23.005 21.6532 22.8976 21.7592 22.7655 21.8671C22.6349 21.973 22.4923 22.0626 22.3377 22.136C22.1851 22.2111 22.0372 22.255 21.8941 22.2678L21.5311 21.5061C21.6738 21.4896 21.8236 21.439 21.9807 21.3542C22.1398 21.271 22.2687 21.1671 22.3674 21.0427C22.4629 20.9223 22.5228 20.807 22.5472 20.6967C22.5752 20.5859 22.5605 20.4746 22.5031 20.3625C22.4474 20.2485 22.344 20.1316 22.193 20.0118L19.6439 17.9894L18.9438 17.2943ZM19.2492 20.5484L19.0289 20.3736C18.7596 20.1599 18.5442 19.9475 18.3827 19.7362C18.2212 19.525 18.1112 19.318 18.0526 19.1153C17.994 18.9126 17.9871 18.716 18.0319 18.5255C18.0763 18.3313 18.1672 18.1475 18.3048 17.9741C18.4489 17.7925 18.6092 17.6721 18.7859 17.6128C18.9605 17.5519 19.1482 17.5396 19.3488 17.5758C19.5511 17.6099 19.7643 17.6827 19.9885 17.794C20.2142 17.9033 20.4502 18.0374 20.6965 18.1962L21.0148 18.4487C21.2132 18.6427 21.3861 18.8397 21.5333 19.0396C21.6821 19.2375 21.7935 19.4322 21.8675 19.6239C21.9415 19.8156 21.9713 20.0021 21.957 20.1836C21.9407 20.3634 21.8661 20.537 21.7334 20.7042C21.5975 20.8756 21.4398 21.0031 21.2603 21.0868C21.0825 21.1685 20.8875 21.2049 20.6751 21.196C20.4624 21.1834 20.2368 21.1241 19.9985 21.0181C19.7581 20.9105 19.5083 20.7539 19.2492 20.5484ZM19.7111 19.5137L19.9315 19.6885C20.0865 19.8115 20.2274 19.9083 20.3542 19.979C20.4805 20.046 20.5956 20.0874 20.6994 20.1033C20.8011 20.1175 20.8944 20.1067 20.9793 20.071C21.0637 20.0316 21.1407 19.9681 21.2103 19.8803C21.309 19.7559 21.359 19.6343 21.3601 19.5155C21.3609 19.3931 21.324 19.2741 21.2495 19.1585C21.1746 19.0392 21.0714 18.9241 20.94 18.8132L20.3616 18.3544C20.2478 18.2674 20.1363 18.2005 20.0271 18.1538C19.9196 18.105 19.818 18.0759 19.7224 18.0666C19.6267 18.0572 19.5357 18.0714 19.4492 18.1092C19.3644 18.1449 19.2879 18.2056 19.22 18.2913C19.1504 18.379 19.1078 18.4682 19.0923 18.559C19.0768 18.6498 19.0888 18.7457 19.1283 18.8468C19.1673 18.9443 19.235 19.0495 19.3315 19.1626C19.4275 19.272 19.554 19.389 19.7111 19.5137Z" fill="white"/>
<path d="M24.8824 14.2023C24.8029 14.1392 24.7248 14.0889 24.6482 14.0513C24.5716 14.0138 24.4871 13.9967 24.3948 13.9999C24.3041 14.0011 24.1964 14.0237 24.0717 14.0677C23.9487 14.1097 23.8025 14.1766 23.6333 14.2684C23.4328 14.3786 23.2323 14.4805 23.0318 14.574C22.8292 14.6659 22.6266 14.7328 22.4238 14.7747C22.221 14.8166 22.0201 14.8185 21.8211 14.7802C21.6216 14.7383 21.426 14.6413 21.2342 14.4892C21.0465 14.3403 20.9029 14.1714 20.8033 13.9827C20.7053 13.792 20.6525 13.5905 20.6447 13.3782C20.6349 13.1643 20.6675 12.9492 20.7427 12.733C20.8195 12.5147 20.9413 12.3004 21.108 12.0903C21.3346 11.8047 21.5896 11.6048 21.873 11.4906C22.158 11.3743 22.4489 11.3408 22.7456 11.39C23.0439 11.4372 23.3267 11.5668 23.5939 11.7789L22.885 12.6724C22.7585 12.5721 22.6328 12.5022 22.5078 12.4629C22.3823 12.4199 22.2613 12.4153 22.1447 12.4491C22.0281 12.4829 21.9213 12.561 21.8242 12.6834C21.7335 12.7977 21.6817 12.9112 21.6688 13.0239C21.6554 13.1329 21.6739 13.2374 21.7243 13.3372C21.7743 13.4334 21.8483 13.5203 21.9462 13.598C22.0197 13.6563 22.0997 13.6916 22.1864 13.7038C22.2727 13.7124 22.3643 13.7037 22.4614 13.6777C22.5565 13.6501 22.6594 13.6104 22.7702 13.5587C22.8827 13.505 23.0006 13.4423 23.1239 13.3706C23.3637 13.2317 23.5931 13.1228 23.812 13.0439C24.0288 12.9633 24.2377 12.9179 24.4386 12.9077C24.6374 12.8959 24.8313 12.9218 25.0203 12.9853C25.2092 13.0488 25.3976 13.155 25.5852 13.3039C25.7709 13.4512 25.9143 13.6182 26.0155 13.8048C26.1163 13.9878 26.1732 14.1843 26.1863 14.3941C26.1973 14.6023 26.1636 14.8165 26.0852 15.0369C26.0084 15.2552 25.8858 15.4704 25.7175 15.6826C25.554 15.8886 25.3709 16.0608 25.1681 16.1991C24.9633 16.3358 24.7458 16.4275 24.5158 16.4744C24.2854 16.5177 24.0468 16.5062 23.8001 16.4401C23.5513 16.3724 23.3005 16.2382 23.0475 16.0375L23.7589 15.1408C23.8935 15.2477 24.0193 15.3259 24.1362 15.3754C24.2511 15.4233 24.3589 15.4424 24.4598 15.4327C24.5586 15.4213 24.6538 15.3871 24.7455 15.3302C24.8367 15.2697 24.9236 15.1874 25.0062 15.0833C25.1001 14.965 25.1521 14.8534 25.1622 14.7484C25.174 14.6414 25.1543 14.5426 25.1031 14.4521C25.0519 14.3617 24.9783 14.2784 24.8824 14.2023Z" fill="white"/>
<path d="M25.5901 12.5498L25.3667 12.3726C25.1076 12.167 24.9024 11.9544 24.751 11.7345C24.6013 11.5127 24.5052 11.2902 24.4628 11.0671C24.4184 10.8423 24.4262 10.6209 24.4864 10.4026C24.5461 10.1807 24.6568 9.96778 24.8187 9.76377C24.9822 9.55772 25.1644 9.40142 25.3652 9.29486C25.5657 9.18464 25.7804 9.12562 26.0094 9.11777C26.2379 9.10627 26.4772 9.14821 26.7273 9.24359C26.9774 9.33896 27.232 9.48943 27.4911 9.69499L27.7145 9.87222C27.9715 10.0762 28.1749 10.2891 28.3247 10.5109C28.4744 10.7328 28.5707 10.9571 28.6135 11.1839C28.658 11.4086 28.6501 11.6301 28.59 11.8483C28.5299 12.0666 28.4189 12.2777 28.257 12.4817C28.0952 12.6857 27.914 12.8428 27.7135 12.953C27.5147 13.0612 27.3 13.1202 27.0694 13.1301C26.8389 13.14 26.5985 13.0972 26.3484 13.0019C26.0999 12.9044 25.8472 12.7538 25.5901 12.5498ZM26.0465 11.5158L26.2699 11.693C26.4229 11.8144 26.5636 11.9094 26.692 11.978C26.822 12.0446 26.9399 12.0866 27.0457 12.1041C27.1532 12.1195 27.2477 12.1114 27.3293 12.0798C27.4109 12.0481 27.4825 11.9935 27.544 11.916C27.6055 11.8385 27.6432 11.7554 27.6571 11.6666C27.671 11.5779 27.6566 11.485 27.6139 11.388C27.5728 11.2889 27.5034 11.1857 27.4058 11.0783C27.3098 10.9689 27.1853 10.8535 27.0323 10.7321L26.8089 10.5549C26.6599 10.4367 26.5205 10.3444 26.3905 10.2778C26.2584 10.2096 26.1405 10.1676 26.0367 10.1517C25.9309 10.1342 25.8354 10.1415 25.7501 10.1736C25.6644 10.202 25.5916 10.254 25.5317 10.3295C25.4718 10.4049 25.4378 10.4876 25.4296 10.5776C25.421 10.6638 25.4364 10.7575 25.4759 10.8586C25.5149 10.9561 25.5827 11.0613 25.6791 11.1744C25.7751 11.2838 25.8976 11.3976 26.0465 11.5158Z" fill="white"/>
<path d="M28.0665 9.4285L27.8431 9.25127C27.584 9.04571 27.3788 8.83302 27.2274 8.6132C27.0777 8.39134 26.9816 8.16885 26.9392 7.94574C26.8948 7.72102 26.9026 7.49953 26.9628 7.2813C27.0225 7.0594 27.1332 6.84645 27.2951 6.64244C27.4586 6.43639 27.6408 6.28009 27.8416 6.17353C28.0421 6.06331 28.2568 6.00428 28.4858 5.99644C28.7143 5.98494 28.9536 6.02688 29.2037 6.12226C29.4538 6.21763 29.7084 6.3681 29.9675 6.57366L30.1909 6.75089C30.4479 6.95483 30.6513 7.16773 30.8011 7.38959C30.9508 7.61145 31.0471 7.83577 31.0899 8.06253C31.1344 8.28726 31.1265 8.50875 31.0664 8.72698C31.0063 8.94522 30.8953 9.15635 30.7334 9.36035C30.5716 9.56436 30.3904 9.72147 30.1899 9.83169C29.9911 9.93987 29.7764 9.9989 29.5458 10.0088C29.3153 10.0187 29.0749 9.97591 28.8248 9.88053C28.5763 9.78312 28.3236 9.63244 28.0665 9.4285ZM28.5229 8.39443L28.7463 8.57167C28.8993 8.69306 29.04 8.78806 29.1684 8.85668C29.2984 8.92326 29.4163 8.96529 29.5221 8.98275C29.6296 8.99818 29.7241 8.99007 29.8057 8.95842C29.8873 8.92678 29.9589 8.87219 30.0204 8.79467C30.0819 8.71714 30.1196 8.63402 30.1335 8.54531C30.1474 8.45659 30.1329 8.36371 30.0903 8.26668C30.0492 8.16761 29.9798 8.06439 29.8822 7.95701C29.7862 7.84758 29.6617 7.73218 29.5087 7.61079L29.2853 7.43355C29.1363 7.3154 28.9969 7.22303 28.8669 7.15645C28.7348 7.08825 28.6169 7.04623 28.5131 7.03038C28.4073 7.01292 28.3118 7.02022 28.2265 7.05229C28.1408 7.0807 28.068 7.13264 28.0081 7.20812C27.9482 7.28361 27.9142 7.36631 27.906 7.45622C27.8974 7.54248 27.9128 7.63616 27.9523 7.73727C27.9913 7.83472 28.0591 7.93999 28.1555 8.05307C28.2515 8.16249 28.374 8.27628 28.5229 8.39443Z" fill="white"/>
<path d="M30.2264 4.52525L32.8306 6.59134L32.1483 7.45124L28.8373 4.82432L29.4758 4.0195L30.2264 4.52525ZM30.9598 5.31658L30.7839 5.55094C30.5317 5.35756 30.327 5.15687 30.1695 4.94886C30.0137 4.73882 29.9053 4.52981 29.8443 4.32182C29.7812 4.11222 29.7664 3.91096 29.7997 3.71804C29.8311 3.52351 29.9139 3.34158 30.0483 3.17225C30.1486 3.04577 30.2633 2.94729 30.3924 2.87681C30.523 2.80429 30.6681 2.76812 30.8275 2.76829C30.9869 2.76846 31.1642 2.81105 31.3594 2.89608C31.5545 2.9811 31.7704 3.11749 32.0071 3.30524L34.1125 4.9756L33.4302 5.83549L31.3188 4.16028C31.1759 4.04698 31.0545 3.97386 30.9543 3.94092C30.852 3.90635 30.763 3.9055 30.6871 3.93834C30.6107 3.96752 30.5377 4.02598 30.4681 4.1137C30.4034 4.19531 30.3694 4.28634 30.3661 4.38681C30.3609 4.48566 30.381 4.58807 30.4266 4.69404C30.4738 4.79796 30.5425 4.90404 30.6328 5.01226C30.7248 5.11845 30.8338 5.21989 30.9598 5.31658Z" fill="white"/>
</svg>
