<svg width="37" height="36" viewBox="0 0 37 36" fill="none" xmlns="http://www.w3.org/2000/svg">
<g clip-path="url(#clip0_3696_43228)">
<path d="M7.69051 26.3842C7.77301 26.534 7.82458 26.6437 7.84708 26.6921C8.36927 27.6986 9.01051 28.7126 9.88708 29.2874L9.97239 29.3423C10.9643 29.9498 12.7399 30.4781 14.5671 30.7712C14.689 29.3702 15.5327 28.1033 16.3708 27.1693C15.2761 27.4964 14.1391 27.6631 12.9958 27.6642C11.1491 27.6666 9.32905 27.2275 7.68958 26.3842H7.69051ZM21.6686 21.0605C20.628 20.7284 19.0671 19.1777 16.6961 19.7395C14.7424 20.2028 14.1546 21.5554 13.8433 22.0484C13.1149 21.3349 12.3405 20.8512 11.6983 20.7433C11.2108 20.6605 10.8902 20.8084 10.7074 20.9451C10.3746 21.1963 10.3661 21.2056 12.5796 25.7721L12.7643 26.1526C12.7671 26.1591 12.7718 26.1647 12.7765 26.1712L12.9752 26.5786C12.9752 26.5786 13.1027 27.0056 13.8377 26.8037C13.8377 26.8037 18.9321 26.32 20.8689 22.8223C21.0349 22.5237 21.6771 21.0642 21.6686 21.0614V21.0605ZM1.52458 14.9563C1.53958 14.6633 1.52083 14.0112 1.09802 13.6753C0.75771 14.916 0.562054 16.1913 0.514893 17.4763C0.856142 17.507 1.2302 17.6344 1.60614 17.9256C1.51239 17.3209 1.31083 16.2995 1.52458 14.9563V14.9563ZM20.7077 30.2763C19.8761 29.3833 19.7346 27.7116 20.2914 25.2884C20.3353 25.0987 20.3815 24.9095 20.4302 24.7209C19.6408 25.5619 18.3227 26.3842 17.5118 27.1628C16.6155 28.0233 15.4849 29.4028 15.3771 30.8837C16.3333 30.9981 17.2727 31.0521 18.0921 30.9926C19.6652 30.8772 20.4236 30.4028 20.7077 30.2763ZM30.3077 9.22791C30.7031 9.71417 31.0339 10.2488 31.2921 10.8186C31.8593 11.8791 33.7118 14.9005 36.1586 14.3228C36.0255 13.4847 35.8371 12.6195 35.5821 11.7433C35.5633 11.6921 35.5464 11.6409 35.5268 11.5888L35.5361 11.586C35.2845 10.7496 34.9731 9.93202 34.6043 9.13954C33.1989 9.72279 31.548 9.53488 30.3077 9.22884V9.22791ZM27.7558 2.98605C27.8182 3.04228 27.8615 3.11622 27.88 3.19779C27.8984 3.27935 27.8911 3.36458 27.8589 3.44186C27.2524 4.89488 25.8714 6.09023 24.6911 6.89954C25.773 6.88372 27.2046 7.09488 28.8818 7.90326C29.4161 8.12837 32.2099 9.22233 34.2433 8.41116C34.2377 8.4 34.2293 8.38698 34.2246 8.37395C34.1833 8.29581 34.1402 8.2186 34.0971 8.1414C33.4127 6.91442 31.5921 4.11721 28.2499 2.01116C26.4722 0.940933 24.4866 0.25557 22.4233 0C22.6211 1.00731 22.5114 2.05025 22.1083 2.99535C25.2302 1.63535 26.8924 2.20465 27.7558 2.98605V2.98605ZM21.5158 29.9098C23.0468 29.2037 24.2814 28.5693 25.2761 28.0009C25.1946 27.9674 25.1177 27.933 25.0483 27.8949C23.5305 27.0716 22.6821 24.24 22.3005 21.7665C22.2465 21.9068 22.189 22.0458 22.128 22.1833C21.8636 22.8549 21.3968 24.1302 21.0883 25.4781C20.4264 28.3619 20.9243 29.4856 21.5158 29.9098V29.9098ZM31.3249 15.6521C29.4189 16.7033 27.5411 17.2307 25.7121 17.2307C24.6831 17.2309 23.6611 17.0621 22.6877 16.7312C23.0261 18.0781 22.7796 19.4363 22.9783 20.6642C23.0721 20.6958 23.1658 20.7284 23.2605 20.7572C26.0721 21.6716 28.2555 21.8307 29.5746 21.2167C29.9533 21.0409 30.2589 20.8028 30.4999 20.5005C31.4243 19.347 31.368 16.9395 31.3249 15.6521Z" fill="#FF6B00"/>
<path d="M26.9075 26.9824L26.9094 26.9852C28.8687 25.8382 30.0462 23.1889 30.4597 21.6456C30.2895 21.7634 30.1095 21.8664 29.9216 21.9535C29.2466 22.268 28.4497 22.3963 27.5966 22.3963C26.1453 22.3963 24.5347 22.0242 23.0975 21.5638C23.465 23.947 24.2656 26.5433 25.4412 27.1814C25.8819 27.4196 26.36 27.3545 26.9075 26.9824V26.9824ZM22.4759 15.788C22.8104 15.922 23.1525 16.0364 23.5006 16.1303C25.9756 16.7852 28.5931 16.3182 31.2866 14.7377C31.2594 13.2624 30.9687 12.0912 30.5459 11.1638C30.4316 10.947 30.3697 10.8103 30.3622 10.7926H30.3631C29.8993 9.90737 29.2256 9.14726 28.4 8.57772C26.5719 7.72562 25.0756 7.6512 24.0969 7.75911C26.8962 8.85121 27.3734 10.4242 27.395 10.5005L27.4137 10.5656C27.4569 10.7145 27.3875 10.8707 27.2478 10.9405L27.1869 10.9712C24.4962 12.3228 21.9491 11.5666 20.5587 10.92C20.9684 11.88 21.5112 13.1638 21.7231 13.6605L21.7287 13.6577C21.8159 13.8559 21.9003 14.0624 21.9837 14.2754L21.9894 14.2875C22.1787 14.7787 22.3414 15.2795 22.4769 15.788H22.4759ZM31.5997 27.5321C30.8797 26.5014 30.6434 25.0019 30.6097 23.6214C30.3838 24.1523 30.1304 24.6711 29.8503 25.1759L29.8522 25.1777C29.8137 25.2614 29.7687 25.3452 29.7181 25.4307C29.2991 26.2456 27.95 29.1014 28.5762 30.9359C28.7422 31.4518 29.1077 31.8814 29.5925 32.1303C30.1006 31.7582 31.5772 30.5935 33.0162 28.641C32.4491 28.4363 31.9728 28.067 31.6006 27.5321H31.5997ZM4.13281 23.52C3.20281 22.3126 2.53156 21.2707 2.19312 20.1759C2.0075 19.5721 1.38125 18.4391 0.5 18.2996C0.512187 20.0782 0.789687 21.7973 1.29312 23.4177C2.39656 23.2317 3.33875 23.3024 4.13281 23.52Z" fill="#FF6B00"/>
<path d="M27.8 31.1944C27.3725 29.9385 27.6894 28.3683 28.1188 27.0985C27.89 27.279 27.6369 27.4613 27.3669 27.6474L27.3697 27.6511C27.3247 27.6809 27.2816 27.7078 27.2375 27.7348C26.9221 27.948 26.6014 28.1533 26.2756 28.3506L26.2785 28.3553C26.0853 28.4725 21.6603 31.2502 23.7725 35.2158C25.6172 34.65 27.3577 33.7925 28.9269 32.6762C28.3937 32.3224 27.9966 31.8002 27.8 31.1944ZM36.2703 15.1292C36.0238 15.1823 35.7772 15.2111 35.5316 15.2111C34.3156 15.2111 33.1128 14.5646 32.0038 13.3041L31.9944 13.293C32.0694 13.8204 32.1069 14.3739 32.1069 14.9506C32.12 15.1209 32.1303 15.292 32.1378 15.4613C32.225 16.4288 32.5635 18.5767 33.8769 19.7292C34.5191 20.292 35.33 20.5479 36.2928 20.4967L36.3172 20.3692C36.4072 19.6474 36.4531 18.9134 36.4531 18.1692C36.455 17.2511 36.4063 16.2223 36.2703 15.1292V15.1292Z" fill="#FF6B00"/>
<path d="M33.334 20.3342C32.7368 19.8096 32.3131 19.1323 32.015 18.4356C31.9306 19.1137 31.8096 19.7649 31.6653 20.3863C31.5593 21.0114 30.9256 25.1426 32.2728 27.0691C32.5943 27.5314 33.0003 27.8151 33.5046 27.9398C34.1287 27.0055 34.6585 26.0125 35.0862 24.9751L35.0918 24.9779C35.5853 23.7986 35.9487 22.5697 36.1756 21.3128C35.0618 21.3407 34.1075 21.0133 33.335 20.3351L33.334 20.3342ZM7.95589 28.47C7.54526 27.8858 7.20402 27.2458 6.90308 26.6338C6.38933 25.7445 4.83495 23.71 1.55933 24.1965C2.22495 26.0291 3.18308 27.7221 4.37933 29.2226C5.35808 28.1993 6.73526 28.1584 7.95589 28.4691V28.47ZM18.3237 31.7975C17.1284 31.8961 15.7268 31.7947 14.3693 31.5677C13.3775 31.4635 10.6137 31.3612 8.68058 33.1166C10.9471 34.5873 13.5211 35.5273 16.2078 35.8654C16.175 34.671 16.7328 33.4375 17.8437 32.27C17.9975 32.1065 18.1576 31.9488 18.3237 31.7975V31.7975ZM9.49339 30.0021C9.04339 29.7342 6.37339 28.2514 4.93058 29.8235C5.33089 30.31 6.36214 31.4672 7.99245 32.644C9.05558 31.6152 10.3343 31.1091 11.5025 30.8766C10.2987 30.5277 9.51495 30.0161 9.49339 30.0021ZM23.5465 29.8375C22.5387 30.3398 19.8237 31.2514 18.2693 33.0105C17.5737 33.7993 16.9634 34.8077 17.0281 35.9231C17.5765 35.9826 18.8318 36.0719 20.4706 35.8952L20.7115 35.8673L20.81 35.8552C21.544 35.7612 22.265 35.6226 22.969 35.4421C21.8243 33.1538 22.5406 31.2096 23.5465 29.8375ZM7.60808 20.6784C7.6587 20.7184 7.74589 20.7751 8.02808 20.7751C8.36839 20.7751 8.98995 20.6914 10.1731 20.3937C11.6362 20.0233 13.066 19.5339 14.4481 18.9305C14.6384 18.843 15.1231 18.6086 15.6856 18.3323C15.883 18.5482 16.0376 18.7991 16.1412 19.0719C19.3381 18.3779 20.554 19.7556 21.8928 20.27C22.1665 18.9742 22.1215 17.2775 21.7887 16.3798C18.6818 15.003 16.7028 12.3314 15.9725 11.2012C15.2412 11.764 14.1528 12.5156 13.4909 13.843C12.1456 16.5426 10.7253 18.9705 8.18933 19.7435C7.75526 19.8756 7.47308 19.9826 7.43651 20.2942C7.42967 20.3675 7.44184 20.4412 7.47187 20.5085C7.50191 20.5757 7.5488 20.6342 7.60808 20.6784V20.6784Z" fill="#FF6B00"/>
<path d="M9.75783 14.9441C10.4985 14.4139 11.8353 13.4678 12.3041 13.0864C13.1535 12.3925 15.5066 10.5488 16.1 10.0827C16.1703 10.0269 16.2744 10.052 16.3156 10.132C18.1494 13.7506 21.4953 15.3292 21.4953 15.3292C21.3448 14.8722 21.1721 14.4227 20.9778 13.9823L20.9825 13.9813L20.2813 12.3404L19.8369 11.3041C19.6716 10.9162 19.5047 10.5289 19.3363 10.1423L18.8028 8.93109C18.785 8.89016 18.831 8.85388 18.8685 8.879L19.9503 9.65109C19.9822 9.67435 23.1031 11.8371 26.4509 10.4157C26.1116 9.87993 25.1103 8.75621 22.4338 8.08179L21.5216 7.85202C21.456 7.83528 21.4475 7.74598 21.5094 7.71807L22.3606 7.31993C22.3963 7.30319 25.8106 5.6883 26.9731 3.40551C25.445 2.36644 22.7778 3.50133 21.276 4.3004L19.5631 5.21202C19.5219 5.23435 19.4816 5.18412 19.5116 5.14877L20.7706 3.67993C20.8241 3.61667 22.0484 2.1404 21.605 0.0836514C20.7725 -0.0437904 17.9403 -0.24007 15.4391 2.35621L14.9403 2.87435C14.9303 2.88502 14.9174 2.89258 14.9032 2.89612C14.8889 2.89967 14.874 2.89904 14.8601 2.89431C14.8462 2.88959 14.834 2.88097 14.8249 2.8695C14.8159 2.85804 14.8104 2.84421 14.8091 2.8297L14.6 0.775744C13.3503 1.30598 10.0475 3.14133 9.55908 7.84179C9.38658 9.51435 9.11377 10.9506 8.74064 12.172L8.73783 12.1711L8.68908 12.3432C8.56578 12.731 8.42406 13.1128 8.26439 13.4874C8.14566 13.7444 8.00712 13.992 7.85002 14.2278C7.57533 14.6353 7.69814 14.9069 7.81158 15.0195C8.03377 15.2446 9.12877 15.3934 9.75783 14.9441ZM13.4638 7.25109C14.0188 6.8976 14.6075 7.48179 14.2522 8.03249C14.2288 8.0697 14.196 8.10226 14.1594 8.12551C13.6044 8.479 13.0147 7.89295 13.371 7.34226C13.3944 7.30598 13.4272 7.27528 13.4638 7.25016V7.25109ZM10.5388 7.25109C11.0938 6.8976 11.6825 7.48179 11.3263 8.03249C11.3038 8.0697 11.27 8.10226 11.2335 8.12551C10.6785 8.479 10.0897 7.89295 10.446 7.34226C10.4694 7.30598 10.5013 7.27528 10.5378 7.25016L10.5388 7.25109Z" fill="#FF6B00"/>
</g>
<defs>
<clipPath id="clip0_3696_43228">
<rect width="36" height="36" fill="white" transform="translate(0.5)"/>
</clipPath>
</defs>
</svg>
