<svg width="24" height="24" viewBox="0 0 24 24" fill="none" xmlns="http://www.w3.org/2000/svg">
<path d="M12.0024 24C9.62884 24.0005 7.30843 23.297 5.33467 21.9786C3.36091 20.6603 1.82246 18.7861 0.913913 16.5933C0.00536199 14.4005 -0.232481 11.9875 0.230464 9.65951C0.69341 7.33152 1.83635 5.1931 3.51472 3.51472C5.1931 1.83635 7.33152 0.69341 9.65951 0.230464C11.9875 -0.232481 14.4005 0.00536199 16.5933 0.913913C18.7861 1.82246 20.6603 3.36091 21.9786 5.33467C23.297 7.30843 24.0005 9.62884 24 12.0024C23.9962 15.1832 22.7309 18.2326 20.4818 20.4818C18.2326 22.7309 15.1832 23.9962 12.0024 24ZM12.0024 0.499302C9.72721 0.498825 7.50297 1.17307 5.61097 2.43675C3.71898 3.70044 2.24422 5.49682 1.3732 7.59869C0.502191 9.70057 0.274047 12.0135 0.717625 14.2451C1.1612 16.4766 2.25658 18.5265 3.86522 20.1355C5.47386 21.7445 7.52352 22.8403 9.75497 23.2843C11.9864 23.7284 14.2994 23.5007 16.4015 22.6301C18.5036 21.7596 20.3002 20.2852 21.5643 18.3935C22.8284 16.5017 23.5031 14.2776 23.5031 12.0024C23.4999 8.953 22.2873 6.02936 20.1313 3.87286C17.9752 1.71637 15.0518 0.503133 12.0024 0.499302Z" fill="white"/>
<path fill-rule="evenodd" clip-rule="evenodd" d="M3.54618 15.8748C3.53519 15.8816 3.52264 15.8854 3.50974 15.8859C2.80059 15.84 2.35678 15.0634 2.721 14.4893L10.7339 1.85973C10.797 1.7677 10.8816 1.69242 10.9804 1.64041C11.0791 1.5884 11.1891 1.56123 11.3007 1.56123C11.4123 1.56123 11.5222 1.5884 11.621 1.64041C11.7198 1.69242 11.8044 1.7677 11.8675 1.85973L14.1928 5.51159C14.3723 5.78805 14.4678 6.11061 14.4678 6.44023C14.4678 6.76986 14.3723 7.09241 14.1928 7.36888L12.7865 9.58556C13.0301 9.66715 13.2645 9.77386 13.486 9.90395C13.8292 10.1021 14.1307 10.3651 14.3737 10.6782C14.41 10.7246 14.4463 10.7794 14.4797 10.83C14.4863 10.8399 14.4928 10.8496 14.4991 10.8591L14.5353 10.9122C14.5824 10.9799 14.634 11.0443 14.6896 11.1052C14.7451 11.1679 14.8054 11.2282 14.8681 11.2885L14.9212 11.3391L15.0129 11.438L15.8595 10.1042C15.9285 10.0042 16.0207 9.9224 16.1283 9.86593C16.2358 9.80946 16.3555 9.77995 16.477 9.77995C16.5985 9.77995 16.7181 9.80946 16.8257 9.86593C16.9332 9.9224 17.0255 10.0042 17.0945 10.1042L19.9889 14.6557C20.0772 14.7946 20.1155 14.9594 20.0975 15.1229C20.0795 15.2865 20.0064 15.439 19.89 15.5554C20.2624 15.8844 20.5503 16.298 20.7294 16.7614C20.7851 16.8889 20.8256 17.0225 20.85 17.1594C20.8711 17.3099 20.8629 17.4631 20.8259 17.6105C20.7449 17.8847 20.5836 18.1283 20.3628 18.31C19.9653 18.6402 19.505 18.8863 19.0096 19.0336C18.5346 19.1844 18.0444 19.2823 17.5479 19.3255C17.3694 19.3496 17.2054 19.3496 17.0438 19.3496H16.8026C16.5378 19.342 16.2757 19.2932 16.0259 19.2049C15.5568 19.0104 15.1226 18.7407 14.7403 18.4065C14.3653 18.0926 14.0085 17.7576 13.6717 17.403C13.445 17.1763 13.2231 16.9351 13.0108 16.6939L12.69 16.3417C12.6213 16.2653 12.5445 16.1966 12.4609 16.1367C12.3832 16.0826 12.3027 16.0327 12.2197 15.9872L12.1714 15.9582C11.9184 15.8331 11.7029 15.6434 11.5467 15.4083C11.4046 15.1477 11.3601 14.8449 11.4213 14.5544C11.4657 14.2934 11.5469 14.04 11.6625 13.8018C11.6999 13.7319 11.7461 13.667 11.8 13.6089C11.853 13.5565 11.9112 13.5096 11.9737 13.469C12.0093 13.446 12.0417 13.4184 12.0701 13.387C12.0946 13.3521 12.1156 13.315 12.1329 13.276C12.1543 13.2325 12.172 13.1874 12.1859 13.1409C12.2073 13.0703 12.2331 13.001 12.2631 12.9335C12.3324 12.8079 12.4249 12.6966 12.5357 12.6055C12.7359 12.4432 12.9595 12.3123 13.199 12.2171C13.4282 12.1236 13.6645 12.0486 13.9057 11.9928C14.1434 11.936 14.3855 11.8997 14.6293 11.8843H14.7789L14.7258 11.8264C14.6882 11.7864 14.6438 11.7442 14.597 11.6997L14.5932 11.6961L14.5353 11.643C14.4581 11.5691 14.3905 11.4991 14.3327 11.4332C14.2648 11.3563 14.2012 11.2758 14.1421 11.192L14.0987 11.1245C14.0625 11.0714 14.0311 11.0256 13.9926 10.9749C13.7868 10.7137 13.533 10.4943 13.2448 10.3285C12.9404 10.1563 12.6165 10.021 12.28 9.92566C11.9412 9.81316 11.5966 9.71896 11.2476 9.64345C10.8871 9.56394 10.5193 9.5219 10.1501 9.51802C9.82435 9.5162 9.49981 9.55839 9.18532 9.64345C8.5161 9.84699 7.89949 10.1944 7.37868 10.6613C7.104 10.8876 6.84228 11.1292 6.59477 11.385L6.38733 11.5996C6.20642 11.7805 6.02069 11.9711 5.85185 12.1665C5.37861 12.7088 4.9631 13.2989 4.61205 13.9273C4.25024 14.5496 3.90532 15.2008 3.57245 15.8328V15.8473C3.56622 15.8586 3.55717 15.8681 3.54618 15.8748ZM12.2004 13.7946C12.1272 13.8433 12.0694 13.9119 12.034 13.9924C12.0232 14.0224 12.0144 14.053 12.0074 14.0841C12.0708 14.02 12.1385 13.9604 12.21 13.9056C12.3969 13.7662 12.6193 13.6826 12.8516 13.6644H13.0929H13.1266C13.2068 13.6522 13.281 13.615 13.3389 13.5582C13.4098 13.4834 13.4744 13.4027 13.5318 13.317C13.5897 13.2326 13.65 13.153 13.7176 13.0758C13.8655 12.9072 14.0439 12.7681 14.2434 12.6658C14.3421 12.6171 14.4436 12.5744 14.5473 12.5379L14.6631 12.5066C14.7298 12.4835 14.7984 12.4665 14.8681 12.4559C14.9674 12.4441 15.0673 12.4385 15.1672 12.439C15.0943 12.3089 15.0138 12.1833 14.926 12.0627C14.8311 12.0587 14.736 12.0611 14.6414 12.07C14.4092 12.1012 14.18 12.152 13.9564 12.2219C13.513 12.3382 13.1011 12.5516 12.7503 12.8467C12.6781 12.9151 12.6199 12.9971 12.5791 13.0879C12.5605 13.1313 12.5468 13.1766 12.5381 13.2229C12.522 13.2919 12.5011 13.3596 12.4754 13.4256C12.4478 13.4962 12.4122 13.5633 12.3692 13.6258C12.3217 13.6902 12.2648 13.7471 12.2004 13.7946ZM20.0516 17.9819C20.2023 17.8554 20.3129 17.6878 20.37 17.4995C20.3915 17.4128 20.3972 17.3229 20.3869 17.2342C20.3684 17.1343 20.3377 17.0371 20.2953 16.9448C20.1403 16.5299 19.8801 16.1626 19.5403 15.8786C19.1827 15.6092 18.7889 15.3916 18.3704 15.2322L18.3367 15.2177C18.1341 15.1285 17.9073 15.0248 17.6661 14.9017C17.4925 14.8101 17.3381 14.7184 17.1837 14.6268L17.0269 14.5351L16.407 14.1612L16.0959 13.9683L16.0428 13.9345C15.9505 13.8772 15.8611 13.8152 15.7751 13.7488L15.7413 13.7222C15.7304 13.7133 15.7221 13.7017 15.7172 13.6885L15.7003 13.6378C15.5927 13.3061 15.4588 12.9835 15.2999 12.673L15.2782 12.6296H15.2203C15.1575 12.6423 15.0955 12.6584 15.0346 12.6778L14.9284 12.7092C14.8632 12.7213 14.7987 12.7374 14.7355 12.7574L14.6366 12.7864C14.55 12.8236 14.4654 12.8655 14.3833 12.9118C14.2141 12.9996 14.0628 13.1182 13.9371 13.2615C13.8917 13.3126 13.8507 13.3667 13.8084 13.4225C13.7968 13.4379 13.785 13.4534 13.7731 13.469C13.7007 13.5697 13.62 13.6641 13.5318 13.7512C13.437 13.8487 13.3137 13.9138 13.1797 13.9369C13.1509 13.9414 13.1216 13.9414 13.0929 13.9369H12.8516C12.6757 13.9573 12.5088 14.0258 12.3692 14.1347C12.215 14.253 12.0792 14.3937 11.9664 14.552C11.9343 14.5858 11.9053 14.6195 11.8796 14.6533C11.8456 14.8321 11.8692 15.0171 11.9471 15.1815C12.0627 15.3451 12.2191 15.4756 12.4006 15.5602L12.4512 15.5892C12.4699 15.6003 12.4887 15.6113 12.5075 15.6223C12.5788 15.6641 12.6513 15.7065 12.7238 15.758C12.8364 15.8364 12.9392 15.9279 13.0301 16.0306C13.1047 16.1084 13.1782 16.1895 13.2514 16.2702C13.287 16.3096 13.3226 16.3488 13.3582 16.3876C13.3738 16.4047 13.3893 16.4218 13.4048 16.4388C13.6072 16.6613 13.8007 16.874 14.0046 17.0847C14.3294 17.4264 14.6741 17.7486 15.037 18.0495C15.3795 18.3492 15.7669 18.5934 16.1851 18.7731C16.39 18.8448 16.6049 18.8838 16.8219 18.8889H17.0462C17.1909 18.8889 17.3477 18.8816 17.5093 18.8672C17.9705 18.8268 18.4258 18.7362 18.8673 18.597C19.2992 18.4732 19.7019 18.264 20.0516 17.9819ZM8.97319 14.68C8.95759 14.6797 8.94245 14.6746 8.92978 14.6655L8.88636 14.6317C8.30746 14.2 7.75751 13.7658 7.24857 13.3606C7.23984 13.3532 7.2329 13.344 7.2283 13.3335C7.2237 13.3231 7.22156 13.3117 7.22204 13.3003L7.38364 11.3537C7.3854 11.3362 7.39346 11.32 7.40634 11.308C7.41921 11.296 7.43601 11.2891 7.45359 11.2886L11.0162 11.5805C11.0339 11.5817 11.0505 11.5896 11.0626 11.6026C11.0747 11.6156 11.0814 11.6327 11.0813 11.6504L11.0572 13.0663C11.0571 13.0769 11.0547 13.0874 11.0501 13.097C11.0455 13.1066 11.0389 13.1151 11.0307 13.1218L10.9125 13.2134C10.6647 13.4183 10.4186 13.6074 10.1698 13.7986L10.1698 13.7987L10.0369 13.9009C9.76289 14.112 9.47422 14.3273 9.1904 14.539L9.19028 14.5391L9.12756 14.5859L9.0142 14.6703C9.00198 14.678 8.98755 14.6814 8.97319 14.68ZM8.43293 13.9744L8.43304 13.9745L8.43315 13.9745C8.61238 14.0961 8.78932 14.2162 8.96596 14.3351C9.2554 14.0938 9.54485 13.8695 9.83912 13.6428L9.86919 13.6196C10.1528 13.4011 10.428 13.1891 10.7099 12.9771L10.7509 12.9457L10.7967 11.8386L7.57661 11.5081L7.38364 13.2689C7.75052 13.5114 8.09581 13.7457 8.43293 13.9744ZM10.1571 12.6661C10.1571 12.6572 10.1538 12.6486 10.1479 12.642C10.0283 12.4964 9.85731 12.4023 9.67031 12.3791C9.50387 12.369 9.33767 12.4022 9.1879 12.4755C8.87634 12.5735 8.58474 12.7262 8.3268 12.9266C8.32447 12.9306 8.32324 12.9352 8.32324 12.9399C8.32324 12.9445 8.32447 12.9491 8.3268 12.9531C8.32902 12.96 8.33371 12.9657 8.33996 12.9693C8.3462 12.9729 8.35355 12.974 8.36057 12.9724C8.65897 12.9175 8.96167 12.8892 9.26509 12.888C9.40764 12.9059 9.55188 12.9059 9.69443 12.888C9.85619 12.8497 10.0098 12.7827 10.1479 12.6902C10.1538 12.6836 10.1571 12.675 10.1571 12.6661Z" fill="white"/>
</svg>
