<svg width="44" height="44" viewBox="0 0 44 44" fill="none" xmlns="http://www.w3.org/2000/svg">
<g clip-path="url(#clip0)">
<path d="M43.523 19.295C43.523 20.94 43.523 22.583 43.523 24.226C43.499 24.278 43.468 24.327 43.452 24.379C43.126 25.631 42.296 26.322 41.035 26.501C40.069 26.638 39.1 26.758 38.128 26.859C37.834 26.89 37.689 26.999 37.589 27.282C37.38 27.87 37.149 28.449 36.881 29.009C36.739 29.302 36.736 29.497 36.949 29.758C37.562 30.5 38.148 31.268 38.729 32.035C39.68 33.275 39.595 34.674 38.495 35.794C37.602 36.702 36.699 37.603 35.791 38.498C34.678 39.596 33.275 39.678 32.032 38.725C31.248 38.121 30.463 37.513 29.689 36.899C29.502 36.751 29.352 36.719 29.121 36.826C28.508 37.11 27.881 37.374 27.244 37.606C26.988 37.7 26.894 37.831 26.867 38.089C26.788 38.848 26.691 39.607 26.594 40.363C26.499 41.063 26.449 41.771 26.012 42.379C25.562 42.998 24.937 43.319 24.229 43.524C22.586 43.524 20.941 43.524 19.298 43.524C19.247 43.501 19.197 43.469 19.145 43.453C17.935 43.137 17.227 42.348 17.04 41.12C16.887 40.127 16.774 39.128 16.666 38.129C16.634 37.838 16.529 37.688 16.244 37.585C15.633 37.365 15.033 37.112 14.441 36.842C14.207 36.735 14.046 36.731 13.838 36.9C13.067 37.52 12.282 38.127 11.492 38.726C10.242 39.677 8.844 39.59 7.733 38.496C6.824 37.6 5.924 36.698 5.026 35.791C3.928 34.679 3.844 33.282 4.799 32.034C5.41 31.234 6.039 30.449 6.636 29.642C6.723 29.528 6.749 29.302 6.699 29.168C6.449 28.506 6.18 27.851 5.883 27.21C5.814 27.066 5.627 26.91 5.475 26.886C4.508 26.743 3.537 26.63 2.568 26.516C1.807 26.427 1.115 26.163 0.66 25.537C0.377 25.145 0.216 24.666 0 24.226C0 22.555 0 20.884 0 19.211C0.029 19.165 0.066 19.123 0.081 19.074C0.442 17.855 1.267 17.182 2.512 17.016C3.481 16.886 4.447 16.764 5.418 16.661C5.697 16.631 5.831 16.523 5.929 16.26C6.158 15.637 6.411 15.022 6.69 14.42C6.809 14.173 6.772 14.018 6.614 13.819C5.995 13.045 5.387 12.261 4.787 11.475C3.841 10.237 3.936 8.83 5.04 7.719C5.926 6.825 6.819 5.935 7.711 5.047C8.841 3.927 10.228 3.836 11.5 4.802C12.297 5.411 13.084 6.038 13.888 6.64C13.995 6.722 14.203 6.76 14.325 6.714C15.013 6.453 15.692 6.171 16.361 5.868C16.484 5.814 16.616 5.644 16.637 5.512C16.75 4.771 16.825 4.027 16.924 3.283C17.022 2.543 17.048 1.786 17.519 1.143C17.966 0.53 18.585 0.195 19.299 0C20.942 0 22.587 0 24.23 0C24.28 0.022 24.33 0.054 24.382 0.07C25.596 0.384 26.299 1.175 26.488 2.401C26.641 3.395 26.754 4.393 26.862 5.394C26.894 5.686 27.001 5.831 27.283 5.934C27.907 6.161 28.523 6.418 29.123 6.697C29.357 6.804 29.502 6.772 29.689 6.624C30.456 6.016 31.229 5.419 32.001 4.822C33.264 3.844 34.663 3.916 35.794 5.026C36.703 5.92 37.606 6.821 38.498 7.731C39.598 8.848 39.68 10.244 38.729 11.489C38.119 12.29 37.489 13.073 36.89 13.881C36.805 13.994 36.777 14.221 36.827 14.355C37.074 15.017 37.346 15.67 37.643 16.311C37.708 16.457 37.898 16.614 38.051 16.638C39.017 16.782 39.986 16.893 40.955 17.008C41.766 17.101 42.476 17.4 42.948 18.083C43.197 18.447 43.334 18.89 43.523 19.295ZM22.03 30.827C27.103 30.598 31.058 26.392 30.829 21.473C30.592 16.419 26.409 12.485 21.496 12.696C16.433 12.915 12.479 17.117 12.698 22.049C12.921 27.088 17.134 31.05 22.03 30.827Z" fill="white"/>
</g>
<defs>
<clipPath id="clip0">
<rect width="43.523" height="43.523" fill="white"/>
</clipPath>
</defs>
</svg>
