<svg width="42" height="42" viewBox="0 0 42 42" fill="none" xmlns="http://www.w3.org/2000/svg">
<path d="M28.5843 0.818359C28.5843 0.818359 1.58432 34.3184 0.584322 33.3184C-0.415678 32.3184 3.58432 37.3184 3.58432 37.3184C3.58432 37.8184 8.58432 41.8184 8.58432 41.8184L41.0843 0.818359H28.5843Z" fill="white"/>
<path d="M8.7626 34.6338L9.4803 33.7523C9.80163 34.0341 10.0271 34.3285 10.1566 34.6354C10.2841 34.9407 10.3152 35.2532 10.2498 35.5727C10.1861 35.8902 10.026 36.2065 9.7695 36.5215C9.57056 36.7659 9.35342 36.9501 9.11808 37.0741C8.88073 37.1966 8.62802 37.2595 8.35997 37.2629C8.09191 37.2663 7.8128 37.2069 7.52264 37.0849C7.2321 36.9591 6.93335 36.7713 6.62639 36.5214L5.87818 35.9122C5.57122 35.6623 5.32837 35.4058 5.14964 35.1428C4.97255 34.8777 4.85849 34.6136 4.80747 34.3504C4.75607 34.0835 4.76726 33.8223 4.84104 33.5667C4.91444 33.3075 5.04897 33.0577 5.24463 32.8174C5.50606 32.4963 5.78532 32.277 6.08242 32.1596C6.37951 32.0421 6.69187 32.0194 7.01947 32.0913C7.3467 32.1596 7.68678 32.3173 8.03973 32.5644L7.3171 33.4519C7.10379 33.285 6.92029 33.1742 6.76662 33.1196C6.61256 33.0613 6.47513 33.0569 6.35432 33.1063C6.23149 33.154 6.10595 33.2567 5.9777 33.4142C5.88234 33.5313 5.82133 33.6496 5.79468 33.7689C5.76602 33.8866 5.77493 34.0097 5.82141 34.1382C5.86789 34.2668 5.95416 34.4041 6.0802 34.5504C6.2079 34.6947 6.37776 34.8531 6.58981 35.0258L7.34409 35.6399C7.55209 35.8092 7.73885 35.9428 7.90436 36.0406C8.06785 36.1368 8.21577 36.1985 8.34813 36.2256C8.48048 36.2528 8.60157 36.2422 8.71139 36.194C8.82286 36.1437 8.93121 36.0539 9.03643 35.9247C9.1581 35.7752 9.23372 35.637 9.26328 35.5099C9.29448 35.3809 9.27062 35.2473 9.19168 35.1091C9.11274 34.971 8.96972 34.8125 8.7626 34.6338ZM9.76062 33.2905L9.53949 33.1104C9.28302 32.9016 9.08049 32.6864 8.9319 32.4646C8.78497 32.2409 8.69171 32.0172 8.65215 31.7936C8.61056 31.5683 8.6212 31.347 8.68408 31.1295C8.74658 30.9084 8.86004 30.6968 9.02446 30.4949C9.19052 30.2909 9.37466 30.1369 9.57688 30.0329C9.77872 29.9252 9.99415 29.8689 10.2232 29.864C10.4518 29.8554 10.6906 29.9003 10.9395 29.9989C11.1883 30.0974 11.441 30.2511 11.6975 30.4599L11.9186 30.6399C12.1731 30.8471 12.3738 31.0625 12.5207 31.2863C12.6677 31.51 12.7611 31.7355 12.801 31.9628C12.8426 32.1881 12.832 32.4094 12.7691 32.6269C12.7062 32.8444 12.5926 33.0541 12.4282 33.256C12.2638 33.458 12.0806 33.6128 11.8788 33.7205C11.6786 33.8261 11.4631 33.8824 11.2325 33.8894C11.0018 33.8964 10.762 33.8506 10.5132 33.752C10.2659 33.6515 10.0151 33.4976 9.76062 33.2905ZM10.2301 32.2623L10.4512 32.4423C10.6026 32.5656 10.7421 32.6624 10.8696 32.7326C10.9988 32.8008 11.1162 32.8443 11.2218 32.8631C11.329 32.8799 11.4236 32.873 11.5056 32.8424C11.5876 32.8118 11.6599 32.7581 11.7224 32.6814C11.7848 32.6046 11.8236 32.522 11.8386 32.4335C11.8536 32.3449 11.8403 32.2519 11.7989 32.1543C11.7591 32.0547 11.691 31.9506 11.5947 31.842C11.5001 31.7314 11.3771 31.6144 11.2256 31.4911L11.0045 31.3111C10.857 31.1911 10.7188 31.0969 10.5896 31.0287C10.4584 30.9589 10.3411 30.9153 10.2375 30.8982C10.1319 30.8794 10.0363 30.8855 9.95059 30.9165C9.86454 30.9438 9.7911 30.9948 9.73026 31.0695C9.66943 31.1443 9.63435 31.2265 9.62504 31.3163C9.61536 31.4025 9.6296 31.4963 9.66777 31.5979C9.70557 31.6959 9.77197 31.802 9.86698 31.9163C9.96161 32.0269 10.0826 32.1422 10.2301 32.2623ZM11.9783 28.3764L14.5774 30.4925L13.8844 31.3437L10.6067 28.6752L11.2578 27.8755L11.9783 28.3764ZM12.7303 29.1851L12.544 29.4263C12.3105 29.2429 12.1149 29.0501 11.9572 28.8478C11.7995 28.6456 11.6851 28.4416 11.6141 28.236C11.5447 28.0284 11.5265 27.8239 11.5596 27.6224C11.5926 27.421 11.6839 27.2284 11.8336 27.0446C11.9306 26.9255 12.0424 26.8335 12.169 26.7687C12.2937 26.7022 12.432 26.6705 12.5841 26.6734C12.7358 26.6727 12.9018 26.7121 13.0821 26.7918C13.2621 26.8677 13.454 26.9888 13.658 27.1548L15.8451 28.9355L15.1545 29.7837L13.0704 28.0869C12.925 27.9685 12.8024 27.8922 12.7027 27.858C12.6009 27.8221 12.5135 27.8181 12.4404 27.846C12.3654 27.8722 12.2966 27.9236 12.2341 28.0004C12.1683 28.0812 12.133 28.1699 12.1281 28.2667C12.1232 28.3634 12.1455 28.4639 12.1951 28.568C12.2442 28.6685 12.3141 28.7724 12.4047 28.8797C12.4969 28.9851 12.6055 29.0869 12.7303 29.1851ZM13.9428 27.5227L13.7331 27.8607C13.5137 27.6888 13.3284 27.506 13.1771 27.3124C13.0238 27.117 12.9137 26.9182 12.8467 26.7159C12.7777 26.512 12.758 26.3113 12.7878 26.1139C12.8192 25.9145 12.9072 25.7259 13.0519 25.5482C13.1604 25.4149 13.2813 25.3118 13.4145 25.2389C13.5477 25.166 13.6951 25.1315 13.8565 25.1353C14.0175 25.1355 14.1943 25.1803 14.3867 25.2698C14.5788 25.3557 14.7899 25.4923 15.0201 25.6798L17.1103 27.3815L16.4172 28.2327L14.3301 26.5334C14.1827 26.4134 14.0581 26.3355 13.9563 26.2996C13.8562 26.2617 13.7698 26.2586 13.6971 26.2901C13.6261 26.3196 13.561 26.3707 13.5018 26.4434C13.4426 26.5161 13.411 26.5961 13.407 26.6835C13.4046 26.7689 13.425 26.8594 13.4681 26.9549C13.5112 27.0505 13.5728 27.146 13.653 27.2414C13.7331 27.3369 13.8297 27.4306 13.9428 27.5227ZM15.0781 23.1832L18.3558 25.8517L17.6627 26.703L14.3851 24.0344L15.0781 23.1832ZM13.5049 23.3832C13.3736 23.2764 13.2993 23.147 13.2819 22.9951C13.2641 22.8396 13.3136 22.6902 13.4303 22.5468C13.5454 22.4054 13.679 22.3279 13.8313 22.3141C13.9835 22.3004 14.1253 22.347 14.2565 22.4538C14.3878 22.5607 14.4631 22.6909 14.4826 22.8444C14.5 22.9962 14.4511 23.1429 14.336 23.2842C14.2193 23.4276 14.084 23.5072 13.9301 23.5229C13.7759 23.535 13.6341 23.4885 13.5049 23.3832ZM17.0036 22.2474L19.5815 24.3462L18.8885 25.1974L15.6109 22.5289L16.2595 21.7322L17.0036 22.2474ZM17.727 23.0479L17.5481 23.2801C17.2985 23.0835 17.0962 22.8802 16.9414 22.6703C16.7883 22.4583 16.6825 22.2479 16.6241 22.0392C16.5637 21.8288 16.5514 21.6273 16.5872 21.4349C16.621 21.2407 16.7061 21.0599 16.8426 20.8923C16.9446 20.7671 17.0605 20.67 17.1904 20.6012C17.322 20.5303 17.4675 20.496 17.6269 20.4982C17.7863 20.5004 17.963 20.5452 18.1571 20.6327C18.3512 20.7202 18.5653 20.8593 18.7996 21.05L20.8837 22.7468L20.1907 23.598L18.1005 21.8963C17.9592 21.7812 17.8386 21.7065 17.7388 21.6723C17.6371 21.6365 17.548 21.6345 17.4717 21.6664C17.395 21.6946 17.3213 21.7521 17.2506 21.8389C17.1848 21.9197 17.1497 22.0103 17.1451 22.1107C17.1386 22.2095 17.1574 22.3122 17.2017 22.4187C17.2475 22.5232 17.315 22.6302 17.4039 22.7395C17.4945 22.8468 17.6022 22.9497 17.727 23.0479ZM19.515 17.7336L20.1414 16.9642L23.4191 19.6328C23.7179 19.8761 23.9154 20.1326 24.0116 20.4023C24.1113 20.6716 24.1226 20.9444 24.0454 21.2207C23.9719 21.4966 23.8249 21.7699 23.6046 22.0405C23.5208 22.1435 23.4121 22.2481 23.2786 22.3543C23.1467 22.4585 23.003 22.5464 22.8474 22.6178C22.6939 22.6909 22.5455 22.733 22.4022 22.744L22.0488 21.9777C22.1917 21.9631 22.3422 21.9144 22.5003 21.8315C22.6605 21.7503 22.7907 21.6481 22.891 21.525C22.988 21.4058 23.0494 21.2912 23.0751 21.1812C23.1045 21.0709 23.0913 20.9593 23.0353 20.8466C22.981 20.7318 22.8791 20.6136 22.7296 20.4919L20.2063 18.4375L19.515 17.7336ZM19.7793 20.9913L19.5612 20.8137C19.2946 20.5967 19.0819 20.3815 18.9231 20.1683C18.7643 19.955 18.6568 19.7467 18.6008 19.5432C18.5448 19.3398 18.5404 19.1431 18.5876 18.9532C18.6344 18.7596 18.7277 18.5769 18.8674 18.4053C19.0138 18.2255 19.1757 18.1072 19.3531 18.0501C19.5285 17.9914 19.7162 17.9814 19.9164 18.0202C20.1182 18.0569 20.3305 18.1323 20.5532 18.2465C20.7776 18.3586 21.0119 18.4957 21.2562 18.6576L21.5712 18.9141C21.7672 19.1106 21.9375 19.3097 22.0822 19.5115C22.2285 19.7112 22.3375 19.9074 22.409 20.0999C22.4806 20.2925 22.5081 20.4795 22.4915 20.6607C22.4728 20.8403 22.3961 21.0129 22.2613 21.1785C22.1232 21.3482 21.9639 21.4737 21.7834 21.5551C21.6046 21.6345 21.4091 21.6684 21.1969 21.6568C20.9843 21.6416 20.7595 21.5795 20.5225 21.4705C20.2835 21.3598 20.0358 21.2001 19.7793 20.9913ZM20.2542 19.9625L20.4723 20.1401C20.6258 20.265 20.7655 20.3636 20.8913 20.4359C21.0168 20.5045 21.1314 20.5474 21.2349 20.5645C21.3365 20.58 21.4299 20.5705 21.5152 20.5358C21.6001 20.4975 21.6779 20.4349 21.7486 20.3481C21.8489 20.2249 21.9004 20.1039 21.903 19.9852C21.9053 19.8628 21.8699 19.7433 21.7969 19.6268C21.7235 19.5066 21.6218 19.3902 21.4918 19.2776L20.9193 18.8115C20.8066 18.7231 20.6959 18.6548 20.5874 18.6067C20.4804 18.5566 20.3792 18.5262 20.2837 18.5156C20.1882 18.5051 20.097 18.5181 20.0101 18.5548C19.9248 18.5894 19.8476 18.6492 19.7785 18.734C19.7078 18.8208 19.6641 18.9095 19.6475 19.0001C19.6309 19.0906 19.6416 19.1867 19.6798 19.2883C19.7176 19.3863 19.784 19.4924 19.879 19.6067C19.9736 19.7173 20.0987 19.8359 20.2542 19.9625ZM25.4922 14.7169C25.4134 14.6527 25.336 14.6014 25.2598 14.563C25.1837 14.5245 25.0995 14.5063 25.0071 14.5083C24.9164 14.5084 24.8085 14.5296 24.6832 14.572C24.5597 14.6125 24.4127 14.6775 24.2423 14.7671C24.0405 14.8748 23.8387 14.9742 23.637 15.0652C23.4333 15.1545 23.2298 15.2189 23.0265 15.2582C22.8232 15.2975 22.6223 15.2968 22.4238 15.2561C22.2248 15.2117 22.0305 15.1122 21.8406 14.9576C21.6549 14.8064 21.5134 14.6357 21.4162 14.4458C21.3206 14.2538 21.2703 14.0516 21.2652 13.8393C21.2581 13.6253 21.2935 13.4107 21.3714 13.1954C21.4509 12.978 21.5754 12.7654 21.7447 12.5574C21.9749 12.2746 22.2324 12.078 22.5173 11.9673C22.8037 11.8547 23.095 11.8249 23.391 11.8778C23.6887 11.9288 23.9698 12.062 24.2344 12.2774L23.5142 13.1619C23.389 13.0599 23.2642 12.9885 23.1397 12.9476C23.0148 12.903 22.8938 12.8969 22.7768 12.9292C22.6598 12.9616 22.552 13.0383 22.4533 13.1595C22.3613 13.2726 22.308 13.3854 22.2936 13.4979C22.2789 13.6068 22.2961 13.7115 22.3452 13.812C22.394 13.9088 22.4669 13.9966 22.5638 14.0756C22.6365 14.1347 22.7161 14.171 22.8027 14.1844C22.8888 14.1941 22.9806 14.1865 23.078 14.1617C23.1734 14.1353 23.2768 14.0969 23.3883 14.0466C23.5014 13.9943 23.6201 13.9331 23.7443 13.863C23.9859 13.7272 24.2166 13.6212 24.4364 13.545C24.6543 13.4671 24.8637 13.4244 25.0647 13.4168C25.2637 13.4075 25.4572 13.4358 25.6454 13.5017C25.8335 13.5676 26.0205 13.6761 26.2063 13.8274C26.3901 13.977 26.5314 14.1458 26.6302 14.3337C26.7287 14.518 26.7831 14.7151 26.7935 14.9251C26.8019 15.1334 26.7655 15.3472 26.6843 15.5666C26.6048 15.7839 26.4795 15.9975 26.3085 16.2076C26.1424 16.4115 25.9571 16.5814 25.7526 16.7171C25.5461 16.8512 25.3275 16.9402 25.0969 16.9842C24.866 17.0245 24.6276 17.01 24.3817 16.9408C24.1338 16.87 23.8846 16.7326 23.6342 16.5287L24.3568 15.6411C24.4901 15.7497 24.6149 15.8294 24.7312 15.8805C24.8455 15.9298 24.9531 15.9503 25.054 15.9418C25.1529 15.9317 25.2486 15.8987 25.341 15.843C25.433 15.7836 25.5209 15.7024 25.6048 15.5994C25.7002 15.4823 25.7536 15.3713 25.7651 15.2664C25.7782 15.1596 25.7597 15.0606 25.7096 14.9695C25.6596 14.8783 25.5871 14.7941 25.4922 14.7169ZM26.2207 13.0735L25.9996 12.8934C25.7431 12.6846 25.5405 12.4693 25.392 12.2476C25.245 12.0239 25.1518 11.8002 25.1122 11.5766C25.0706 11.3513 25.0813 11.1299 25.1441 10.9125C25.2066 10.6914 25.3201 10.4798 25.4845 10.2779C25.6506 10.0739 25.8347 9.91992 26.0369 9.81591C26.2388 9.70823 26.4542 9.65192 26.6832 9.64697C26.9119 9.63836 27.1507 9.68332 27.3995 9.78185C27.6484 9.88037 27.9011 10.034 28.1576 10.2429L28.3787 10.4229C28.6331 10.6301 28.8338 10.8455 28.9808 11.0693C29.1277 11.293 29.2212 11.5185 29.2611 11.7458C29.3027 11.9711 29.292 12.1924 29.2292 12.4099C29.1663 12.6274 29.0527 12.8371 28.8882 13.039C28.7238 13.241 28.5407 13.3958 28.3388 13.5034C28.1386 13.6091 27.9232 13.6654 27.6925 13.6724C27.4619 13.6793 27.2221 13.6336 26.9732 13.535C26.726 13.4345 26.4751 13.2806 26.2207 13.0735ZM26.6901 12.0452L26.9112 12.2253C27.0627 12.3486 27.2022 12.4454 27.3297 12.5156C27.4589 12.5838 27.5762 12.6273 27.6818 12.6461C27.7891 12.6629 27.8837 12.656 27.9657 12.6254C28.0477 12.5948 28.1199 12.5411 28.1824 12.4644C28.2449 12.3876 28.2836 12.305 28.2986 12.2164C28.3136 12.1279 28.3004 12.0349 28.2589 11.9373C28.2191 11.8377 28.1511 11.7336 28.0548 11.625C27.9602 11.5144 27.8371 11.3974 27.6857 11.2741L27.4645 11.0941C27.3171 10.974 27.1788 10.8799 27.0497 10.8117C26.9185 10.7418 26.8011 10.6983 26.6975 10.6812C26.592 10.6624 26.4963 10.6685 26.4107 10.6995C26.3246 10.7268 26.2512 10.7778 26.1903 10.8525C26.1295 10.9272 26.0944 11.0095 26.0851 11.0993C26.0754 11.1855 26.0897 11.2793 26.1278 11.3809C26.1656 11.4789 26.232 11.585 26.327 11.6993C26.4217 11.8099 26.5427 11.9252 26.6901 12.0452ZM28.7363 9.98366L28.5152 9.80362C28.2587 9.59481 28.0562 9.37954 27.9076 9.15783C27.7606 8.93409 27.6674 8.71041 27.6278 8.48678C27.5862 8.26151 27.5969 8.04014 27.6598 7.82268C27.7223 7.60156 27.8357 7.39002 28.0001 7.18807C28.1662 6.98411 28.3503 6.83012 28.5526 6.72611C28.7544 6.61843 28.9698 6.56212 29.1989 6.55717C29.4275 6.54856 29.6663 6.59351 29.9152 6.69204C30.164 6.79057 30.4167 6.94424 30.6732 7.15305L30.8943 7.33309C31.1488 7.54026 31.3495 7.75571 31.4964 7.97945C31.6433 8.20318 31.7368 8.4287 31.7767 8.65599C31.8183 8.88126 31.8077 9.10263 31.7448 9.32009C31.6819 9.53755 31.5683 9.74725 31.4039 9.9492C31.2394 10.1511 31.0563 10.306 30.8545 10.4136C30.6543 10.5193 30.4388 10.5756 30.2082 10.5826C29.9775 10.5895 29.7377 10.5438 29.4888 10.4452C29.2416 10.3447 28.9908 10.1908 28.7363 9.98366ZM29.2057 8.95544L29.4269 9.13548C29.5783 9.25879 29.7178 9.35557 29.8453 9.4258C29.9745 9.49402 30.0919 9.53753 30.1974 9.55633C30.3047 9.57311 30.3993 9.5662 30.4813 9.53558C30.5633 9.50497 30.6356 9.45129 30.698 9.37455C30.7605 9.29781 30.7993 9.21518 30.8143 9.12664C30.8293 9.0381 30.816 8.94506 30.7746 8.84749C30.7347 8.74791 30.6667 8.64382 30.5704 8.53521C30.4758 8.42459 30.3527 8.30762 30.2013 8.1843L29.9802 8.00426C29.8327 7.88424 29.6944 7.79012 29.5653 7.7219C29.4341 7.65204 29.3167 7.60853 29.2132 7.59137C29.1076 7.57257 29.012 7.57866 28.9263 7.60965C28.8402 7.63698 28.7668 7.688 28.7059 7.76272C28.6451 7.83744 28.61 7.9197 28.6007 8.00951C28.591 8.09565 28.6053 8.18952 28.6435 8.29112C28.6813 8.38906 28.7477 8.49517 28.8427 8.60946C28.9373 8.72009 29.0583 8.83541 29.2057 8.95544ZM30.9579 5.10808L33.5358 7.2069L32.8428 8.05811L29.5652 5.38958L30.2138 4.59289L30.9579 5.10808ZM31.6813 5.90861L31.5024 6.14073C31.2528 5.94418 31.0505 5.74091 30.8957 5.53094C30.7426 5.31895 30.6368 5.10858 30.5784 4.89984C30.518 4.68945 30.5057 4.48802 30.5415 4.29555C30.5753 4.10142 30.6605 3.92056 30.7969 3.75294C30.8989 3.62773 31.0148 3.53071 31.1447 3.46187C31.2763 3.39101 31.4218 3.35667 31.5812 3.35885C31.7406 3.36103 31.9174 3.40586 32.1114 3.49334C32.3055 3.58083 32.5197 3.71993 32.7539 3.91066L34.838 5.60747L34.145 6.45868L32.0548 4.75694C31.9135 4.64184 31.7929 4.56719 31.6931 4.53299C31.5914 4.49713 31.5023 4.49515 31.426 4.52703C31.3493 4.55525 31.2756 4.61278 31.2049 4.69962C31.1391 4.7804 31.104 4.871 31.0994 4.97142C31.0929 5.07019 31.1117 5.17285 31.156 5.27938C31.2018 5.38389 31.2693 5.49083 31.3582 5.60019C31.4488 5.70752 31.5565 5.81033 31.6813 5.90861Z" fill="#D639C0"/>
</svg>
