<svg width="85" height="67" viewBox="0 0 85 67" fill="none" xmlns="http://www.w3.org/2000/svg">
<path d="M0.160221 48.7523C0.0824347 32.6625 4.62882 19.1616 12.6735 6.75894C12.9499 6.33334 13.2917 6.0676 13.7462 5.85999C18.9005 3.51191 24.2616 1.85933 29.8069 0.800519C30.3514 0.696714 30.7015 0.777682 30.9532 1.33408C31.467 2.46348 32.0668 3.55343 32.5663 4.68906C32.7894 5.19563 33.0371 5.31397 33.5734 5.23716C39.5486 4.37765 45.5299 4.39633 51.5051 5.23716C52.0333 5.3119 52.2973 5.21432 52.5204 4.70152C53.0158 3.56381 53.6074 2.47178 54.1192 1.34031C54.3668 0.790139 54.7148 0.696714 55.2634 0.802596C60.8108 1.86349 66.1657 3.53475 71.3262 5.85999C71.7848 6.06552 72.1225 6.3458 72.3968 6.76517C80.4436 19.0495 84.9593 32.4507 84.9122 47.3073C84.904 49.6596 84.8876 52.0097 84.687 54.3557C84.6338 54.9827 84.4618 55.4374 83.9296 55.8298C77.7702 60.3411 71.0724 63.7542 63.8404 66.1044C63.2508 66.2954 62.9274 66.1708 62.5794 65.658C61.2632 63.7189 60.0677 61.7072 58.9337 59.656C58.5591 58.9792 58.6614 58.6533 59.4188 58.3647C61.3021 57.6484 63.1014 56.737 64.868 55.7529C65.5742 55.3605 65.5701 55.1343 64.9539 54.6007C64.2559 53.9986 63.6889 53.955 62.8537 54.3308C54.9031 57.8934 46.5944 59.2968 37.9253 58.4851C32.3104 57.9598 26.9452 56.4941 21.8011 54.1689C21.1706 53.8844 19.9568 54.3723 19.6661 55.0097C19.4614 55.4561 19.8401 55.5412 20.0878 55.6824C21.8687 56.7059 23.6925 57.6484 25.6147 58.3626C26.3495 58.6366 26.4908 58.9418 26.1141 59.6394C24.9842 61.7342 23.7662 63.7709 22.4152 65.7286C22.0713 66.2269 21.7561 66.2809 21.2279 66.1085C13.9243 63.7459 7.18348 60.2664 0.97288 55.7135C0.520493 55.3813 0.438613 54.9702 0.397673 54.4699C0.219584 52.1903 0.129516 49.9108 0.160221 48.7523ZM28.4518 45.4119C30.1611 45.4305 31.6615 44.8658 32.9654 43.7634C36.562 40.724 37.1802 34.886 34.3083 31.1303C31.1313 26.9781 25.4571 27.1131 22.4869 31.4127C20.3314 34.5331 20.3048 38.9095 22.4541 42.034C23.9054 44.1434 25.8665 45.3579 28.4518 45.4098V45.4119ZM64.26 36.8396C64.2989 36.0009 64.2313 35.1725 64.0103 34.3711C63.1853 31.3732 61.4597 29.1705 58.4076 28.3525C55.6175 27.6051 53.2144 28.4667 51.3004 30.6134C48.2361 34.0514 48.3036 39.6091 51.4028 43.0181C54.1151 45.9994 58.4363 46.2506 61.3921 43.5662C63.3593 41.7787 64.2252 39.4846 64.26 36.8396Z" fill="#ECC7E7"/>
</svg>
