<svg width="69" height="75" viewBox="0 0 69 75" fill="none" xmlns="http://www.w3.org/2000/svg">
<path d="M23.5231 56.146V32.6384H7.73178C7.81501 33.7056 7.89084 34.7653 7.98516 35.8251C8.13313 37.4804 8.29773 39.1339 8.44755 40.7893C8.54372 41.8527 8.11464 42.5019 7.29714 42.55C6.53698 42.5944 6.03761 42.0377 5.94328 41.0094C5.73613 38.7104 5.54008 36.4114 5.33478 34.1124C5.29224 33.6279 5.22381 33.147 5.15353 32.5533C4.62086 32.5533 4.13629 32.5681 3.65356 32.5514C1.64311 32.4812 0.381729 31.205 0.37803 29.2038C0.368782 24.4949 0.368782 19.7841 0.37803 15.0752C0.381729 13.0906 1.6875 11.7923 3.68315 11.7682C5.03516 11.7516 6.38901 11.7645 7.82055 11.7645C7.91858 11.1579 8.00551 10.5919 8.10168 10.026C8.46604 7.87866 9.15222 5.84972 10.36 4.02238C13.4099 -0.594057 18.5035 -1.15632 22.4726 2.67222C22.6483 2.84053 22.8258 3.00514 22.9978 3.16605C24.6476 2.10071 25.0749 2.09517 26.5508 3.1494C27.015 2.74065 27.4774 2.30046 27.9731 1.90281C31.1432 -0.642146 35.0217 -0.453493 37.9032 2.43178C40.1578 4.68821 41.0881 7.56424 41.5653 10.6308C41.6208 10.9877 41.6744 11.3465 41.7392 11.7627C43.0653 11.7627 44.3248 11.759 45.5825 11.7627C47.9665 11.7701 49.1854 12.9649 49.1891 15.3267C49.1965 19.8821 49.1965 24.4375 49.1891 28.9948C49.1854 31.3141 47.9813 32.5182 45.6657 32.5533C45.2718 32.5588 44.876 32.5533 44.3877 32.5533C44.2878 33.6316 44.1953 34.6322 44.1251 35.3942C45.5474 36.3004 46.8124 37.1346 48.1145 37.9095C48.3124 38.0279 48.7341 37.9502 48.9597 37.8115C49.694 37.3658 50.3432 36.7721 51.0978 36.3726C53.5836 35.0631 56.0546 35.8954 57.2752 38.433C57.5934 39.0932 57.8356 39.8016 58.0114 40.5137C58.1704 41.1592 58.4405 41.407 59.1414 41.37C60.0255 41.3238 60.9336 41.3552 61.8029 41.5124C64.2295 41.9508 65.6888 44.0056 65.3022 46.4414C65.158 47.344 64.8472 48.2262 64.5495 49.0955C64.3904 49.5598 64.4718 49.8205 64.8824 50.0869C65.5001 50.4882 66.1142 50.9118 66.6598 51.4037C68.9513 53.4697 68.9458 56.3402 66.6524 58.395C66.1271 58.8648 65.5519 59.292 64.9527 59.6619C64.4496 59.9708 64.4034 60.2926 64.6197 60.8012C64.8602 61.3653 65.0507 61.9553 65.1931 62.5527C65.9662 65.8042 64.2258 68.1846 60.8966 68.4343C60.0458 68.4971 58.9879 68.2086 58.3979 68.6174C57.8504 68.9984 57.843 70.1118 57.5286 70.8756C56.2358 74.0143 53.4134 74.9132 50.5392 73.1025C49.8401 72.6623 49.1928 72.137 48.4733 71.6154C47.911 72.0334 47.3617 72.4699 46.7847 72.8694C43.5998 75.0685 40.5314 74.0716 39.2423 70.4299C39.0111 69.7752 38.939 68.8892 38.4729 68.5415C38.0364 68.216 37.1727 68.4749 36.4976 68.4565C32.7208 68.3547 30.851 65.8172 31.8608 62.1754C31.9107 61.9979 31.9718 61.8222 32.0088 61.6428C32.129 61.075 32.5266 60.2094 32.301 59.9911C31.6296 59.3401 30.8861 58.7224 29.7523 58.7334C23.5656 58.7889 17.3789 58.763 11.1904 58.7593C8.50304 58.7593 7.50798 57.8716 7.24535 55.2249C7.07149 53.4808 6.92354 51.733 6.77742 49.9852C6.69604 49.016 7.08629 48.4297 7.83535 48.3446C8.6325 48.2521 9.15592 48.7885 9.2484 49.7891C9.4204 51.6571 9.60536 53.5233 9.75517 55.3932C9.79956 55.9499 10.016 56.2754 10.5856 56.2754C14.8025 56.2754 19.0195 56.268 23.2364 56.2569C23.3197 56.2569 23.4047 56.1977 23.5286 56.1497L23.5231 56.146ZM37.7922 43.8447C37.3927 43.8447 36.9914 43.8318 36.5919 43.8465C34.3743 43.9261 33.6733 44.9045 34.3207 47.037C34.5611 47.8304 34.8293 48.6183 35.1234 49.3933C35.4618 50.2811 35.2159 50.9377 34.4501 51.4648C33.616 52.0381 32.7523 52.5856 31.9903 53.2459C30.7437 54.3297 30.7714 55.5393 32.0384 56.5898C32.7467 57.178 33.5383 57.6644 34.2837 58.2082C35.3546 58.9887 35.4655 59.3087 35.0716 60.5515C34.7923 61.4301 34.4243 62.2846 34.206 63.1779C33.7899 64.8794 34.4705 65.8024 36.2109 65.9078C37.1912 65.9688 38.1788 65.917 39.1628 65.8985C40.0468 65.8819 40.6183 66.2537 40.8736 67.1248C41.1584 68.0976 41.421 69.0853 41.802 70.0212C42.4438 71.5988 43.5295 71.941 44.9647 71.0329C45.7693 70.5242 46.5184 69.9268 47.2693 69.3387C48.0923 68.6932 48.8673 68.6839 49.6903 69.3516C50.4061 69.9324 51.1403 70.502 51.9134 70.9996C53.3857 71.9465 54.4917 71.6136 55.1501 70.0008C55.533 69.0649 55.7975 68.0773 56.0767 67.1026C56.3172 66.2666 56.8554 65.8875 57.7025 65.8985C58.6568 65.9115 59.6112 65.967 60.5637 65.9244C62.4965 65.8394 63.2141 64.8443 62.6962 62.9781C62.4502 62.0904 62.1377 61.2192 61.8177 60.3536C61.4866 59.4585 61.753 58.8111 62.5224 58.2933C63.314 57.7624 64.1185 57.2409 64.8528 56.6342C66.2214 55.5042 66.2307 54.2909 64.8713 53.1571C64.1185 52.5283 63.2807 51.9993 62.4706 51.4389C61.7419 50.9358 61.4977 50.3033 61.8085 49.4451C62.1525 48.4907 62.5076 47.5345 62.748 46.5506C63.1475 44.9156 62.4447 43.9686 60.7709 43.8669C59.7906 43.8077 58.8011 43.8447 57.819 43.8798C56.8776 43.915 56.3172 43.5007 56.0509 42.6055C55.7531 41.6049 55.4886 40.5821 55.0743 39.6296C54.4344 38.1555 53.3783 37.8596 52.0133 38.7252C51.2624 39.2005 50.5799 39.7868 49.8586 40.3084C48.6564 41.1795 48.2717 41.1703 47.0658 40.2862C46.2983 39.7221 45.564 39.0988 44.7465 38.6161C43.548 37.9095 42.5419 38.2406 41.9278 39.5001C41.6467 40.0753 41.458 40.7023 41.2805 41.3201C40.7762 43.0759 39.6147 43.915 37.796 43.8373L37.7922 43.8447ZM22.0823 16.1498C21.7531 16.4402 21.4849 16.6898 21.2038 16.9266C19.2174 18.5986 17.1774 20.1873 14.5455 20.7218C12.1984 21.199 10.1269 20.2983 9.0394 18.1695C8.53078 17.1744 8.2552 16.0462 7.99811 14.9476C7.87049 14.4038 7.67999 14.2411 7.16027 14.2559C6.08384 14.2854 5.00557 14.2965 3.92914 14.2632C3.18562 14.2411 2.86381 14.5259 2.86565 15.2823C2.87675 19.8673 2.8712 24.4523 2.8601 29.0373C2.85825 29.7882 3.18933 30.0583 3.93099 30.0583C17.8395 30.0472 31.748 30.0472 45.6546 30.0583C46.3944 30.0583 46.7181 29.7845 46.7144 29.0281C46.6996 24.4431 46.6978 19.8581 46.7144 15.2731C46.7163 14.5018 46.3648 14.2411 45.6398 14.2577C44.5634 14.2836 43.4851 14.2854 42.4087 14.2559C41.8779 14.2411 41.6374 14.4075 41.5745 14.9605C41.5061 15.5672 41.36 16.1738 41.1806 16.7583C40.1319 20.1614 37.291 21.6669 33.96 20.4093C32.5155 19.8636 31.1894 18.9666 29.8762 18.1269C29.0162 17.5776 28.2727 16.847 27.4663 16.1868C25.6926 19.453 24.2463 19.4419 22.0842 16.1498H22.0823ZM26.0792 32.6199C26.0625 32.9694 26.0366 33.2691 26.0366 33.5687C26.0274 40.3972 26.02 47.2257 26.0126 54.0541C26.0113 55.6262 26.8066 56.3611 28.3985 56.2588C28.4835 56.2532 28.5686 56.207 28.6926 56.1681C28.6759 55.863 28.6667 55.5615 28.6408 55.2619C28.5057 53.6972 29.105 52.4339 30.2647 51.4296C30.8195 50.9488 31.4151 50.5049 32.0328 50.1054C32.4748 49.8205 32.5729 49.5542 32.3768 49.0493C32.0901 48.3076 31.8534 47.5345 31.6999 46.7559C31.1691 44.087 32.6136 41.9452 35.2769 41.4884C36.1166 41.3441 36.9933 41.3201 37.8459 41.3719C38.5117 41.4126 38.767 41.1814 38.9149 40.5673C39.3033 38.9619 39.8785 37.449 41.3175 36.4392C41.4451 36.3504 41.5376 36.1377 41.5542 35.9712C41.667 34.8782 41.754 33.7851 41.8557 32.618H26.081L26.0792 32.6199ZM10.323 12.8484L10.0677 12.9279C10.4709 14.3243 10.7595 15.7669 11.3125 17.1023C11.7379 18.1269 12.7422 18.5079 13.863 18.2989C14.4012 18.1972 14.945 18.0492 15.4443 17.8255C17.6989 16.8138 19.5115 15.1954 21.2223 13.4624C21.4146 13.2682 21.4387 12.8595 21.4516 12.5469C21.5219 10.7695 21.3869 8.96064 21.6773 7.22207C21.8863 5.96624 21.5127 5.21163 20.6952 4.41633C18.4942 2.27642 16.0898 2.01748 13.85 3.84667C13.1768 4.39599 12.6127 5.13765 12.1633 5.89041C10.8871 8.02292 10.3951 10.3885 10.323 12.8502V12.8484ZM28.3726 10.3866L28.2986 10.4033C28.2505 11.1375 28.1821 11.8737 28.1654 12.6079C28.158 12.8927 28.1691 13.2811 28.3411 13.4513C30.2258 15.3101 32.1567 17.13 34.7109 18.0492C36.7787 18.7928 38.2158 18.1528 38.7485 16.037C39.1073 14.6054 39.2145 13.0592 39.1276 11.5814C38.9741 8.99578 38.1918 6.55994 36.4735 4.5458C34.7091 2.47802 32.203 2.03228 30.1315 3.43793C29.3565 3.96504 28.6999 4.68451 28.0545 5.37439C27.8714 5.56859 27.8344 5.98104 27.8658 6.28066C28.0101 7.65117 28.2006 9.01797 28.3744 10.3866H28.3726ZM24.7161 15.7928C26.1291 13.7787 26.0292 6.61913 24.6846 5.26897C23.5712 8.77568 23.573 12.1751 24.7161 15.7928Z" fill="url(#paint0_linear_201_626)"/>
<path d="M47.6895 58.5573C47.6895 57.4939 47.7376 56.4267 47.6563 55.3706C47.6359 55.1043 47.2383 54.8139 46.9534 54.6271C46.0028 54.0093 45.3795 53.1419 45.4905 52.0322C45.5644 51.2979 45.9602 50.5507 46.3727 49.9108C46.7907 49.2616 47.7876 49.1709 48.0225 48.2184C48.126 47.8004 49.0841 47.9373 49.1951 48.4348C49.3264 49.0285 49.7185 49.1709 50.1587 49.3947C51.0668 49.8553 51.7012 50.5747 51.6198 51.6456C51.5958 51.9656 51.2203 52.3965 50.9096 52.5112C50.7006 52.587 50.2678 52.243 50.0329 51.9952C49.8184 51.7695 49.737 51.42 49.5964 51.1259L49.319 51.1499C49.319 51.7566 49.3911 52.3743 49.3023 52.968C49.1692 53.8521 49.8905 53.9316 50.3677 54.2368C51.5551 55.0007 52.3596 55.9809 52.2246 57.4846C52.0896 58.9809 51.285 59.9648 49.8849 60.5141C49.6426 60.6085 49.5169 60.971 49.3023 61.1707C49.0582 61.4001 48.7715 61.7515 48.5089 61.7459C48.2426 61.7404 47.9744 61.376 47.7284 61.1467C47.4713 60.9081 47.2826 60.5456 46.9849 60.4087C45.9935 59.9556 45.1686 59.3563 44.8135 58.2836C44.6082 57.664 44.5527 57.0204 45.3277 56.7448C46.0194 56.4988 46.2913 56.9834 46.5558 57.529C46.7592 57.947 47.0995 58.3002 47.3807 58.6813L47.6914 58.5573H47.6895ZM49.38 58.685C50.1346 58.3668 50.4805 57.8823 50.4398 57.1683C50.4028 56.521 50.0348 56.1289 49.38 55.9865V58.685Z" fill="url(#paint1_linear_201_626)"/>
<defs>
<linearGradient id="paint0_linear_201_626" x1="34.3733" y1="0.12207" x2="34.3733" y2="74.0283" gradientUnits="userSpaceOnUse">
<stop offset="0.666667" stop-color="#D42EBC"/>
<stop offset="1" stop-color="#D42EBC" stop-opacity="0"/>
</linearGradient>
<linearGradient id="paint1_linear_201_626" x1="48.4605" y1="47.9707" x2="48.4605" y2="61.746" gradientUnits="userSpaceOnUse">
<stop offset="0.666667" stop-color="#D42EBC"/>
<stop offset="1" stop-color="#D42EBC" stop-opacity="0"/>
</linearGradient>
</defs>
</svg>
