<svg width="96" height="96" viewBox="0 0 96 96" fill="none" xmlns="http://www.w3.org/2000/svg">
<path d="M22.4531 57.5723H73.3329C72.9435 59.7817 72.7528 61.9275 72.1726 63.9581C70.7102 69.0723 67.7776 73.2765 63.4224 76.3085C60.001 78.6887 57.4896 81.4982 57.2671 85.905H38.3719C38.1653 81.379 35.3757 78.649 31.9543 76.1098C25.8864 71.6075 22.7591 65.4164 22.4571 57.5723H22.4531ZM46.9512 62.2851C46.0929 63.3819 45.6359 64.1766 44.9842 64.7488C43.4663 66.084 42.7192 67.6735 43.204 69.6604C43.6848 71.6314 45.0359 72.7996 47.0029 73.2487C47.448 73.352 48.0083 73.2487 48.3381 73.4871C48.7712 73.801 49.3196 74.3772 49.2918 74.8064C49.256 75.3428 48.7951 76.0422 48.3142 76.2926C47.9407 76.4913 46.9592 76.2846 46.7685 75.9588C45.8227 74.3136 44.4637 74.9812 42.6914 75.0488C43.4067 76.3085 43.8954 77.3496 44.5471 78.2675C45.1948 79.1815 46.0095 79.9723 47.0387 81.1445H48.6838C49.5183 80.0954 50.0269 79.2649 50.7183 78.6371C52.1568 77.3297 52.8602 75.7998 52.4151 73.8845C51.9542 71.9016 50.6587 70.7015 48.6798 70.2485C48.1712 70.1333 47.5433 70.2088 47.1658 69.9346C46.7446 69.6286 46.3075 69.0127 46.3154 68.5398C46.3234 68.0709 46.7883 67.3993 47.2215 67.2086C47.6506 67.0218 48.6123 67.153 48.7871 67.4589C49.713 69.0961 51.1038 68.4961 53.1384 68.4881C51.5528 66.1953 50.2455 64.3038 48.8507 62.2891H46.9473L46.9512 62.2851Z" fill="url(#paint0_linear_223_585)"/>
<path d="M47.9831 33.7337C51.933 33.7337 55.8868 33.7019 59.8367 33.7377C67.3352 33.8053 71.9725 40.5964 69.3499 47.6378C67.4425 52.756 60.3811 54.5084 55.9107 50.9678C55.6007 50.7215 55.2868 50.4711 55.0325 50.1731C50.8163 45.1543 45.0226 45.2099 40.5363 50.0698C39.2806 51.4288 37.0871 52.3189 35.1956 52.613C31.2576 53.221 28.1024 51.4407 26.5805 48.4088C24.8678 45.0033 25.4241 40.048 27.8759 37.2266C29.8906 34.91 32.4656 33.7496 35.5333 33.7377C39.6819 33.7218 43.8305 33.7377 47.9831 33.7337ZM33.467 44.8165C33.5385 45.9808 33.5981 46.9345 33.6577 47.8763H36.6023C36.6857 46.8312 36.7652 45.8815 36.8486 44.8801C37.9374 44.8284 38.8832 44.7807 39.7733 44.737V41.7209C38.7084 41.6574 37.7586 41.6057 36.797 41.5461C36.7414 40.4493 36.6976 39.5513 36.65 38.6135H33.6577C33.5822 39.6904 33.5147 40.6361 33.4511 41.558C32.3305 41.6375 31.4324 41.7011 30.5542 41.7607V44.8125H33.471L33.467 44.8165ZM60.5163 42.3289C61.2434 41.26 62.0422 40.5845 61.9349 40.1235C61.7918 39.4996 60.9494 39.0387 60.405 38.5062C59.9083 39.0148 59.0221 39.5195 59.0181 40.0321C59.0142 40.6401 59.7692 41.256 60.5163 42.3289ZM59.6381 44.8761C58.4896 44.0933 57.8697 43.3462 57.2618 43.3542C56.7531 43.3621 55.8829 44.2482 55.867 44.7688C55.8511 45.2854 56.6697 46.2272 57.1704 46.2629C57.7823 46.3066 58.442 45.5953 59.6381 44.8761ZM65.9722 44.8721C64.8238 44.0972 64.1999 43.3581 63.5919 43.37C63.0833 43.378 62.2091 44.2681 62.2051 44.7728C62.1971 45.3013 63.0078 46.2351 63.5124 46.2709C64.1204 46.3146 64.7801 45.5953 65.9722 44.8721Z" fill="url(#paint1_linear_223_585)"/>
<path d="M84.7567 73.5622C85.3726 73.1489 86.1316 72.8549 86.5767 72.3065C88.0788 70.4706 89.9385 69.7395 91.9532 70.3753C93.9162 70.9952 95.2553 72.7635 95.2951 74.802C95.3348 76.8366 94.0751 78.6526 92.132 79.3559C90.0736 80.099 87.9715 79.5109 86.6442 77.4326C85.8137 76.1292 84.7408 76.5306 83.7076 76.4948C81.387 76.4193 81.0651 76.1571 81.0611 73.8563C81.0492 68.9964 81.0611 64.1365 81.0611 59.1614C79.9723 59.0978 79.0743 59.0501 78.0371 58.9905V55.9109C79.5471 55.9109 81.0452 55.8671 82.5394 55.9228C83.9143 55.9744 84.2361 56.9003 84.2322 58.1004C84.2163 62.3841 84.2242 66.6678 84.2282 70.9515C84.2282 71.6667 84.2282 72.382 84.2282 73.0973L84.7607 73.5622H84.7567ZM92.8115 74.9888C91.8022 74.198 91.1783 73.3596 90.7094 73.4351C90.0775 73.5423 89.2947 74.2735 89.104 74.8974C88.9967 75.2511 89.9265 76.32 90.4352 76.3518C91.0432 76.3915 91.6988 75.6723 92.8115 74.9888Z" fill="url(#paint2_linear_223_585)"/>
<path d="M17.644 55.9024V58.9582C16.6744 59.0258 15.7724 59.0854 14.5604 59.1688C14.5604 59.8563 14.5604 60.5517 14.5604 61.2431C14.5604 65.4593 14.5087 69.6794 14.5842 73.8955C14.616 75.7314 13.9802 76.6692 12.0649 76.4745C10.5548 76.3235 9.47397 76.693 8.44477 78.0679C6.79567 80.2694 3.55707 80.1581 1.6457 78.1633C-0.198114 76.244 -0.106718 73.2597 1.84836 71.4318C3.85908 69.5522 6.87117 69.7787 8.71101 71.8729C9.3031 72.5484 10.078 73.065 10.7734 73.6571L11.4012 73.224C11.4012 70.6132 11.4012 68.0025 11.4012 65.3917C11.4012 62.8883 11.4092 60.3848 11.4012 57.8774C11.4012 56.5938 11.9814 55.8984 13.3007 55.8984C14.6796 55.8984 16.0545 55.8984 17.648 55.8984L17.644 55.9024ZM4.98762 77.154C5.7625 76.1367 6.59698 75.5049 6.51751 75.032C6.41419 74.4042 5.6711 73.6213 5.04722 73.4425C4.68561 73.3392 3.6286 74.273 3.60078 74.7817C3.56502 75.3896 4.29221 76.0413 4.98762 77.154Z" fill="url(#paint3_linear_223_585)"/>
<path d="M81.1328 49.5652V46.4776H88.9611C88.9611 43.7874 89.0008 41.2482 88.9134 38.7129C88.9015 38.3474 88.3054 37.9539 87.92 37.6559C86.0801 36.2293 85.3807 34.2544 86.0523 32.2675C86.7159 30.3124 88.52 28.9932 90.5347 28.9932C92.5772 28.9932 94.3693 30.2846 95.0369 32.2357C95.7244 34.2425 95.0051 36.1777 93.2448 37.6678C92.7004 38.1288 92.2235 38.9792 92.1878 39.6746C92.0646 42.1741 92.0964 44.6855 92.1599 47.1889C92.1997 48.846 91.5639 49.6248 89.8433 49.5891C87.014 49.5295 84.1846 49.5732 81.1328 49.5732V49.5652ZM90.6022 35.983C91.3096 34.8862 92.0407 34.2425 92.0129 33.6345C91.9891 33.1259 90.94 32.1801 90.5824 32.2794C89.9585 32.4543 89.2154 33.2252 89.0962 33.857C89.0088 34.322 89.8353 34.9617 90.5983 35.983H90.6022Z" fill="url(#paint4_linear_223_585)"/>
<path d="M6.75662 46.3851H14.4339V49.5522C11.2708 49.5522 8.18319 49.6595 5.11547 49.4608C4.52735 49.421 3.60147 48.213 3.54981 47.4938C3.35907 44.8711 3.53789 42.2246 3.43457 39.59C3.40676 38.9462 2.98157 38.1396 2.48087 37.7223C0.577452 36.1448 -0.133848 34.2374 0.605268 32.1591C1.2967 30.2199 3.1127 28.9523 5.1552 28.988C7.13413 29.0238 8.84681 30.2557 9.51837 32.1313C10.2615 34.2095 9.55016 36.1448 7.66661 37.7064C7.16194 38.1237 6.74073 38.9184 6.70099 39.5622C6.5778 41.5331 6.6533 43.5121 6.65728 45.491C6.65728 45.6857 6.70099 45.8804 6.76059 46.3811L6.75662 46.3851ZM7.30897 33.7367C6.26388 32.9856 5.61616 32.175 5.15123 32.2704C4.52735 32.3975 3.76837 33.1525 3.60942 33.7764C3.51802 34.134 4.47569 35.1632 4.98036 35.1791C5.58834 35.199 6.22017 34.4599 7.30897 33.7367Z" fill="url(#paint5_linear_223_585)"/>
<path d="M22.2554 25.7615H19.3069C19.3069 24.0011 19.2235 22.2487 19.3347 20.5082C19.4142 19.2604 18.993 18.5571 17.8366 18.116C16.8551 17.7425 15.965 17.1385 14.9954 16.7331C13.6562 16.1768 12.7979 15.4218 12.9171 13.7846C12.9489 13.3197 12.3767 12.6958 11.9237 12.3382C10.0759 10.8599 9.38447 8.96844 10.056 6.94581C10.7117 4.97483 12.484 3.67144 14.5265 3.65158C16.6127 3.63171 18.4843 5.03046 19.1082 7.06899C19.7162 9.05587 18.9811 10.9712 17.0697 12.3978C16.724 12.6561 16.4061 12.9501 15.7186 13.5263C17.5465 14.4403 19.0764 15.2748 20.6659 15.9821C21.9614 16.5623 22.5892 17.3729 22.5018 18.871C22.3786 20.9731 22.4581 23.0911 22.4382 25.2012C22.4382 25.3204 22.3627 25.4436 22.2514 25.7615H22.2554ZM14.6099 6.13516C13.839 7.16834 13.0165 7.80811 13.0999 8.27701C13.2152 8.90486 13.9582 9.67974 14.5821 9.85061C14.9437 9.94996 15.9888 9.00421 16.0166 8.49557C16.0484 7.88759 15.3133 7.23987 14.6099 6.13516Z" fill="url(#paint6_linear_223_585)"/>
<path d="M77.8119 25.7664H74.7521C74.7521 23.0523 74.6607 20.37 74.8236 17.6997C74.8594 17.1394 75.7416 16.4956 76.3774 16.13C77.943 15.232 79.5882 14.469 81.5194 13.4915C80.6412 12.8159 80.1286 12.4464 79.6478 12.045C77.5019 10.2529 77.2874 7.22091 79.155 5.19827C81.0783 3.11603 84.2692 3.1359 86.1607 5.24198C88.0045 7.29243 87.7979 10.3681 85.5488 12.049C84.6229 12.7404 84.1818 13.3762 84.1301 14.5723C84.1023 15.22 83.3274 16.2095 82.7036 16.3883C78.5033 17.5924 77.041 20.2985 77.8715 24.455C77.943 24.8206 77.8397 25.222 77.8079 25.7624L77.8119 25.7664ZM84.8971 8.28189C83.7765 7.61033 83.1089 6.89506 82.5009 6.94274C81.9923 6.98248 81.0823 8.05937 81.1896 8.417C81.3763 9.03691 82.1751 9.76013 82.8069 9.8555C83.2798 9.92702 83.8917 9.08062 84.8971 8.28189Z" fill="url(#paint7_linear_223_585)"/>
<path d="M40.0059 89.2461H55.5352C55.2491 93.7523 52.6781 95.5524 46.7771 95.4809C42.716 95.4292 40.1688 93.1245 40.0059 89.2461Z" fill="url(#paint8_linear_223_585)"/>
<path d="M49.3892 16.2331H46.2182C46.2182 14.4648 46.3096 12.76 46.1745 11.0752C46.1228 10.4235 45.7135 9.6327 45.2088 9.21546C43.3809 7.69749 42.6458 5.84175 43.2856 3.83104C43.9094 1.87198 45.6897 0.53283 47.7242 0.493093C49.7628 0.453355 51.5788 1.72495 52.2702 3.67209C53.0093 5.75035 52.298 7.64583 50.3866 9.23135C49.8859 9.64859 49.4925 10.4473 49.4369 11.107C49.3018 12.7362 49.3932 14.3853 49.3932 16.2331H49.3892ZM47.8156 2.98066C47.0924 4.06151 46.3493 4.68936 46.3612 5.29735C46.3732 5.80599 47.2712 6.29476 47.7759 6.79147C48.3084 6.25104 49.1389 5.77817 49.27 5.15429C49.3694 4.68936 48.5627 4.0337 47.8156 2.97668V2.98066Z" fill="url(#paint9_linear_223_585)"/>
<path d="M52.4361 20.9097L49.6465 20.6038V17.4844L52.9288 17.846C52.7539 18.9268 52.6149 19.8011 52.4361 20.9097Z" fill="url(#paint10_linear_223_585)"/>
<path d="M18.1175 52.3979L17.7559 49.0997L20.7997 48.8652L21.2567 51.8336C20.2474 52.0164 19.3136 52.1833 18.1214 52.3979H18.1175Z" fill="url(#paint11_linear_223_585)"/>
<path d="M74.7427 49.1348C75.8792 49.2142 76.7653 49.2778 77.8819 49.3533L77.421 52.6992L74.3691 52.2025C74.4884 51.217 74.5996 50.2951 74.7427 49.1348Z" fill="url(#paint12_linear_223_585)"/>
<path d="M65.33 23.0005C64.6425 23.9502 64.114 24.6774 63.4742 25.5556C62.6636 25.039 61.9165 24.5621 60.9668 23.9581C61.4397 23.0998 61.8887 22.2812 62.457 21.248C63.4265 21.8362 64.2769 22.3567 65.3339 23.0005H65.33Z" fill="url(#paint13_linear_223_585)"/>
<path d="M56.2927 18.6045C57.3895 18.9979 58.3432 19.3357 59.436 19.7251C58.975 20.8059 58.6054 21.6722 58.2041 22.6219C57.1908 22.2564 56.3523 21.9504 55.3867 21.6007C55.6967 20.5755 55.9748 19.6655 56.2967 18.6045H56.2927Z" fill="url(#paint14_linear_223_585)"/>
<path d="M40.4269 21.5852L37.6254 22.4793L36.4492 19.6817L39.5726 18.5254C39.8746 19.6182 40.1289 20.5242 40.423 21.5852H40.4269Z" fill="url(#paint15_linear_223_585)"/>
<path d="M32.3112 25.4318C31.6913 24.5377 31.1787 23.7986 30.5469 22.8847L33.3245 21.1084C33.8769 22.07 34.3497 22.8886 34.8981 23.8423L32.3152 25.4318H32.3112Z" fill="url(#paint16_linear_223_585)"/>
<path d="M72.748 37.2818C73.7176 36.8805 74.5482 36.5387 75.629 36.0977L76.7655 39.1654C75.776 39.4873 74.874 39.7813 73.7534 40.1469L72.748 37.2818Z" fill="url(#paint17_linear_223_585)"/>
<path d="M77.4765 42.583C77.6235 43.7672 77.7427 44.7249 77.8818 45.8534H74.7465C74.6313 44.9951 74.516 44.1129 74.377 43.0599C75.4379 42.8969 76.332 42.7579 77.4765 42.583Z" fill="url(#paint18_linear_223_585)"/>
<path d="M27.5958 29.2754C26.9202 28.6436 26.2606 28.0276 25.4062 27.2289C26.2725 26.5176 27.0236 25.8977 27.9534 25.1348C28.5097 25.7427 29.1455 26.4382 30.0118 27.3799L27.5958 29.2754Z" fill="url(#paint19_linear_223_585)"/>
<path d="M72.4185 30.168C73.0384 31.1495 73.547 31.9562 74.2027 32.9973L71.4767 34.5391C70.9323 33.6847 70.4236 32.89 69.8594 32.0038L72.4185 30.168Z" fill="url(#paint20_linear_223_585)"/>
<path d="M18.9277 39.0428L20.0245 35.8877L22.9452 37.0719C22.6034 38.0097 22.3014 38.8402 21.9359 39.8376L18.9277 39.0389V39.0428Z" fill="url(#paint21_linear_223_585)"/>
<path d="M68.0048 25.0986C68.8075 25.9808 69.487 26.7279 70.246 27.5624C69.4949 28.2379 68.8273 28.8379 67.8776 29.6963C67.3412 28.8419 66.8325 28.0352 66.2285 27.0776L68.0048 25.0986Z" fill="url(#paint22_linear_223_585)"/>
<path d="M24.2927 34.3095C23.7602 34.0393 23.4105 33.8764 23.0767 33.6896C22.6277 33.4353 22.1945 33.1611 21.5508 32.7717C22.127 31.8656 22.6674 31.0272 23.3191 30.002C24.1973 30.6179 24.9603 31.1543 25.8583 31.7822C25.3219 32.6445 24.8609 33.3916 24.2927 34.3095Z" fill="url(#paint23_linear_223_585)"/>
<path d="M17.7715 45.3762L18.1887 42.376C19.2457 42.5468 20.1677 42.6978 21.0697 42.8449C21.1213 46.0239 20.9147 46.1828 17.7715 45.3762Z" fill="url(#paint24_linear_223_585)"/>
<path d="M43.4039 20.8905C43.245 19.7898 43.1178 18.9116 42.9668 17.8586C44.0516 17.6996 44.9894 17.5645 46.1974 17.3896L46.3604 20.5567L43.4039 20.8865V20.8905Z" fill="url(#paint25_linear_223_585)"/>
<defs>
<linearGradient id="paint0_linear_223_585" x1="47.893" y1="57.5723" x2="47.893" y2="85.905" gradientUnits="userSpaceOnUse">
<stop offset="0.348958" stop-color="#D42EBC"/>
<stop offset="1" stop-color="#D42EBC" stop-opacity="0"/>
</linearGradient>
<linearGradient id="paint1_linear_223_585" x1="47.8393" y1="33.7207" x2="47.8393" y2="52.8238" gradientUnits="userSpaceOnUse">
<stop offset="0.348958" stop-color="#D42EBC"/>
<stop offset="1" stop-color="#D42EBC" stop-opacity="0"/>
</linearGradient>
<linearGradient id="paint2_linear_223_585" x1="86.6665" y1="55.8945" x2="86.6665" y2="79.6637" gradientUnits="userSpaceOnUse">
<stop offset="0.348958" stop-color="#D42EBC"/>
<stop offset="1" stop-color="#D42EBC" stop-opacity="0"/>
</linearGradient>
<linearGradient id="paint3_linear_223_585" x1="8.98414" y1="55.8984" x2="8.98414" y2="79.6892" gradientUnits="userSpaceOnUse">
<stop offset="0.348958" stop-color="#D42EBC"/>
<stop offset="1" stop-color="#D42EBC" stop-opacity="0"/>
</linearGradient>
<linearGradient id="paint4_linear_223_585" x1="88.2137" y1="28.9932" x2="88.2137" y2="49.5902" gradientUnits="userSpaceOnUse">
<stop offset="0.348958" stop-color="#D42EBC"/>
<stop offset="1" stop-color="#D42EBC" stop-opacity="0"/>
</linearGradient>
<linearGradient id="paint5_linear_223_585" x1="7.37612" y1="28.9873" x2="7.37612" y2="49.5811" gradientUnits="userSpaceOnUse">
<stop offset="0.348958" stop-color="#D42EBC"/>
<stop offset="1" stop-color="#D42EBC" stop-opacity="0"/>
</linearGradient>
<linearGradient id="paint6_linear_223_585" x1="16.1573" y1="3.65137" x2="16.1573" y2="25.7615" gradientUnits="userSpaceOnUse">
<stop offset="0.348958" stop-color="#D42EBC"/>
<stop offset="1" stop-color="#D42EBC" stop-opacity="0"/>
</linearGradient>
<linearGradient id="paint7_linear_223_585" x1="81.0658" y1="3.64941" x2="81.0658" y2="25.7664" gradientUnits="userSpaceOnUse">
<stop offset="0.348958" stop-color="#D42EBC"/>
<stop offset="1" stop-color="#D42EBC" stop-opacity="0"/>
</linearGradient>
<linearGradient id="paint8_linear_223_585" x1="47.7706" y1="89.2461" x2="47.7706" y2="95.4829" gradientUnits="userSpaceOnUse">
<stop offset="0.348958" stop-color="#D42EBC"/>
<stop offset="1" stop-color="#D42EBC" stop-opacity="0"/>
</linearGradient>
<linearGradient id="paint9_linear_223_585" x1="47.8078" y1="0.492187" x2="47.8078" y2="16.2331" gradientUnits="userSpaceOnUse">
<stop offset="0.348958" stop-color="#D42EBC"/>
<stop offset="1" stop-color="#D42EBC" stop-opacity="0"/>
</linearGradient>
<linearGradient id="paint10_linear_223_585" x1="51.2876" y1="17.4844" x2="51.2876" y2="20.9097" gradientUnits="userSpaceOnUse">
<stop offset="0.348958" stop-color="#D42EBC"/>
<stop offset="1" stop-color="#D42EBC" stop-opacity="0"/>
</linearGradient>
<linearGradient id="paint11_linear_223_585" x1="19.5063" y1="48.8652" x2="19.5063" y2="52.3979" gradientUnits="userSpaceOnUse">
<stop offset="0.348958" stop-color="#D42EBC"/>
<stop offset="1" stop-color="#D42EBC" stop-opacity="0"/>
</linearGradient>
<linearGradient id="paint12_linear_223_585" x1="76.1255" y1="49.1348" x2="76.1255" y2="52.6992" gradientUnits="userSpaceOnUse">
<stop offset="0.348958" stop-color="#D42EBC"/>
<stop offset="1" stop-color="#D42EBC" stop-opacity="0"/>
</linearGradient>
<linearGradient id="paint13_linear_223_585" x1="63.1504" y1="21.248" x2="63.1504" y2="25.5556" gradientUnits="userSpaceOnUse">
<stop offset="0.348958" stop-color="#D42EBC"/>
<stop offset="1" stop-color="#D42EBC" stop-opacity="0"/>
</linearGradient>
<linearGradient id="paint14_linear_223_585" x1="57.4113" y1="18.6045" x2="57.4113" y2="22.6219" gradientUnits="userSpaceOnUse">
<stop offset="0.348958" stop-color="#D42EBC"/>
<stop offset="1" stop-color="#D42EBC" stop-opacity="0"/>
</linearGradient>
<linearGradient id="paint15_linear_223_585" x1="38.4381" y1="18.5254" x2="38.4381" y2="22.4793" gradientUnits="userSpaceOnUse">
<stop offset="0.348958" stop-color="#D42EBC"/>
<stop offset="1" stop-color="#D42EBC" stop-opacity="0"/>
</linearGradient>
<linearGradient id="paint16_linear_223_585" x1="32.7225" y1="21.1084" x2="32.7225" y2="25.4318" gradientUnits="userSpaceOnUse">
<stop offset="0.348958" stop-color="#D42EBC"/>
<stop offset="1" stop-color="#D42EBC" stop-opacity="0"/>
</linearGradient>
<linearGradient id="paint17_linear_223_585" x1="74.7568" y1="36.0977" x2="74.7568" y2="40.1469" gradientUnits="userSpaceOnUse">
<stop offset="0.348958" stop-color="#D42EBC"/>
<stop offset="1" stop-color="#D42EBC" stop-opacity="0"/>
</linearGradient>
<linearGradient id="paint18_linear_223_585" x1="76.1294" y1="42.583" x2="76.1294" y2="45.8534" gradientUnits="userSpaceOnUse">
<stop offset="0.348958" stop-color="#D42EBC"/>
<stop offset="1" stop-color="#D42EBC" stop-opacity="0"/>
</linearGradient>
<linearGradient id="paint19_linear_223_585" x1="27.709" y1="25.1348" x2="27.709" y2="29.2754" gradientUnits="userSpaceOnUse">
<stop offset="0.348958" stop-color="#D42EBC"/>
<stop offset="1" stop-color="#D42EBC" stop-opacity="0"/>
</linearGradient>
<linearGradient id="paint20_linear_223_585" x1="72.031" y1="30.168" x2="72.031" y2="34.5391" gradientUnits="userSpaceOnUse">
<stop offset="0.348958" stop-color="#D42EBC"/>
<stop offset="1" stop-color="#D42EBC" stop-opacity="0"/>
</linearGradient>
<linearGradient id="paint21_linear_223_585" x1="20.9365" y1="35.8877" x2="20.9365" y2="39.8376" gradientUnits="userSpaceOnUse">
<stop offset="0.348958" stop-color="#D42EBC"/>
<stop offset="1" stop-color="#D42EBC" stop-opacity="0"/>
</linearGradient>
<linearGradient id="paint22_linear_223_585" x1="68.2372" y1="25.0986" x2="68.2372" y2="29.6963" gradientUnits="userSpaceOnUse">
<stop offset="0.348958" stop-color="#D42EBC"/>
<stop offset="1" stop-color="#D42EBC" stop-opacity="0"/>
</linearGradient>
<linearGradient id="paint23_linear_223_585" x1="23.7045" y1="30.002" x2="23.7045" y2="34.3095" gradientUnits="userSpaceOnUse">
<stop offset="0.348958" stop-color="#D42EBC"/>
<stop offset="1" stop-color="#D42EBC" stop-opacity="0"/>
</linearGradient>
<linearGradient id="paint24_linear_223_585" x1="19.4237" y1="42.376" x2="19.4237" y2="45.7868" gradientUnits="userSpaceOnUse">
<stop offset="0.348958" stop-color="#D42EBC"/>
<stop offset="1" stop-color="#D42EBC" stop-opacity="0"/>
</linearGradient>
<linearGradient id="paint25_linear_223_585" x1="44.6636" y1="17.3896" x2="44.6636" y2="20.8905" gradientUnits="userSpaceOnUse">
<stop offset="0.348958" stop-color="#D42EBC"/>
<stop offset="1" stop-color="#D42EBC" stop-opacity="0"/>
</linearGradient>
</defs>
</svg>
