<svg width="80" height="66" viewBox="0 0 80 66" fill="none" xmlns="http://www.w3.org/2000/svg">
<path d="M79.3313 5.67268C79.2215 8.56933 78.6669 11.4126 78.2905 14.2742C77.4037 21.0077 76.3173 27.7107 75.1653 34.403C73.9722 41.3437 72.767 48.2813 71.5815 55.2235C71.2402 57.2227 70.9583 59.2325 70.297 61.1616C68.9073 65.2087 66.2453 66.4551 62.279 64.9024C60.1533 64.0704 58.3721 62.6564 56.5009 61.4023C51.279 57.9038 46.083 54.3656 40.8718 50.8504C39.2155 49.7319 37.5272 48.6683 36.0842 47.2528C34.4416 45.6407 34.3913 43.8822 35.88 42.0492C37.7877 39.6995 40.1175 37.7568 42.3072 35.6829C48.0319 30.2584 53.7444 24.8201 59.3092 19.2295C60.1168 18.4173 60.1838 17.7088 59.5393 17.0551C59.009 16.5157 58.4086 16.4578 57.6056 16.9698C55.9813 18.0059 54.3768 19.0725 52.7708 20.1361C44.506 25.6079 36.1619 30.9624 28.0403 36.6505C23.5483 39.7955 18.6875 40.245 13.5449 38.6482C10.2292 37.6196 6.91503 36.5804 3.60087 35.5489C3.06756 35.3828 2.54186 35.1969 2.05731 34.9165C0.512227 34.0266 0.253189 32.2134 1.48743 30.9227C2.02531 30.3605 2.70795 30.0268 3.40126 29.7083C14.3707 24.683 25.5017 20.0279 36.5794 15.2494C46.0053 11.1826 55.4526 7.16748 65.0491 3.51657C68.0784 2.36309 71.0786 1.10447 74.2953 0.531543C77.5119 -0.0413875 79.3374 1.49912 79.3313 4.76147C79.3313 5.06622 79.3313 5.36945 79.3313 5.6742V5.67268Z" fill="#ECC7E7"/>
</svg>
