<svg id="svg" version="1.1" xmlns="http://www.w3.org/2000/svg" xmlns:xlink="http://www.w3.org/1999/xlink" width="400" height="400" viewBox="0, 0, 400,400"><g id="svgg"><path id="path0" d="M184.615 9.510 C 102.290 15.379,42.525 89.898,54.384 171.891 C 54.848 175.096,55.307 177.726,55.429 177.874 C 55.466 177.920,60.079 174.820,65.678 170.985 C 76.822 163.354,78.843 162.086,83.929 159.539 C 113.847 144.555,155.238 145.342,183.982 161.440 C 187.523 163.423,187.957 163.712,206.593 176.498 C 227.414 190.781,231.340 192.939,242.568 196.270 C 271.867 204.960,302.741 200.694,326.663 184.649 C 334.575 179.342,333.700 180.204,334.277 177.145 C 337.453 160.313,337.367 140.701,334.045 123.887 C 320.152 53.577,255.937 4.425,184.615 9.510 " stroke="none" fill="#f4bc04" fill-rule="evenodd"></path><path id="path1" d="M126.547 167.985 C 107.952 169.036,89.687 174.365,75.605 182.849 C 70.635 185.844,51.424 199.166,50.343 200.368 C 45.501 205.754,49.355 214.112,56.680 214.112 C 59.806 214.112,59.149 214.470,71.139 206.243 C 85.028 196.713,86.787 195.636,92.805 192.973 C 119.235 181.278,153.760 181.949,178.880 194.645 C 183.378 196.918,184.504 197.650,202.873 210.238 C 220.214 222.122,222.480 223.569,227.762 226.138 C 258.176 240.927,299.545 239.511,327.473 222.724 C 331.145 220.517,343.338 212.120,344.291 211.142 C 349.050 206.257,345.844 197.679,338.991 196.963 C 336.027 196.653,335.428 196.931,327.820 202.146 C 302.977 219.173,276.358 223.785,248.837 215.831 C 236.964 212.399,232.368 209.900,211.036 195.278 C 193.938 183.557,191.521 182.019,185.683 179.148 C 168.485 170.688,147.800 166.783,126.547 167.985 M140.659 202.745 C 137.278 203.483,134.683 206.050,133.680 209.649 C 132.916 212.391,133.340 380.349,134.116 382.442 C 137.440 391.409,148.998 390.382,151.191 380.926 C 151.776 378.403,151.591 210.988,151.001 209.025 C 149.607 204.386,145.255 201.743,140.659 202.745 M105.430 204.377 C 101.896 205.328,99.333 208.967,98.775 213.827 C 98.308 217.895,98.588 297.338,99.075 298.963 C 101.648 307.540,111.555 309.353,115.314 301.933 C 116.806 298.989,116.703 301.940,116.775 260.216 C 116.847 218.843,116.742 212.701,115.919 210.307 C 114.281 205.540,110.034 203.139,105.430 204.377 M175.346 216.775 C 172.237 217.301,169.879 219.653,168.731 223.373 C 168.158 225.232,168.060 285.876,168.628 287.912 C 171.157 296.993,183.196 297.130,185.683 288.106 C 186.100 286.593,186.119 285.181,186.119 255.639 L 186.119 224.754 185.581 223.263 C 184.261 219.607,181.862 217.417,178.493 216.794 C 176.991 216.516,176.876 216.516,175.346 216.775 M69.412 223.066 C 67.046 223.974,65.090 226.517,64.286 229.728 C 63.723 231.978,63.823 292.072,64.394 293.920 C 65.810 298.511,68.255 300.405,72.764 300.405 C 76.785 300.405,79.109 299.001,80.751 295.582 C 81.922 293.142,81.918 293.279,81.847 260.729 L 81.781 230.307 81.256 228.918 C 79.292 223.730,74.216 221.222,69.412 223.066 M209.254 237.687 C 207.632 238.201,206.496 238.907,205.395 240.084 C 202.953 242.695,202.837 243.376,202.932 254.598 L 203.008 263.621 203.720 265.125 C 206.960 271.960,216.742 271.960,219.986 265.124 L 220.590 263.852 220.658 254.402 C 220.733 243.811,220.684 243.368,219.158 241.120 C 217.090 238.071,212.768 236.573,209.254 237.687 M313.412 246.130 C 310.814 246.986,308.562 249.277,307.787 251.854 C 307.305 253.456,307.305 286.972,307.787 288.574 C 310.117 296.317,320.906 296.890,324.427 289.457 L 325.159 287.912 325.159 270.214 L 325.159 252.516 324.427 250.971 C 322.395 246.681,317.828 244.674,313.412 246.130 M244.777 250.789 C 242.183 251.330,239.738 253.309,238.561 255.820 L 237.941 257.143 237.941 302.256 L 237.941 347.368 238.563 348.695 C 242.164 356.380,253.871 354.885,255.409 346.545 C 255.885 343.966,255.601 257.801,255.112 256.564 C 253.445 252.344,249.063 249.895,244.777 250.789 M278.329 254.400 C 276.092 255.183,274.090 257.033,273.027 259.300 L 272.412 260.613 272.412 299.132 L 272.412 337.652 273.032 338.975 C 276.337 346.026,286.069 346.028,289.372 338.979 L 289.994 337.652 290.062 299.711 C 290.139 256.961,290.264 260.081,288.380 257.521 C 286.187 254.543,281.806 253.183,278.329 254.400 " stroke="none" fill="#54cccc" fill-rule="evenodd"></path><path id="path2" d="" stroke="none" fill="#f8c434" fill-rule="evenodd"></path><path id="path3" d="" stroke="none" fill="#f8c434" fill-rule="evenodd"></path><path id="path4" d="" stroke="none" fill="#f8c434" fill-rule="evenodd"></path></g></svg>