<svg xmlns="http://www.w3.org/2000/svg" xmlns:xlink="http://www.w3.org/1999/xlink" viewBox="0 0 507.81 507.81"><defs><style>.cls-1{fill:#fff;}.cls-2{fill:url(#linear-gradient);}.cls-3{fill:#01bfff;}.cls-4{fill:url(#linear-gradient-2);}.cls-5{fill:url(#linear-gradient-3);}</style><linearGradient id="linear-gradient" x1="5.16" y1="218.08" x2="507.89" y2="290.49" gradientUnits="userSpaceOnUse"><stop offset="0" stop-color="#00bb2e"/><stop offset="0.53" stop-color="#0091de"/><stop offset="0.67" stop-color="#0097d9"/><stop offset="0.86" stop-color="#00a7cb"/><stop offset="1" stop-color="#00b8bc"/></linearGradient><linearGradient id="linear-gradient-2" x1="51.42" y1="51.42" x2="466.49" y2="466.49" gradientUnits="userSpaceOnUse"><stop offset="0.02" stop-color="#00f856"/><stop offset="0.05" stop-color="#00eb67"/><stop offset="0.11" stop-color="#00d08b"/><stop offset="0.18" stop-color="#00b9a9"/><stop offset="0.25" stop-color="#00a7c1"/><stop offset="0.33" stop-color="#009bd1"/><stop offset="0.42" stop-color="#0093db"/><stop offset="0.53" stop-color="#0091de"/><stop offset="0.6" stop-color="#0097e2"/><stop offset="0.7" stop-color="#00a7ee"/><stop offset="0.8" stop-color="#01bfff"/><stop offset="1" stop-color="#00d0ff"/></linearGradient><linearGradient id="linear-gradient-3" x1="53.82" y1="42.61" x2="499.64" y2="513.41" gradientUnits="userSpaceOnUse"><stop offset="0.04" stop-color="#00d18a"/><stop offset="0.1" stop-color="#00c997"/><stop offset="0.36" stop-color="#00a6d1"/><stop offset="0.49" stop-color="#0098e8"/><stop offset="0.59" stop-color="#00a0ed"/><stop offset="0.74" stop-color="#01b5f9"/><stop offset="0.8" stop-color="#01bfff"/><stop offset="1" stop-color="#00b5bf"/></linearGradient></defs><g id="Logos"><circle class="cls-1" cx="253.91" cy="253.91" r="248.07"/><path class="cls-2" d="M253.91,507.81A253.9,253.9,0,0,1,74.37,74.37,253.91,253.91,0,0,1,433.45,433.45,252.27,252.27,0,0,1,253.91,507.81Zm0-502C117.12,5.83,5.83,117.12,5.83,253.91S117.12,502,253.91,502,502,390.7,502,253.91,390.7,5.83,253.91,5.83Z"/><path class="cls-3" d="M155.46,280.79c12,7.94,22.89,15.18,33.74,22.76,6.17-5,12.33-9.91,18.58-14.75s12.35-9.53,18.57-14.23l.88-.67,1-23.56-68.62-6.93Zm20.1-7.4a58.63,58.63,0,0,1,18.34-9.59c3.32-1.08,6.83-2.82,10.48-2.07a15.72,15.72,0,0,1,10,5.8.75.75,0,0,1-.13,1l-.08.05a29.59,29.59,0,0,1-9.65,4.22c-2.92.87-6-.35-9.14-.28a112.56,112.56,0,0,0-19.31,1.82.56.56,0,0,1-.69-.41A.6.6,0,0,1,175.56,273.39Z"/><path class="cls-3" d="M430.6,359.3c-3.91-9.68-9.32-17.35-16.1-22.77-7.1-5.85-15.82-9.6-25-13.58l-.7-.3c-4.33-1.87-9.36-4.08-14.3-6.7-3.52-2-6.79-3.92-10.1-5.87l-3.34-2-13.22-7.94-6.6-4.1-1.15-.74c-1.86-1.2-3.63-2.33-5.7-3.95l-.76-.59a1.57,1.57,0,0,1-.5-.72l-.35-1.09a146.19,146.19,0,0,0-8.52-20.82c-.16-.31-.32-.58-.47-.89-.42.08-.83.18-1.25.25a36.24,36.24,0,0,0-4,1c-.75.22-1.5.45-2.25.64a32.32,32.32,0,0,0-4.1,1c-.71.21-1.42.42-2.14.61a49.94,49.94,0,0,0-5.59,2.35,31.8,31.8,0,0,0-9.49,7.44,50.71,50.71,0,0,0-3.49,4.42,51,51,0,0,1-4.94,6,14.21,14.21,0,0,1-7.39,3.75,7,7,0,0,1-1.85.2l-1.47,0h-.42l-3.25-.05a20.62,20.62,0,0,0-10.45,4.24,43.64,43.64,0,0,0-8.56,8.86c-.66.73-1.27,1.45-1.88,2.16-.52,4.87-.05,8.59,1.48,11.27,1.83,3.38,5.76,5.83,9.63,8.07l1.13.64c1.88,1.09,3.82,2.21,5.78,3.58a36.64,36.64,0,0,1,6.52,5.79q3.54,3.84,7,7.65c4.68,5.15,9.1,10,13.8,14.85a269.15,269.15,0,0,0,22,20.62c6.49,5.3,15.14,11.84,24.5,15.34a44.39,44.39,0,0,0,13.58,2.49q2.37.12,4.77.12c3.09,0,6.41-.15,9.86-.45a135.61,135.61,0,0,0,29-5.8c11.06-3.62,19.31-7.91,25.21-13.11,3.55-3.2,5.9-6.72,6.78-10.16a14.85,14.85,0,0,0,.27-5.65A27.45,27.45,0,0,0,430.6,359.3Zm-47.45,24.8a53.32,53.32,0,0,0-9.36-1.23c-1.53-.09-3.05.44-4.45,0a14.34,14.34,0,0,1-4.62-2.22l0,0a.37.37,0,0,1-.05-.51,7.59,7.59,0,0,1,5-2.63c1.79-.3,3.46.6,5.06,1.19a28.55,28.55,0,0,1,8.74,5,.29.29,0,0,1,.09.29A.27.27,0,0,1,383.15,384.1ZM422.58,360a14.31,14.31,0,0,1-2.75,4.33c-.94,1.14-2.51,1.49-3.77,2.37a55.9,55.9,0,0,0-7.3,6,.26.26,0,0,1-.39,0,.28.28,0,0,1-.07-.29,28.54,28.54,0,0,1,4.79-8.85c1.05-1.34,2-3,3.67-3.68a7.64,7.64,0,0,1,5.61-.37.35.35,0,0,1,.23.45Z"/><path class="cls-4" d="M253.91,20.51c-128.7,0-233.4,104.7-233.4,233.4S125.21,487.3,253.91,487.3,487.3,382.6,487.3,253.91,382.6,20.51,253.91,20.51Zm-20.15,256a1.52,1.52,0,0,1-.57,1.15l-2.52,2c-6.19,4.91-12.38,9.82-18.67,14.61-6.39,5-12.88,9.8-19.37,14.64l-2.4,1.79a1.52,1.52,0,0,1-.9.3,1.5,1.5,0,0,1-.9-.3l-1-.71c-12.31-9.19-24-18.47-34.9-27.11a1.51,1.51,0,0,1-.56-1.3l3.45-41.48a1.49,1.49,0,0,1,1.49-1.37l75.94,6.08a1.51,1.51,0,0,1,1.38,1.52ZM432.21,388.76C423,396.82,412,401.12,403.36,404a145.61,145.61,0,0,1-31.17,6.24c-3.8.34-7.31.5-10.74.5-1.77,0-3.55-.05-5.33-.14a54.42,54.42,0,0,1-16.51-3.09c-10.65-4-19.47-10.55-27.41-17a277.9,277.9,0,0,1-22.82-21.4c-4.82-5-9.53-10.14-14.09-15.15q-3.44-3.78-6.83-7.47a27.25,27.25,0,0,0-4.89-4.4c-1.59-1.11-3.35-2.12-5.22-3.2l-1-.59c-3.9-2.26-9.81-5.68-13.35-11.71-3.73-6.37-3.51-13.43-2.66-18.23a60.19,60.19,0,0,1,5.1-16.05,19.8,19.8,0,0,1,3-4.1,22,22,0,0,1,3.66-3,10.2,10.2,0,0,0,2.05-1.76,12.91,12.91,0,0,0,1.38-2.35,18.73,18.73,0,0,0,1.1-2.91,28.91,28.91,0,0,1,1.68-4.38,23.34,23.34,0,0,1,5.78-7,54.89,54.89,0,0,1,14.13-8.25,98.82,98.82,0,0,1,15.09-4.81,89.21,89.21,0,0,1,15.59-2.3c1.06-.05,2.11-.09,3.17-.09h.22c-.38-.42-.76-.83-1.14-1.22-.85-.9-1.83-1.82-2.84-2.78L308,246.14c-1.66-1.59-3.08-3-4.33-4.46a51.64,51.64,0,0,1-4-5l-1-1.43c-.77-1.16-1.42-2.13-2.24-3.2a55.5,55.5,0,0,0-16-14c-6.52-4-13.68-6.4-20.46-8.57a213.32,213.32,0,0,0-22-6,112.7,112.7,0,0,0-23.41-2.67,76.22,76.22,0,0,0-20.5,2.67c-12.52,3.37-25.12,10.46-38.54,21.68a208.82,208.82,0,0,0-16.66,15.62c-1.48,1.53-3,3.06-4.46,4.57-3.83,3.9-7.78,7.94-11.42,12.09-9.14,10.23-17.54,22.16-26.43,37.53-7.69,13.31-15,27.19-22.13,40.62l-.18.34a1.5,1.5,0,0,1-1.33.8c-15.09-.94-24.59-17.5-16.81-29.76L226.87,37.69c5.37-8.47,18.8-8.47,24.17,0l49.39,77.85a36.53,36.53,0,0,1,0,39.59l-30,47.26a83.45,83.45,0,0,1,15.12,7,65.35,65.35,0,0,1,18.9,16.55c.92,1.18,1.87,2.6,2.67,3.82l.78,1.16a44.6,44.6,0,0,0,3.26,4.08c1.2,1.33,2.48,2.63,3.81,3.92l1.13,1.07c.69.64,1.4,1.33,2.12,2l18-28.43c5.86-9.23,20.5-9.23,26.36,0l61.52,97a15.29,15.29,0,0,1-2.1,19.18c7.47,6.36,13.65,15.22,17.88,25.77A36.88,36.88,0,0,1,442.5,364a24.7,24.7,0,0,1-.48,9.59C440.61,379.06,437.31,384.17,432.21,388.76Z"/><path class="cls-3" d="M271.92,289.11l3.6.05a2.26,2.26,0,0,1,.43,0l1.3,0a2.87,2.87,0,0,0,.76-.08,8.45,8.45,0,0,0,4.52-2.28,43.29,43.29,0,0,0,4.11-5.08,62.49,62.49,0,0,1,4-5A37.23,37.23,0,0,1,301.8,268a55,55,0,0,1,6.47-2.7c.92-.23,1.68-.47,2.45-.71a28.13,28.13,0,0,1,4.41-1.08c2-.21,4.15-.31,6.36-.35a78,78,0,0,0-5.16-8h-.08a47.51,47.51,0,0,0-6,.43,92,92,0,0,0-14.61,3.26c-11.74,3.67-19.92,7.91-25.75,13.31a16.23,16.23,0,0,0-3.65,5,19,19,0,0,0-.88,2.91,31.41,31.41,0,0,1-1.33,4.31,21.24,21.24,0,0,1-2.24,4.27,18.83,18.83,0,0,1-3.59,3.6,9.71,9.71,0,0,0-3.56,4.21c-.26.59-.47,1.25-.69,1.89a42.84,42.84,0,0,1,4.31-3.79A26.32,26.32,0,0,1,271.92,289.11Z"/><path class="cls-5" d="M155.46,280.79c12,7.94,22.89,15.18,33.74,22.76,6.17-5,12.33-9.91,18.58-14.75s12.35-9.53,18.57-14.23l.88-.67,1-23.56-68.62-6.93Zm20.1-7.4a58.63,58.63,0,0,1,18.34-9.59c3.32-1.08,6.83-2.82,10.48-2.07a15.72,15.72,0,0,1,10,5.8.75.75,0,0,1-.13,1l-.08.05a29.59,29.59,0,0,1-9.65,4.22c-2.92.87-6-.35-9.14-.28a112.56,112.56,0,0,0-19.31,1.82.56.56,0,0,1-.69-.41A.6.6,0,0,1,175.56,273.39Z"/><path class="cls-5" d="M430.6,359.3c-3.91-9.68-9.32-17.35-16.1-22.77-7.1-5.85-15.82-9.6-25-13.58l-.7-.3c-4.33-1.87-9.36-4.08-14.3-6.7-3.52-2-6.79-3.92-10.1-5.87l-3.34-2-13.22-7.94-6.6-4.1-1.15-.74c-1.86-1.2-3.63-2.33-5.7-3.95l-.76-.59a1.57,1.57,0,0,1-.5-.72l-.35-1.09a146.19,146.19,0,0,0-8.52-20.82c-.16-.31-.32-.58-.47-.89-.42.08-.83.18-1.25.25a36.24,36.24,0,0,0-4,1c-.75.22-1.5.45-2.25.64a32.32,32.32,0,0,0-4.1,1c-.71.21-1.42.42-2.14.61a49.94,49.94,0,0,0-5.59,2.35,31.8,31.8,0,0,0-9.49,7.44,50.71,50.71,0,0,0-3.49,4.42,51,51,0,0,1-4.94,6,14.21,14.21,0,0,1-7.39,3.75,7,7,0,0,1-1.85.2l-1.47,0h-.42l-3.25-.05a20.62,20.62,0,0,0-10.45,4.24,43.64,43.64,0,0,0-8.56,8.86c-.66.73-1.27,1.45-1.88,2.16-.52,4.87-.05,8.59,1.48,11.27,1.83,3.38,5.76,5.83,9.63,8.07l1.13.64c1.88,1.09,3.82,2.21,5.78,3.58a36.64,36.64,0,0,1,6.52,5.79q3.54,3.84,7,7.65c4.68,5.15,9.1,10,13.8,14.85a269.15,269.15,0,0,0,22,20.62c6.49,5.3,15.14,11.84,24.5,15.34a44.39,44.39,0,0,0,13.58,2.49q2.37.12,4.77.12c3.09,0,6.41-.15,9.86-.45a135.61,135.61,0,0,0,29-5.8c11.06-3.62,19.31-7.91,25.21-13.11,3.55-3.2,5.9-6.72,6.78-10.16a14.85,14.85,0,0,0,.27-5.65A27.45,27.45,0,0,0,430.6,359.3Zm-47.45,24.8a53.32,53.32,0,0,0-9.36-1.23c-1.53-.09-3.05.44-4.45,0a14.34,14.34,0,0,1-4.62-2.22l0,0a.37.37,0,0,1-.05-.51,7.59,7.59,0,0,1,5-2.63c1.79-.3,3.46.6,5.06,1.19a28.55,28.55,0,0,1,8.74,5,.29.29,0,0,1,.09.29A.27.27,0,0,1,383.15,384.1ZM422.58,360a14.31,14.31,0,0,1-2.75,4.33c-.94,1.14-2.51,1.49-3.77,2.37a55.9,55.9,0,0,0-7.3,6,.26.26,0,0,1-.39,0,.28.28,0,0,1-.07-.29,28.54,28.54,0,0,1,4.79-8.85c1.05-1.34,2-3,3.67-3.68a7.64,7.64,0,0,1,5.61-.37.35.35,0,0,1,.23.45Z"/><path class="cls-5" d="M253.91,20.51c-128.7,0-233.4,104.7-233.4,233.4S125.21,487.3,253.91,487.3,487.3,382.6,487.3,253.91,382.6,20.51,253.91,20.51Zm-20.15,256a1.52,1.52,0,0,1-.57,1.15l-2.52,2c-6.19,4.91-12.38,9.82-18.67,14.61-6.39,5-12.88,9.8-19.37,14.64l-2.4,1.79a1.52,1.52,0,0,1-.9.3,1.5,1.5,0,0,1-.9-.3l-1-.71c-12.31-9.19-24-18.47-34.9-27.11a1.51,1.51,0,0,1-.56-1.3l3.45-41.48a1.49,1.49,0,0,1,1.49-1.37l75.94,6.08a1.51,1.51,0,0,1,1.38,1.52ZM432.21,388.76C423,396.82,412,401.12,403.36,404a145.61,145.61,0,0,1-31.17,6.24c-3.8.34-7.31.5-10.74.5-1.77,0-3.55-.05-5.33-.14a54.42,54.42,0,0,1-16.51-3.09c-10.65-4-19.47-10.55-27.41-17a277.9,277.9,0,0,1-22.82-21.4c-4.82-5-9.53-10.14-14.09-15.15q-3.44-3.78-6.83-7.47a27.25,27.25,0,0,0-4.89-4.4c-1.59-1.11-3.35-2.12-5.22-3.2l-1-.59c-3.9-2.26-9.81-5.68-13.35-11.71-3.73-6.37-3.51-13.43-2.66-18.23a60.19,60.19,0,0,1,5.1-16.05,19.8,19.8,0,0,1,3-4.1,22,22,0,0,1,3.66-3,10.2,10.2,0,0,0,2.05-1.76,12.91,12.91,0,0,0,1.38-2.35,18.73,18.73,0,0,0,1.1-2.91,28.91,28.91,0,0,1,1.68-4.38,23.34,23.34,0,0,1,5.78-7,54.89,54.89,0,0,1,14.13-8.25,98.82,98.82,0,0,1,15.09-4.81,89.21,89.21,0,0,1,15.59-2.3c1.06-.05,2.11-.09,3.17-.09h.22c-.38-.42-.76-.83-1.14-1.22-.85-.9-1.83-1.82-2.84-2.78L308,246.14c-1.66-1.59-3.08-3-4.33-4.46a51.64,51.64,0,0,1-4-5l-1-1.43c-.77-1.16-1.42-2.13-2.24-3.2a55.5,55.5,0,0,0-16-14c-6.52-4-13.68-6.4-20.46-8.57a213.32,213.32,0,0,0-22-6,112.7,112.7,0,0,0-23.41-2.67,76.22,76.22,0,0,0-20.5,2.67c-12.52,3.37-25.12,10.46-38.54,21.68a208.82,208.82,0,0,0-16.66,15.62c-1.48,1.53-3,3.06-4.46,4.57-3.83,3.9-7.78,7.94-11.42,12.09-9.14,10.23-17.54,22.16-26.43,37.53-7.69,13.31-15,27.19-22.13,40.62l-.18.34a1.5,1.5,0,0,1-1.33.8c-15.09-.94-24.59-17.5-16.81-29.76L226.87,37.69c5.37-8.47,18.8-8.47,24.17,0l49.39,77.85a36.53,36.53,0,0,1,0,39.59l-30,47.26a83.45,83.45,0,0,1,15.12,7,65.35,65.35,0,0,1,18.9,16.55c.92,1.18,1.87,2.6,2.67,3.82l.78,1.16a44.6,44.6,0,0,0,3.26,4.08c1.2,1.33,2.48,2.63,3.81,3.92l1.13,1.07c.69.64,1.4,1.33,2.12,2l18-28.43c5.86-9.23,20.5-9.23,26.36,0l61.52,97a15.29,15.29,0,0,1-2.1,19.18c7.47,6.36,13.65,15.22,17.88,25.77A36.88,36.88,0,0,1,442.5,364a24.7,24.7,0,0,1-.48,9.59C440.61,379.06,437.31,384.17,432.21,388.76Z"/><path class="cls-5" d="M271.92,289.11l3.6.05a2.26,2.26,0,0,1,.43,0l1.3,0a2.87,2.87,0,0,0,.76-.08,8.45,8.45,0,0,0,4.52-2.28,43.29,43.29,0,0,0,4.11-5.08,62.49,62.49,0,0,1,4-5A37.23,37.23,0,0,1,301.8,268a55,55,0,0,1,6.47-2.7c.92-.23,1.68-.47,2.45-.71a28.13,28.13,0,0,1,4.41-1.08c2-.21,4.15-.31,6.36-.35a78,78,0,0,0-5.16-8h-.08a47.51,47.51,0,0,0-6,.43,92,92,0,0,0-14.61,3.26c-11.74,3.67-19.92,7.91-25.75,13.31a16.23,16.23,0,0,0-3.65,5,19,19,0,0,0-.88,2.91,31.41,31.41,0,0,1-1.33,4.31,21.24,21.24,0,0,1-2.24,4.27,18.83,18.83,0,0,1-3.59,3.6,9.71,9.71,0,0,0-3.56,4.21c-.26.59-.47,1.25-.69,1.89a42.84,42.84,0,0,1,4.31-3.79A26.32,26.32,0,0,1,271.92,289.11Z"/></g></svg>