<svg width="8" height="8" viewBox="0 0 8 8" fill="none" xmlns="http://www.w3.org/2000/svg">
<path d="M3.82415 0.138672C3.88015 0.14426 3.93605 0.150307 3.99205 0.155254C4.68524 0.217276 5.3063 0.464266 5.85002 0.89659C6.46825 1.38819 6.87671 2.0195 7.07191 2.78566C7.16987 3.17016 7.19947 3.56071 7.16236 3.95639C7.09042 4.72191 6.8 5.3938 6.28891 5.96639C5.77643 6.54053 5.13942 6.90634 4.3852 7.06483C4.06518 7.13208 3.7414 7.15415 3.41561 7.12768C2.65002 7.06547 1.97213 6.78761 1.39075 6.28493C0.833554 5.80313 0.463589 5.20279 0.283327 4.48802C0.187467 4.1081 0.155759 3.72232 0.192783 3.33113C0.278378 2.42635 0.656407 1.66495 1.32403 1.05142C1.82339 0.592525 2.41211 0.305683 3.08239 0.19309C3.22187 0.169637 3.36392 0.161117 3.50469 0.145451C3.51357 0.144444 3.5221 0.140962 3.5309 0.138672C3.62859 0.138672 3.72637 0.138672 3.82415 0.138672ZM3.6241 6.4239C5.16499 6.45166 6.41986 5.23568 6.4633 3.72122C6.50812 2.15911 5.27313 0.888162 3.74323 0.853715C2.18566 0.818719 0.920523 2.0544 0.89248 3.58132C0.864163 5.12647 2.08806 6.39789 3.6241 6.4239Z" fill="white"/>
<path d="M5.59309 4.07087C5.41961 4.90813 4.60756 5.67832 3.5192 5.59779C2.48849 5.52157 1.69329 4.63659 1.71529 3.59073C1.73683 2.5696 2.54961 1.73088 3.57061 1.67857C4.66062 1.62269 5.42218 2.41633 5.5831 3.17214C5.56926 3.17288 5.55598 3.17425 5.54269 3.17425C5.25859 3.17425 4.9745 3.1737 4.6904 3.17498C4.65714 3.17517 4.63973 3.165 4.62369 3.13532C4.26399 2.47176 3.36194 2.36695 2.87174 2.93688C2.59846 3.2546 2.53082 3.62334 2.678 4.01572C2.82326 4.40288 3.11386 4.6321 3.5214 4.69833C3.98438 4.77355 4.43948 4.52757 4.64385 4.10486C4.65411 4.0837 4.66172 4.0673 4.69242 4.06748C4.98412 4.06904 5.27591 4.0684 5.56762 4.06858C5.57513 4.06858 5.58255 4.06987 5.593 4.07087H5.59309Z" fill="white"/>
</svg>
