<svg width="116" height="66" viewBox="0 0 116 66" fill="none" xmlns="http://www.w3.org/2000/svg">
<path d="M33.0623 0.509904C51.1792 0.805012 65.2904 15.309 65.0309 33.3725C64.775 51.0827 49.9841 65.5648 32.5433 65.1859C14.273 64.7851 0.297032 50.1864 0.636929 31.8533C0.954896 14.5804 15.8007 0.229369 33.0623 0.509904Z" fill="#ECC8E7"/>
<path d="M68.6716 32.7456C68.8142 25.2768 69.9874 18.0375 73.4192 11.2829C74.7057 8.75076 76.4637 6.59756 78.62 4.7832C82.4868 1.53337 87.7351 1.79568 91.558 5.31512C95.9547 9.35919 98.111 14.6019 99.3646 20.2272C101.927 31.7072 101.455 42.9687 96.3933 53.8112C95.2164 56.3287 93.5608 58.4637 91.547 60.3509C87.556 64.0926 82.1103 64.089 78.0645 60.4201C73.58 56.3506 71.5553 50.9986 70.1262 45.366C69.081 41.2381 68.7045 37.0046 68.668 32.7456H68.6716Z" fill="#ECC8E7"/>
<path d="M104.452 32.7905C104.507 25.6787 105 18.6107 106.594 11.6556C106.974 10.0016 107.493 8.37303 108.41 6.92299C109.518 5.17784 110.855 5.15234 111.912 6.93028C113.388 9.41866 113.984 12.2131 114.43 15.0403C116.451 27.7991 116.418 40.5325 113.922 53.2294C113.56 55.0766 112.986 56.88 112.05 58.5195C110.874 60.5889 109.423 60.5962 108.275 58.5122C106.576 55.4264 106.057 51.9871 105.56 48.5696C104.796 43.3379 104.43 38.0769 104.452 32.7868V32.7905Z" fill="#ECC8E7"/>
</svg>
