<svg width="55" height="64" viewBox="0 0 55 64" fill="none" xmlns="http://www.w3.org/2000/svg">
<path d="M0.442607 31.8682C0.442607 26.9384 0.449809 22.0086 0.433604 17.0788C0.431804 16.4343 0.658668 16.0292 1.22223 15.7042C9.6729 10.8239 18.1191 5.93642 26.5499 1.02284C27.3368 0.564616 27.9606 0.570018 28.7447 1.02645C37.2188 5.95533 45.7082 10.8581 54.1994 15.7573C54.6585 16.0219 54.8422 16.3586 54.8413 16.8817C54.8341 26.816 54.8323 36.7512 54.8467 46.6854C54.8476 47.3885 54.5073 47.7784 53.9446 48.1015C48.3252 51.3299 42.7086 54.5636 37.0964 57.8036C33.9986 59.5924 30.9108 61.3983 27.8121 63.1853C27.7005 63.2492 27.488 63.2519 27.3782 63.188C19.4577 58.6174 11.5436 54.0378 3.6277 49.4591C2.81117 48.9874 2.00364 48.4986 1.17091 48.0574C0.641563 47.7766 0.433604 47.3858 0.435405 46.7935C0.448008 41.8187 0.442607 36.8439 0.442607 31.8691V31.8682ZM3.71502 31.8835H3.71142C3.71142 36.2137 3.71773 40.5448 3.70422 44.875C3.70242 45.4638 3.90498 45.8374 4.42892 46.139C11.9667 50.4755 19.4946 54.8264 27.0208 59.1837C27.4286 59.4195 27.7725 59.4465 28.1884 59.2053C35.7235 54.8354 43.2631 50.4719 50.8072 46.1174C51.3483 45.805 51.5769 45.3873 51.5769 44.7661C51.5724 36.2101 51.5769 27.6541 51.5886 19.0981C51.5886 18.3833 51.3123 17.8954 50.6785 17.5326C46.6634 15.2378 42.6599 12.9224 38.6547 10.6096C35.1554 8.58947 31.6544 6.5702 28.1659 4.53023C27.7545 4.28986 27.4277 4.27006 27.0667 4.55994C26.9974 4.61575 26.9145 4.65536 26.8371 4.70038C19.374 9.01619 11.9136 13.3356 4.44243 17.637C3.90498 17.9467 3.70332 18.3257 3.70602 18.937C3.72493 23.2528 3.71592 27.5677 3.71592 31.8835H3.71502Z" fill="url(#paint0_linear_201_620)"/>
<path d="M19.6937 31.9133C19.6937 25.6349 19.6991 19.3556 19.6856 13.0773C19.6838 12.4669 19.898 12.0735 20.4265 11.7674C22.6015 10.5062 24.7675 9.2278 26.9218 7.93144C27.4871 7.59114 27.985 7.57494 28.5539 7.91523C31.4203 9.62571 34.2985 11.3164 37.1712 13.0152C37.6897 13.3221 37.7077 13.414 37.3719 13.9244C36.9695 14.5375 36.5653 15.1497 36.1701 15.7681C35.7794 16.3803 35.7317 16.4001 35.1186 16.0319C32.8481 14.6662 30.5732 13.3077 28.3154 11.9214C27.904 11.6693 27.5745 11.6459 27.1577 11.8853C25.9648 12.5713 24.7594 13.2384 23.5458 13.8884C23.1218 14.1153 22.958 14.4187 22.9598 14.894C22.9706 19.5996 22.9661 24.3043 22.967 29.0099C22.967 29.7058 23.0345 29.768 23.7466 29.7671C27.2828 29.7626 30.819 29.7581 34.3561 29.7536C35.0007 29.7536 35.0421 29.7914 35.0457 30.4387C35.0502 31.3524 35.0502 32.2671 35.0457 33.1808C35.0439 33.7606 35.0142 33.8047 34.4398 33.8065C30.963 33.8146 27.4871 33.8164 24.0104 33.8128C22.7437 33.811 22.9859 33.9208 22.985 34.8427C22.9805 40.9563 22.9868 47.0699 22.985 53.1835C22.985 53.3069 22.9211 53.4311 22.8869 53.5544C22.7653 53.5148 22.6294 53.4986 22.525 53.432C21.8048 52.9747 21.1035 52.4858 20.3697 52.051C19.8728 51.7557 19.6883 51.365 19.6892 50.7961C19.7009 44.5024 19.6964 38.2087 19.6964 31.9151H19.6928L19.6937 31.9133Z" fill="url(#paint1_linear_201_620)"/>
<path d="M16.8128 50.0368C16.3078 49.7451 15.9324 49.4679 15.5128 49.2995C14.5964 48.9331 14.2381 48.2426 13.9977 47.3172C12.5726 41.831 11.0881 36.3602 9.6225 30.8849C9.58559 30.7453 9.54058 30.6076 9.39203 30.477V45.6562C9.14717 45.5563 8.99772 45.5131 8.86629 45.4383C8.22801 45.0764 7.60683 44.6848 6.95595 44.349C6.59225 44.1609 6.48062 43.9025 6.48332 43.5217C6.49232 41.9481 6.48692 40.3753 6.48602 38.8017C6.48422 33.1823 6.48782 27.5638 6.47072 21.9444C6.46892 21.3323 6.66247 20.9281 7.22243 20.6526C7.81209 20.3618 8.36935 20.0062 8.93651 19.6731C9.46045 19.3652 9.52707 19.3877 9.69812 19.9747C10.8351 23.8647 11.9704 27.7556 13.1074 31.6456C13.1434 31.7698 13.1875 31.8913 13.3198 32.0075C13.3198 31.8553 13.3198 31.7041 13.3198 31.5519C13.3162 26.8319 13.3234 22.1119 13.3 17.3919C13.2964 16.6726 13.5404 16.2197 14.1985 15.9047C14.9115 15.5626 15.575 15.1187 16.2637 14.7253C16.414 14.6398 16.5778 14.5777 16.8146 14.4688V50.0368H16.8128Z" fill="url(#paint2_linear_201_620)"/>
<path d="M41.6769 48.8172C41.6769 48.4238 41.6769 48.1583 41.6769 47.8936C41.6832 38.9469 41.6823 30.0011 41.7084 21.0544C41.7111 20.2792 41.4861 19.7661 40.792 19.3772C39.8134 18.8298 38.8853 18.1925 37.9391 17.5875C37.4503 17.2742 37.4277 17.1419 37.7392 16.6467C38.1299 16.0255 38.5288 15.4107 38.9069 14.7814C39.0851 14.4852 39.2679 14.4393 39.5631 14.6256C42.85 16.7106 46.1413 18.7902 49.4344 20.8662C49.7288 21.0517 49.8773 21.2965 49.8755 21.6431C49.8719 22.6469 49.8755 23.6516 49.8665 24.6554C49.8656 24.7616 49.7918 24.8669 49.7513 24.9723C49.646 24.9317 49.5271 24.9092 49.4362 24.8471C48.1966 24.0072 46.9632 23.1591 45.7227 22.3201C45.6209 22.2517 45.4841 22.2346 45.3644 22.1932C45.3338 22.3156 45.2833 22.4362 45.2761 22.5596C45.2653 22.7378 45.2906 22.9179 45.2906 23.0979C45.2933 30.6808 45.2906 38.2636 45.3068 45.8464C45.3086 46.5261 45.0979 46.9681 44.4695 47.2751C43.7187 47.6424 43.012 48.1015 42.2846 48.5166C42.1334 48.603 41.9731 48.6723 41.6778 48.8172H41.6769Z" fill="url(#paint3_linear_201_620)"/>
<defs>
<linearGradient id="paint0_linear_201_620" x1="27.6401" y1="0.681641" x2="27.6401" y2="63.2346" gradientUnits="userSpaceOnUse">
<stop offset="0.666667" stop-color="#D42EBC"/>
<stop offset="1" stop-color="#D42EBC" stop-opacity="0"/>
</linearGradient>
<linearGradient id="paint1_linear_201_620" x1="28.6414" y1="7.66797" x2="28.6414" y2="53.5544" gradientUnits="userSpaceOnUse">
<stop offset="0.666667" stop-color="#D42EBC"/>
<stop offset="1" stop-color="#D42EBC" stop-opacity="0"/>
</linearGradient>
<linearGradient id="paint2_linear_201_620" x1="11.6427" y1="14.4688" x2="11.6427" y2="50.0368" gradientUnits="userSpaceOnUse">
<stop offset="0.666667" stop-color="#D42EBC"/>
<stop offset="1" stop-color="#D42EBC" stop-opacity="0"/>
</linearGradient>
<linearGradient id="paint3_linear_201_620" x1="43.7044" y1="14.5146" x2="43.7044" y2="48.8172" gradientUnits="userSpaceOnUse">
<stop offset="0.666667" stop-color="#D42EBC"/>
<stop offset="1" stop-color="#D42EBC" stop-opacity="0"/>
</linearGradient>
</defs>
</svg>
