<svg width="68" height="72" viewBox="0 0 68 72" fill="none" xmlns="http://www.w3.org/2000/svg">
<path d="M64.3395 46.3868C66.6227 51.6598 63.9672 55.93 58.2914 55.6336C51.4532 55.2765 44.7783 56.7961 38.0008 56.9215C36.2494 56.9557 34.4981 56.9253 33.0354 56.9253C32.1578 59.3529 31.6184 61.5753 30.5888 63.5432C27.5458 69.3634 21.2698 72.6875 14.6898 71.8403C7.97694 70.9742 3.36491 67.2093 1.15387 60.7775C-0.950802 54.6497 0.960116 47.838 5.93686 43.659C7.04238 42.7283 7.3691 41.8013 7.3501 40.4527C7.28932 35.9204 7.31591 31.3843 7.33111 26.8521C7.3425 23.9762 8.20869 23.11 11.0238 23.0948C12.4712 23.0872 13.93 23.0075 15.3661 23.1328C16.1297 23.1974 17.0111 23.4557 17.5733 23.9382C19.1955 25.3325 20.8139 25.606 22.3031 24.2307C25.0764 21.6702 27.9637 19.1742 30.3609 16.2831C31.8691 14.4672 32.6669 12.0206 33.5901 9.7754C34.084 8.57491 34.1675 7.20725 34.4221 5.91177C35.1857 2.04435 36.6635 0.30819 39.3418 0.133434C42.2709 -0.0565184 45.7356 2.15451 46.4574 5.30012C47.0653 7.94425 47.1223 10.7669 47.0311 13.4947C46.9627 15.5233 46.2713 17.533 45.8268 19.6947C50.5186 19.6947 55.1116 19.6795 59.7047 19.6985C64.7878 19.7213 67.337 23.2734 65.8705 28.1628C65.7338 28.6186 65.9503 29.3367 66.2542 29.7508C68.1766 32.3607 68.1804 34.9099 66.2542 37.573C65.9541 37.9871 65.7376 38.6937 65.8705 39.1534C66.7975 42.356 66.5658 43.6856 64.3395 46.3906V46.3868ZM47.5668 45.9043C45.9446 44.1149 45.1962 41.8127 46.4042 39.0926C46.541 38.7849 46.4346 38.2568 46.2561 37.9377C45.6786 36.9157 45.0176 35.947 44.3832 34.9516C40.4853 37.2653 38.2743 38.0099 35.2883 37.9909C33.8712 37.9833 32.496 37.7591 32.4504 35.9812C32.4048 34.245 33.6319 33.8841 35.1363 33.8385C41.0058 33.6562 45.2835 29.6596 45.9484 23.6419C45.3139 23.6419 44.7023 23.6419 44.0906 23.6419C40.8462 23.6191 40.2612 22.7985 41.3287 19.7517C42.5862 16.1616 43.555 12.4993 43.0383 8.66988C42.8635 7.3896 42.3165 5.94597 41.4541 5.0266C40.0788 3.55637 38.9733 4.05404 38.5326 6.04853C38.3959 6.66398 38.2515 7.27563 38.1451 7.89487C37.3397 12.7121 35.7137 17.1303 32.0591 20.5837C29.8632 22.6617 27.6902 24.7588 25.5133 26.8559C23.8949 28.4135 21.9954 29.2341 19.7312 29.1999C19.3209 29.1923 18.9068 29.3101 18.5231 29.3633V39.6245C18.789 39.7232 18.9562 39.8106 19.1347 39.8486C25.8172 41.277 30.2203 45.1787 32.1882 51.7814C32.3136 52.2031 32.9025 52.8033 33.2558 52.7919C37.9438 52.6324 42.6242 52.3778 46.9095 52.1689C47.1527 49.8629 47.3388 48.1077 47.5706 45.8967L47.5668 45.9043ZM16.4526 67.8589C23.1769 67.8817 28.6209 62.5327 28.6931 55.8312C28.7653 49.198 23.3023 43.6325 16.654 43.5679C9.90686 43.5033 4.31467 49.0195 4.32227 55.7286C4.32987 62.4339 9.7321 67.8361 16.4526 67.8589ZM56.031 35.5709C57.7938 35.5709 59.5527 35.5861 61.3155 35.5671C62.5996 35.5519 63.5759 35.0542 63.5987 33.6258C63.6177 32.2049 62.6755 31.6199 61.3839 31.6085C57.9229 31.5781 54.462 31.5857 51.0011 31.6009C49.7208 31.6085 48.7179 32.1328 48.7103 33.5498C48.7065 35.0694 49.755 35.5709 51.1189 35.5747C52.7562 35.5823 54.3898 35.5747 56.0272 35.5747L56.031 35.5709ZM56.0614 27.6309C57.3759 27.6309 58.6903 27.6461 60.0086 27.6271C61.3117 27.6081 62.269 26.9889 62.2804 25.6516C62.2918 24.2991 61.3231 23.6723 60.0276 23.6609C57.3987 23.6343 54.7659 23.6229 52.137 23.6685C50.8491 23.6913 49.9146 24.3295 49.9677 25.72C50.0171 26.9813 50.9023 27.5815 52.118 27.6157C53.4325 27.6537 54.7469 27.6233 56.0652 27.6271L56.0614 27.6309ZM56.088 43.5527C57.4671 43.5527 58.8423 43.5717 60.2214 43.5451C61.4864 43.5223 62.288 42.8195 62.2804 41.5886C62.2766 40.3501 61.4484 39.6701 60.191 39.6625C57.4367 39.6473 54.6748 39.5409 51.9356 39.7498C51.229 39.803 50.1843 40.806 50.0285 41.5316C49.774 42.7093 50.7124 43.4805 51.9584 43.5337C53.3337 43.5907 54.7127 43.5451 56.088 43.5489V43.5527ZM56.1412 47.6784V47.686C55.0699 47.686 53.9149 47.4315 52.9614 47.7658C52.2016 48.0317 51.3088 48.9587 51.2062 49.6919C51.1341 50.2124 52.2358 51.3597 52.8968 51.4319C55.0129 51.6598 57.1859 51.6826 59.2944 51.4319C59.9896 51.3483 60.5557 50.1972 61.1825 49.5324C60.5101 48.9169 59.9288 48.0279 59.1386 47.7544C58.2383 47.4429 57.1517 47.6822 56.145 47.6822L56.1412 47.6784Z" fill="url(#paint0_linear_201_629)"/>
<path d="M14.3603 57.3632C16.427 55.1978 18.1138 53.4388 19.7854 51.6685C20.8377 50.5554 22.0686 50.1451 23.2311 51.2962C24.4164 52.4701 23.6718 53.5642 22.6916 54.533C20.6364 56.5616 18.6191 58.6283 16.5562 60.6494C15.0252 62.15 14.2236 62.15 12.7306 60.7026C11.6934 59.6996 10.5119 58.7765 9.74071 57.5912C9.31521 56.9377 9.25443 55.6081 9.64953 54.9622C10.2916 53.9099 11.5149 53.9973 12.4114 54.8711C13.0801 55.5245 13.5777 56.3489 14.3565 57.3632H14.3603Z" fill="url(#paint1_linear_201_629)"/>
<defs>
<linearGradient id="paint0_linear_201_629" x1="34.003" y1="0.12207" x2="34.003" y2="71.9712" gradientUnits="userSpaceOnUse">
<stop offset="0.697917" stop-color="#D42EBC"/>
<stop offset="1" stop-color="#D42EBC" stop-opacity="0"/>
</linearGradient>
<linearGradient id="paint1_linear_201_629" x1="16.6124" y1="50.6084" x2="16.6124" y2="61.7816" gradientUnits="userSpaceOnUse">
<stop offset="0.697917" stop-color="#D42EBC"/>
<stop offset="1" stop-color="#D42EBC" stop-opacity="0"/>
</linearGradient>
</defs>
</svg>
