<svg width="83" height="68" viewBox="0 0 83 68" fill="none" xmlns="http://www.w3.org/2000/svg">
<path d="M82.4497 8.40162C79.3979 9.74034 76.146 10.6277 72.7556 11.0585C76.2434 8.97609 78.9054 5.70367 80.157 1.75933C76.9051 3.69816 73.3146 5.06766 69.4883 5.8319C66.4005 2.5441 61.9997 0.507812 57.1988 0.507812C47.8842 0.507812 40.3853 8.06823 40.3853 17.3367C40.3853 18.6702 40.4981 19.9525 40.7751 21.1733C26.7878 20.4911 14.4111 13.7873 6.09672 3.57506C4.64516 6.09349 3.79372 8.97609 3.79372 12.0792C3.79372 17.906 6.79429 23.0711 11.2669 26.0614C8.56386 26.0101 5.91207 25.2253 3.66549 23.9892C3.66549 24.0405 3.66549 24.1072 3.66549 24.1739C3.66549 32.3498 9.49737 39.1408 17.145 40.7052C15.7755 41.0796 14.2829 41.2592 12.7339 41.2592C11.6568 41.2592 10.5694 41.1976 9.54866 40.9719C11.7286 47.6347 17.9144 52.5331 25.2696 52.6921C19.5454 57.1699 12.2774 59.8678 4.40922 59.8678C3.02947 59.8678 1.70614 59.8063 0.382812 59.637C7.83551 64.4431 16.668 67.1872 26.1929 67.1872C57.1526 67.1872 74.0789 41.5413 74.0789 19.3114C74.0789 18.5677 74.0532 17.8496 74.0173 17.1366C77.3564 14.7669 80.1621 11.8074 82.4497 8.40162Z" fill="#ECC7E7"/>
</svg>
