<svg width="221" height="56" viewBox="0 0 221 56" fill="none" xmlns="http://www.w3.org/2000/svg">
<path d="M28.0018 55.9987C22.4629 55.9998 17.048 54.3583 12.4421 51.2817C7.83622 48.2052 4.24616 43.8318 2.12599 38.7147C0.00582921 33.5976 -0.549194 27.9667 0.531121 22.5342C1.61144 17.1017 4.27856 12.1115 8.19516 8.19492C12.1118 4.27832 17.1019 1.61119 22.5344 0.530877C27.967 -0.549438 33.5979 0.00558507 38.7149 2.12575C43.832 4.24591 48.2054 7.83598 51.282 12.4419C54.3585 17.0478 56.0001 22.4626 55.9989 28.0015C55.99 35.4241 53.0374 42.5401 47.7889 47.7887C42.5403 53.0372 35.4243 55.9898 28.0018 55.9987ZM28.0018 1.15823C22.6924 1.15711 17.502 2.7305 13.0869 5.6794C8.6718 8.6283 5.23035 12.8203 3.19778 17.7251C1.16521 22.63 0.632824 28.0275 1.66794 33.2349C2.70306 38.4424 5.25919 43.226 9.01307 46.9806C12.7669 50.7353 17.55 53.2924 22.7572 54.3286C27.9644 55.3648 33.362 54.8336 38.2673 52.802C43.1726 50.7705 47.3653 47.3299 50.3151 42.9155C53.265 38.501 54.8394 33.3109 54.8394 28.0015C54.832 20.8855 52.0022 14.063 46.971 9.03066C41.9397 3.99834 35.1178 1.16717 28.0018 1.15823Z" fill="url(#paint0_linear_844_17186)"/>
<path fill-rule="evenodd" clip-rule="evenodd" d="M8.26943 37.0392C8.24378 37.055 8.21449 37.0639 8.1844 37.065C6.52956 36.9581 5.49388 35.1456 6.34382 33.806L25.0424 4.33407C25.1897 4.1193 25.3872 3.94364 25.6176 3.82228C25.8481 3.70091 26.1047 3.63749 26.3651 3.63749C26.6256 3.63749 26.8821 3.70091 27.1126 3.82228C27.3431 3.94364 27.5405 4.1193 27.6879 4.33407L33.1139 12.8559C33.5328 13.5011 33.7557 14.2538 33.7557 15.023C33.7557 15.7922 33.5328 16.5449 33.1139 17.19L29.8324 22.3628C30.4008 22.5532 30.9478 22.8022 31.4647 23.1058C32.2656 23.5683 32.9691 24.1819 33.5361 24.9126C33.6208 25.0209 33.7055 25.1488 33.7836 25.2667L33.7836 25.2668L33.8288 25.3348L33.9132 25.4586C34.0232 25.6165 34.1435 25.767 34.2734 25.9089C34.4029 26.0552 34.5436 26.196 34.69 26.3367L34.8138 26.4549L35.0277 26.6857L37.0034 23.573C37.1643 23.3396 37.3796 23.1489 37.6306 23.0171C37.8816 22.8853 38.1608 22.8165 38.4443 22.8165C38.7278 22.8165 39.0071 22.8853 39.2581 23.0171C39.5091 23.1489 39.7243 23.3396 39.8853 23.573L46.6397 34.1944C46.8457 34.5184 46.935 34.903 46.8931 35.2846C46.8511 35.6663 46.6804 36.0223 46.4089 36.2939C47.2778 37.0616 47.9496 38.0268 48.3677 39.1082C48.4976 39.4057 48.5921 39.7174 48.6492 40.037C48.6984 40.3882 48.6793 40.7456 48.5929 41.0895C48.4039 41.7294 48.0275 42.298 47.5122 42.7219C46.5845 43.4923 45.5103 44.0668 44.3545 44.4105C43.246 44.7624 42.1021 44.9908 40.9435 45.0915C40.5269 45.1478 40.1442 45.1478 39.7671 45.1478H39.2042C38.5862 45.1302 37.9747 45.0163 37.3917 44.8101C36.2971 44.3563 35.2837 43.727 34.3916 42.947C33.5166 42.2146 32.684 41.4328 31.8981 40.6055C31.369 40.0764 30.8512 39.5135 30.3559 38.9506L29.6073 38.1288C29.4468 37.9505 29.2676 37.7901 29.0725 37.6504C28.8913 37.5241 28.7034 37.4076 28.5097 37.3014L28.3971 37.2339C27.8067 36.9418 27.3038 36.4991 26.9392 35.9505C26.6076 35.3423 26.5039 34.6358 26.6466 33.958C26.7501 33.3489 26.9397 32.7576 27.2094 32.2018C27.2966 32.0386 27.4045 31.8872 27.5303 31.7515C27.6539 31.6292 27.7897 31.5198 27.9355 31.425C28.0187 31.3714 28.0944 31.3071 28.1607 31.2337C28.2178 31.1524 28.2669 31.0656 28.307 30.9747C28.3569 30.8733 28.3984 30.7678 28.4309 30.6595C28.4808 30.4946 28.541 30.3329 28.611 30.1755C28.7728 29.8824 28.9886 29.6227 29.247 29.41C29.7142 29.0314 30.2361 28.7259 30.7949 28.5037C31.3298 28.2856 31.8813 28.1106 32.4441 27.9803C32.9987 27.8478 33.5637 27.7631 34.1327 27.727H34.4817L34.3579 27.5919C34.2702 27.4987 34.1665 27.4003 34.0573 27.2965L34.0572 27.2964L34.0483 27.2879L33.9132 27.1641C33.7331 26.9915 33.5755 26.8283 33.4404 26.6744C33.2821 26.495 33.1336 26.3071 32.9957 26.1115L32.8944 25.9539C32.81 25.8301 32.7368 25.7232 32.6468 25.605C32.1667 24.9954 31.5744 24.4833 30.9019 24.0965C30.1915 23.6946 29.4356 23.379 28.6504 23.1565C27.8597 22.8939 27.0555 22.6741 26.2413 22.4979C25.4 22.3124 24.5417 22.2143 23.6802 22.2052C22.92 22.201 22.1626 22.2994 21.4287 22.4979C19.8671 22.9729 18.4282 23.7836 17.2128 24.8732C16.5719 25.4013 15.9611 25.9651 15.3835 26.5618L14.8994 27.0628C14.4773 27.4849 14.0439 27.9296 13.6499 28.3855C12.5455 29.6511 11.5759 31.0282 10.7567 32.4945C9.91241 33.9467 9.10751 35.4664 8.33075 36.9412V36.9749C8.3162 37.0013 8.29507 37.0234 8.26943 37.0392ZM28.4646 32.1849C28.2938 32.2985 28.159 32.4587 28.0762 32.6465C28.0512 32.7164 28.0305 32.7878 28.0143 32.8604C28.1623 32.711 28.3203 32.5718 28.4871 32.4438C28.9231 32.1187 29.4422 31.9235 29.9844 31.881H30.5472H30.626C30.8131 31.8525 30.9864 31.7658 31.1214 31.6333C31.2869 31.4586 31.4376 31.2703 31.5717 31.0704C31.7068 30.8734 31.8475 30.6877 32.0051 30.5076C32.3502 30.1142 32.7665 29.7895 33.2321 29.5507C33.4624 29.4372 33.6992 29.3376 33.9414 29.2524L34.2115 29.1792C34.3671 29.1253 34.5272 29.0857 34.69 29.061C34.9216 29.0334 35.1547 29.0202 35.3879 29.0216C35.2178 28.718 35.0299 28.4248 34.8251 28.1435C34.6035 28.134 34.3816 28.1396 34.1609 28.1604C33.619 28.2332 33.0842 28.3518 32.5623 28.515C31.5278 28.7864 30.5665 29.2843 29.748 29.9728C29.5793 30.1326 29.4435 30.3238 29.3483 30.5357C29.305 30.637 29.2729 30.7427 29.2526 30.8509C29.2152 31.0118 29.1663 31.1698 29.1063 31.3237C29.042 31.4885 28.9589 31.6452 28.8586 31.7909C28.7477 31.9412 28.6149 32.074 28.4646 32.1849ZM46.7861 41.9563C47.1375 41.661 47.3957 41.2699 47.529 40.8306C47.5791 40.6282 47.5924 40.4185 47.5684 40.2114C47.5253 39.9783 47.4535 39.7515 47.3546 39.536C46.9929 38.568 46.3858 37.7107 45.5928 37.0481C44.7583 36.4194 43.8393 35.9115 42.8629 35.5396L42.784 35.5058C42.3112 35.2976 41.7821 35.0556 41.2193 34.7685C40.814 34.5546 40.4538 34.3407 40.0935 34.1268L39.7277 33.9129L38.2811 33.0405L37.555 32.5902L37.4312 32.5114C37.2157 32.3775 37.0072 32.2329 36.8064 32.078L36.7276 32.0161C36.7022 31.9952 36.6827 31.968 36.6713 31.9372L36.6319 31.819C36.3807 31.0449 36.0682 30.2921 35.6975 29.5676L35.6469 29.4662H35.5118C35.3653 29.4958 35.2207 29.5334 35.0784 29.5788L34.8307 29.652C34.6784 29.6802 34.528 29.7178 34.3804 29.7646L34.1496 29.8321C33.9475 29.9191 33.7503 30.0168 33.5586 30.1248C33.1638 30.3298 32.8107 30.6066 32.5173 30.941C32.4114 31.0601 32.3158 31.1863 32.2171 31.3166L32.2168 31.3169C32.1897 31.3527 32.1624 31.3887 32.1345 31.425C31.9658 31.66 31.7775 31.8803 31.5717 32.0836C31.3504 32.3112 31.0627 32.463 30.7499 32.517C30.6827 32.5275 30.6144 32.5275 30.5472 32.517H29.9844C29.5739 32.5646 29.1844 32.7243 28.8586 32.9786C28.4987 33.2547 28.1819 33.5829 27.9186 33.9523C27.8436 34.0311 27.776 34.1099 27.716 34.1887C27.6366 34.6059 27.6918 35.0376 27.8736 35.4214C28.1434 35.8031 28.5082 36.1077 28.9318 36.3051L29.05 36.3727C29.0934 36.3985 29.1371 36.4241 29.181 36.4497L29.1811 36.4499L29.1813 36.45C29.3477 36.5474 29.5169 36.6465 29.6861 36.7667C29.9487 36.9496 30.1887 37.1631 30.4009 37.4027C30.575 37.5844 30.7465 37.7736 30.9172 37.962L30.9175 37.9623C31.0006 38.054 31.0835 38.1455 31.1664 38.2358L31.2752 38.3554C31.7476 38.8746 32.1991 39.371 32.6749 39.8625C33.4327 40.6599 34.2372 41.4117 35.084 42.114C35.8834 42.8133 36.7874 43.3831 37.7632 43.8026C38.2414 43.9698 38.7428 44.061 39.2492 44.0727H39.7727C40.1104 44.0727 40.4763 44.0559 40.8534 44.0221C41.9295 43.9279 42.9921 43.7165 44.0224 43.3917C45.0302 43.1027 45.97 42.6146 46.7861 41.9563ZM20.9335 34.2506C20.8971 34.2499 20.8617 34.2381 20.8322 34.2168L20.7308 34.138C19.38 33.1305 18.0966 32.1173 16.909 31.1717C16.8886 31.1545 16.8724 31.1329 16.8617 31.1085C16.8509 31.0841 16.8459 31.0576 16.847 31.031L17.2242 26.4886C17.2282 26.4478 17.2471 26.4098 17.2771 26.3818C17.3072 26.3539 17.3464 26.3378 17.3874 26.3366L25.701 27.0177C25.7423 27.0206 25.781 27.039 25.8092 27.0693C25.8374 27.0996 25.8531 27.1395 25.853 27.181L25.7967 30.485C25.7965 30.5098 25.7909 30.5343 25.7802 30.5566C25.7695 30.579 25.754 30.5988 25.7348 30.6145L25.459 30.8284C24.8806 31.3063 24.3064 31.7477 23.7258 32.194L23.4157 32.4325C22.7762 32.9253 22.1024 33.4278 21.44 33.922L21.2937 34.0311L21.0292 34.2281C21.0006 34.246 20.967 34.2539 20.9335 34.2506ZM17.2242 30.9578C18.0804 31.5237 18.8863 32.0705 19.6731 32.6043C20.0914 32.8881 20.5043 33.1683 20.9166 33.4457C21.592 32.8828 22.2675 32.3594 22.9542 31.8303L23.0243 31.7763C23.6861 31.2663 24.3283 30.7715 24.9861 30.2767L25.0818 30.2036L25.1888 27.62L17.6745 26.8489L17.2242 30.9578ZM23.6961 29.5507C23.6961 29.5299 23.6884 29.5099 23.6746 29.4944C23.3954 29.1547 22.9964 28.9351 22.5601 28.8809C22.1717 28.8574 21.7838 28.9349 21.4343 29.106C20.7073 29.3346 20.0268 29.6911 19.4249 30.1586C19.4195 30.168 19.4166 30.1787 19.4166 30.1895C19.4166 30.2004 19.4195 30.2111 19.4249 30.2205C19.4301 30.2364 19.441 30.2499 19.4556 30.2582C19.4702 30.2665 19.4873 30.2691 19.5037 30.2655C20.2001 30.1374 20.9064 30.0714 21.6145 30.0685C21.9471 30.1104 22.2837 30.1104 22.6164 30.0685C22.9938 29.9791 23.3522 29.8228 23.6746 29.607C23.6884 29.5915 23.6961 29.5714 23.6961 29.5507ZM42.2121 42.23C42.2121 42.23 41.9705 42.23 41.7928 42.1754C41.6652 42.1361 41.527 42.1349 41.3757 42.1337C41.3163 42.1332 41.2548 42.1326 41.1912 42.1298C41.093 42.1254 40.9998 42.13 40.9178 42.1342H40.9178C40.8191 42.1391 40.7366 42.1432 40.6808 42.1298C40.6708 42.1274 40.6602 42.1249 40.6491 42.1223C40.636 42.1193 40.6221 42.1162 40.6078 42.1129C40.3824 42.0618 40.026 41.9811 40.1157 41.8017C40.1886 41.6558 40.3527 41.5373 40.5259 41.5009C40.6991 41.4644 40.8813 41.5009 41.255 41.6102C41.4911 41.6793 42.048 42.0204 42.2121 42.23ZM44.8644 40.9905C44.9282 40.6806 45.229 40.0426 45.6483 39.7235C46.0286 39.4342 46.1989 39.4748 46.3837 39.5188C46.4027 39.5234 46.4217 39.5279 46.4412 39.5321C46.5848 39.5634 46.1775 40.0709 45.949 40.2066C45.6431 40.3883 45.4525 40.5499 45.2917 40.6861C45.146 40.8097 45.0248 40.9125 44.8644 40.9905Z" fill="url(#paint1_linear_844_17186)"/>
<path fill-rule="evenodd" clip-rule="evenodd" d="M218.597 21.8956C218.755 21.7857 218.88 21.6336 218.957 21.4566L219.931 19.6723C219.178 18.9664 218.286 18.424 217.313 18.0793C216.231 17.6894 215.087 17.4987 213.936 17.5165C212.96 17.4986 211.99 17.6667 211.077 18.0118C210.293 18.2983 209.572 18.7341 208.955 19.2951C208.4 19.8213 207.958 20.455 207.656 21.1575C207.354 21.8601 207.198 22.6169 207.199 23.3816C207.176 24.1905 207.314 24.9959 207.604 25.7513C207.848 26.3512 208.212 26.8951 208.673 27.3498C209.123 27.776 209.638 28.1275 210.199 28.3911C210.762 28.6525 211.341 28.88 211.932 29.0722C212.525 29.2636 213.105 29.4381 213.672 29.5957C214.195 29.7328 214.705 29.9213 215.191 30.1585C215.605 30.3687 215.971 30.6619 216.266 31.0197C216.549 31.4012 216.692 31.8682 216.672 32.3425C216.7 32.7607 216.634 33.1799 216.479 33.5695C216.324 33.959 216.084 34.309 215.777 34.594C215.055 35.153 214.155 35.4293 213.244 35.3707C212.621 35.3835 212.002 35.2844 211.415 35.078C210.954 34.9043 210.511 34.6876 210.092 34.4307C209.715 34.1943 209.394 33.9748 209.118 33.7834C208.898 33.6079 208.628 33.5055 208.347 33.4907C208.174 33.4888 208.004 33.5356 207.857 33.6258C207.714 33.7149 207.587 33.8271 207.48 33.9579L206.354 35.7985C206.765 36.2211 207.22 36.5985 207.711 36.9242C208.228 37.2607 208.776 37.5454 209.349 37.7742C209.939 38.0201 210.552 38.2086 211.178 38.3371C211.815 38.4659 212.464 38.53 213.114 38.5284C214.147 38.5456 215.174 38.37 216.143 38.0106C216.983 37.695 217.749 37.2103 218.394 36.5865C219.014 35.984 219.496 35.2543 219.807 34.4476C220.131 33.6153 220.293 32.7289 220.285 31.8359C220.306 31.0911 220.168 30.3505 219.88 29.6632C219.627 29.0896 219.262 28.5728 218.805 28.1435C218.348 27.7266 217.83 27.3829 217.268 27.1247C216.702 26.8594 216.122 26.6264 215.529 26.4267L213.784 25.8638C213.262 25.7024 212.754 25.4991 212.264 25.2559C211.854 25.0549 211.489 24.7735 211.189 24.4285C210.912 24.0874 210.769 23.6575 210.784 23.2184C210.779 22.8597 210.846 22.5036 210.981 22.1714C211.115 21.856 211.321 21.5764 211.583 21.3552C211.876 21.1056 212.215 20.9145 212.58 20.7924C213.031 20.6584 213.499 20.5938 213.97 20.601C214.489 20.591 215.006 20.6651 215.501 20.8205C215.89 20.9528 216.266 21.1185 216.627 21.3158C216.948 21.496 217.229 21.6592 217.465 21.8055C217.653 21.9355 217.873 22.0114 218.101 22.0251C218.275 22.0286 218.447 21.9838 218.597 21.8956ZM119.627 38.2752H116.667C116.372 38.2889 116.082 38.2015 115.845 38.0275C115.636 37.8686 115.476 37.654 115.383 37.4084L113.847 33.2093H105.325L103.788 37.4027C103.697 37.6402 103.541 37.847 103.338 37.9994C103.107 38.1854 102.817 38.2814 102.522 38.2695H99.5496L107.627 17.6966H111.567L119.627 38.2752ZM106.304 30.5076H112.867L110.362 23.6631C110.25 23.3591 110.12 23.0045 109.985 22.588C109.85 22.1714 109.709 21.7268 109.58 21.2427C109.445 21.7268 109.315 22.1771 109.186 22.5992C109.057 23.0214 108.933 23.3816 108.809 23.6912L106.304 30.5076ZM67.3027 38.2752V31.0479L70.1958 31.0535C71.3803 31.0752 72.5605 30.906 73.6913 30.5526C74.6093 30.2659 75.4583 29.7926 76.1848 29.1623C76.8412 28.5725 77.3518 27.8384 77.6764 27.0177C78.0085 26.1409 78.169 25.2084 78.1492 24.2709C78.159 23.3672 77.9986 22.4698 77.6764 21.6254C77.3729 20.8272 76.8804 20.1145 76.2411 19.5484C75.513 18.9294 74.6637 18.4693 73.7475 18.1976C72.5899 17.8541 71.3863 17.6908 70.1789 17.7135H63.4752V38.2752H67.3027ZM70.1789 28.059H67.3027V20.6854H70.1789C70.7996 20.6756 71.4181 20.759 72.0139 20.9331C72.4922 21.0773 72.9338 21.3231 73.3085 21.6536C73.6481 21.9639 73.9103 22.3494 74.074 22.7793C74.2529 23.256 74.3407 23.7619 74.3329 24.2709C74.3412 24.8075 74.2535 25.3412 74.074 25.847C73.914 26.2983 73.6521 26.7067 73.3085 27.0403C72.9374 27.3835 72.4955 27.6409 72.0139 27.7945C71.4203 27.9803 70.8008 28.0696 70.1789 28.059ZM96.0483 35.1287H87.8079V17.7135H83.9804V38.2751H96.0483V35.1287ZM136.997 20.8599V17.7135H120.786V20.8261H126.978V38.2751H130.806V20.8599H136.997ZM151.412 30.2937V38.2752H147.585V30.2937L140.099 17.7135H143.476C143.761 17.6976 144.042 17.7834 144.269 17.9555C144.469 18.1281 144.635 18.3361 144.759 18.5691L148.53 25.4417C148.75 25.847 148.936 26.2354 149.093 26.6012C149.251 26.9671 149.403 27.3217 149.532 27.6763C149.656 27.3161 149.797 26.9502 149.954 26.5843C150.123 26.1999 150.311 25.8242 150.517 25.4586L154.26 18.5747C154.377 18.358 154.536 18.1667 154.728 18.0118C154.951 17.826 155.236 17.7298 155.527 17.7416H158.904L151.412 30.2937ZM167.736 38.2751V31.0478H170.606C171.793 31.0694 172.975 30.9003 174.107 30.5469C175.025 30.2602 175.874 29.7869 176.601 29.1566C177.257 28.5668 177.768 27.8327 178.092 27.0121C178.433 26.1389 178.604 25.2083 178.593 24.2709C178.603 23.3672 178.443 22.4697 178.121 21.6254C177.812 20.8256 177.314 20.1129 176.668 19.5484C175.942 18.9295 175.095 18.4694 174.181 18.1975C173.021 17.8543 171.815 17.691 170.606 17.7134H163.908V38.2751H167.736ZM170.606 28.059H167.736V20.6854H170.589C171.21 20.6746 171.829 20.7582 172.424 20.9331C172.905 21.0761 173.349 21.3219 173.725 21.6535C174.064 21.9638 174.326 22.3494 174.49 22.7793C174.666 23.2566 174.754 23.7621 174.749 24.2709C174.754 24.8072 174.667 25.3404 174.49 25.8469C174.324 26.2913 174.058 26.6917 173.713 27.0177C173.351 27.3666 172.917 27.6318 172.441 27.7945C171.848 27.9811 171.228 28.0704 170.606 28.059ZM192.665 35.2018C193.346 35.2128 194.022 35.0864 194.652 34.8304C195.216 34.5911 195.72 34.2297 196.127 33.7722C196.545 33.2998 196.862 32.7459 197.056 32.1455C197.278 31.4566 197.387 30.736 197.377 30.0122V17.7135H201.204V30.0347C201.223 31.1853 201.032 32.3297 200.641 33.4119C200.272 34.4164 199.696 35.3328 198.953 36.1024C198.188 36.8706 197.272 37.4706 196.262 37.8642C193.966 38.7122 191.443 38.7122 189.147 37.8642C188.141 37.4791 187.229 36.8823 186.474 36.1141C185.718 35.346 185.137 34.4244 184.768 33.4119C184.377 32.3297 184.186 31.1853 184.205 30.0347V17.7135H187.999V30.0234C187.99 30.7467 188.097 31.4668 188.314 32.1567C188.502 32.7496 188.806 33.2989 189.209 33.7722C189.613 34.2278 190.116 34.5858 190.678 34.8191C191.308 35.079 191.984 35.2092 192.665 35.2018Z" fill="url(#paint2_linear_844_17186)"/>
<defs>
<linearGradient id="paint0_linear_844_17186" x1="-0.00104259" y1="28.0015" x2="55.9989" y2="28.0015" gradientUnits="userSpaceOnUse">
<stop stop-color="#00BB2E"/>
<stop offset="0.53" stop-color="#0091DE"/>
<stop offset="0.67" stop-color="#0097D9"/>
<stop offset="0.86" stop-color="#00A7CB"/>
<stop offset="1" stop-color="#00B8BC"/>
</linearGradient>
<linearGradient id="paint1_linear_844_17186" x1="-1.67978" y1="3.35995" x2="49.8402" y2="54.8799" gradientUnits="userSpaceOnUse">
<stop offset="0.02" stop-color="#00F856"/>
<stop offset="0.53" stop-color="#0091DE"/>
<stop offset="0.6" stop-color="#0097E2"/>
<stop offset="0.7" stop-color="#00A7EE"/>
<stop offset="0.8" stop-color="#01BFFF"/>
<stop offset="1" stop-color="#00B5BF"/>
</linearGradient>
<linearGradient id="paint2_linear_844_17186" x1="59.3602" y1="27.9999" x2="273.28" y2="27.9999" gradientUnits="userSpaceOnUse">
<stop stop-color="#06F154"/>
<stop offset="0.7" stop-color="#0076E7"/>
<stop offset="0.76" stop-color="#007CE3"/>
<stop offset="0.85" stop-color="#008CD9"/>
<stop offset="0.94" stop-color="#00A6C7"/>
<stop offset="0.99" stop-color="#00B8BC"/>
</linearGradient>
</defs>
</svg>
