<svg width="48" height="48" viewBox="0 0 48 48" fill="none" xmlns="http://www.w3.org/2000/svg">
<path d="M24.0015 47.9989C19.2539 47.9999 14.6126 46.5928 10.6647 43.9558C6.71676 41.3187 3.63956 37.5701 1.82228 33.1841C0.00499538 28.798 -0.470739 23.9715 0.455245 19.315C1.38123 14.6586 3.66734 10.3813 7.02442 7.02423C10.3815 3.66715 14.6588 1.38104 19.3152 0.455055C23.9717 -0.47093 28.7982 0.00480464 33.1842 1.82209C37.5703 3.63937 41.3189 6.71657 43.956 10.6645C46.593 14.6124 48 19.2537 47.9991 24.0013C47.9914 30.3635 45.4607 36.463 40.9619 40.9617C36.4631 45.4605 30.3637 47.9913 24.0015 47.9989V47.9989ZM24.0015 0.992783C19.4506 0.991829 15.0017 2.34045 11.2173 4.86808C7.43297 7.39571 4.48316 10.9888 2.74095 15.193C0.998753 19.3972 0.542419 24.0236 1.42966 28.4871C2.31691 32.9506 4.50788 37.0508 7.72549 40.2691C10.9431 43.4874 15.0428 45.6792 19.5062 46.5674C23.9695 47.4556 28.596 47.0002 32.8006 45.2589C37.0051 43.5176 40.5988 40.5685 43.1272 36.7847C45.6557 33.0009 47.0052 28.5522 47.0052 24.0013C46.9988 17.9019 44.5733 12.054 40.2608 7.74058C35.9483 3.42717 30.101 1.00045 24.0015 0.992783V0.992783Z" fill="url(#paint0_linear_1485_591)"/>
<path fill-rule="evenodd" clip-rule="evenodd" d="M7.08808 31.7479C7.0661 31.7615 7.04099 31.7691 7.0152 31.77C5.59677 31.6783 4.70904 30.1248 5.43756 28.9766L21.4649 3.71493C21.5912 3.53084 21.7604 3.38028 21.958 3.27625C22.1555 3.17222 22.3754 3.11786 22.5987 3.11786C22.8219 3.11786 23.0418 3.17222 23.2394 3.27625C23.4369 3.38028 23.6061 3.53084 23.7325 3.71493L28.3834 11.0194C28.7424 11.5724 28.9335 12.2175 28.9335 12.8769C28.9335 13.5362 28.7424 14.1813 28.3834 14.7343L25.5706 19.1681C26.0578 19.3313 26.5267 19.5448 26.9698 19.805C27.6563 20.2014 28.2592 20.7274 28.7452 21.3537C28.8178 21.4465 28.8904 21.5561 28.9574 21.6572L28.9961 21.7155L29.0685 21.8217C29.1627 21.957 29.2659 22.086 29.3772 22.2076C29.4882 22.3331 29.6088 22.4537 29.7343 22.5743L29.8404 22.6756L30.0237 22.8734L31.7172 20.2054C31.8552 20.0054 32.0396 19.8419 32.2548 19.7289C32.4699 19.616 32.7093 19.557 32.9523 19.557C33.1953 19.557 33.4346 19.616 33.6498 19.7289C33.8649 19.8419 34.0494 20.0054 34.1874 20.2054L39.9769 29.3095C40.1534 29.5872 40.23 29.9169 40.1941 30.244C40.1581 30.5711 40.0117 30.8763 39.7791 31.109C40.5239 31.7671 41.0997 32.5944 41.4581 33.5213C41.5694 33.7763 41.6504 34.0435 41.6993 34.3174C41.7415 34.6184 41.7251 34.9248 41.651 35.2196C41.489 35.7681 41.1664 36.2554 40.7247 36.6187C39.9296 37.2792 39.0089 37.7715 38.0181 38.0661C37.068 38.3678 36.0875 38.5635 35.0944 38.6499C34.7374 38.6981 34.4094 38.6981 34.0861 38.6981H34.0861H33.6036C33.0739 38.683 32.5497 38.5854 32.0501 38.4087C31.1118 38.0197 30.2432 37.4803 29.4786 36.8117C28.7285 36.184 28.0149 35.5139 27.3413 34.8047C26.8877 34.3512 26.4439 33.8687 26.0193 33.3863L25.3776 32.6819C25.2402 32.529 25.0865 32.3915 24.9193 32.2718C24.7639 32.1635 24.6029 32.0637 24.4368 31.9726L24.3404 31.9148C23.8343 31.6644 23.4033 31.285 23.0908 30.8147C22.8065 30.2934 22.7176 29.6878 22.8399 29.1068C22.9287 28.5848 23.0911 28.078 23.3224 27.6016C23.3971 27.4617 23.4896 27.3319 23.5974 27.2156C23.7034 27.1108 23.8198 27.017 23.9447 26.9358C24.016 26.8898 24.0809 26.8346 24.1377 26.7717C24.1867 26.702 24.2287 26.6277 24.2632 26.5498C24.306 26.4628 24.3415 26.3725 24.3693 26.2796C24.4121 26.1382 24.4637 25.9997 24.5237 25.8647C24.6624 25.6135 24.8474 25.3909 25.0689 25.2085C25.4693 24.8841 25.9167 24.6222 26.3956 24.4318C26.8541 24.2448 27.3268 24.0948 27.8092 23.9831C28.2846 23.8696 28.7689 23.7969 29.2566 23.766H29.5558L29.4496 23.6502C29.3745 23.5704 29.2856 23.486 29.192 23.397L29.192 23.397L29.1918 23.3969L29.1843 23.3897L29.0685 23.2835C28.9141 23.1356 28.779 22.9957 28.6632 22.8638C28.5275 22.71 28.4003 22.5489 28.2821 22.3813L28.1952 22.2462C28.1228 22.1401 28.0601 22.0484 27.9829 21.9471C27.5715 21.4246 27.0638 20.9857 26.4873 20.6541C25.8784 20.3097 25.2305 20.0392 24.5575 19.8484C23.8798 19.6234 23.1905 19.435 22.4925 19.2839C21.7714 19.1249 21.0358 19.0408 20.2973 19.0331C19.6457 19.0294 18.9965 19.1138 18.3675 19.2839C17.0289 19.691 15.7956 20.3859 14.7539 21.3199C14.2044 21.7726 13.681 22.2558 13.1859 22.7673L12.771 23.1967C12.4091 23.5585 12.0376 23.9397 11.6999 24.3305C10.7533 25.4152 9.92222 26.5956 9.22005 27.8524C8.49636 29.0972 7.80644 30.3998 7.14064 31.6639V31.6928C7.12817 31.7154 7.11006 31.7344 7.08808 31.7479ZM24.3983 27.5871C24.2518 27.6845 24.1363 27.8218 24.0654 27.9827C24.0439 28.0427 24.0262 28.1039 24.0123 28.166C24.1391 28.038 24.2745 27.9187 24.4176 27.809C24.7912 27.5303 25.2362 27.3631 25.7009 27.3265H26.1834H26.2509C26.4112 27.3021 26.5598 27.2279 26.6755 27.1143C26.8174 26.9645 26.9465 26.8031 27.0614 26.6318C27.1772 26.4629 27.2978 26.3037 27.4329 26.1493C27.7287 25.8121 28.0856 25.5339 28.4847 25.3292C28.682 25.2319 28.885 25.1465 29.0926 25.0735L29.3242 25.0107C29.4575 24.9645 29.5948 24.9306 29.7343 24.9094C29.9328 24.8858 30.1326 24.8745 30.3325 24.8756C30.1867 24.6154 30.0256 24.3641 29.8501 24.123C29.6602 24.1149 29.47 24.1197 29.2807 24.1375C28.8162 24.1999 28.3579 24.3016 27.9106 24.4414C27.0238 24.674 26.1998 25.1009 25.4983 25.691C25.3537 25.8279 25.2373 25.9918 25.1557 26.1735C25.1186 26.2603 25.0911 26.3509 25.0737 26.4436C25.0416 26.5816 24.9997 26.717 24.9483 26.8489C24.8931 26.9901 24.8219 27.1245 24.736 27.2494C24.6409 27.3782 24.5271 27.492 24.3983 27.5871ZM40.1023 35.9626C40.4036 35.7094 40.6249 35.3742 40.7392 34.9977C40.7821 34.8242 40.7935 34.6445 40.773 34.467C40.736 34.2672 40.6744 34.0727 40.5896 33.888C40.2796 33.0583 39.7592 32.3235 39.0795 31.7555C38.3643 31.2166 37.5765 30.7813 36.7396 30.4625L36.672 30.4336C36.2668 30.2551 35.8133 30.0476 35.3308 29.8016C34.9834 29.6182 34.6747 29.4349 34.3659 29.2516L34.0523 29.0682L32.8124 28.3204L32.19 27.9345L32.0838 27.8669C31.8992 27.7522 31.7204 27.6282 31.5483 27.4954L31.4808 27.4423C31.459 27.4245 31.4424 27.4012 31.4325 27.3748L31.3988 27.2735C31.1835 26.61 30.9156 25.9646 30.5979 25.3436L30.5544 25.2568H30.4387C30.3132 25.2822 30.1891 25.3144 30.0672 25.3533L29.8549 25.416C29.7244 25.4402 29.5955 25.4724 29.4689 25.5125L29.2711 25.5704C29.0979 25.645 28.9288 25.7287 28.7645 25.8213C28.4261 25.997 28.1234 26.2342 27.872 26.5208C27.7812 26.623 27.6992 26.7311 27.6146 26.8428L27.6144 26.843L27.6139 26.8437C27.5909 26.8741 27.5676 26.9048 27.5439 26.9358C27.3992 27.1371 27.2378 27.326 27.0614 27.5002C26.8718 27.6954 26.6252 27.8254 26.357 27.8717C26.2995 27.8807 26.2409 27.8807 26.1834 27.8717H25.7009C25.349 27.9126 25.0152 28.0494 24.736 28.2673C24.4275 28.504 24.1559 28.7853 23.9303 29.102C23.8659 29.1695 23.808 29.2371 23.7566 29.3046C23.6885 29.6623 23.7358 30.0322 23.8917 30.3612C24.1229 30.6884 24.4356 30.9495 24.7987 31.1187L24.9 31.1766C24.9373 31.1988 24.9748 31.2207 25.0125 31.2428L25.0125 31.2428L25.0125 31.2428C25.1552 31.3263 25.3002 31.4113 25.4452 31.5143C25.6704 31.6711 25.876 31.8541 26.0579 32.0595C26.2071 32.2152 26.3542 32.3774 26.5005 32.5389L26.5005 32.539C26.5718 32.6176 26.6429 32.6961 26.7141 32.7735L26.8073 32.8761L26.8075 32.8762L26.8075 32.8762C27.2123 33.3212 27.5993 33.7466 28.0071 34.1678C28.6566 34.8514 29.3461 35.4958 30.072 36.0977C30.7572 36.6972 31.5321 37.1855 32.3685 37.5451C32.7783 37.6884 33.2081 37.7666 33.6422 37.7766H34.0909C34.3804 37.7766 34.694 37.7622 35.0172 37.7332C35.9396 37.6525 36.8504 37.4713 37.7335 37.1929C38.5974 36.9452 39.4028 36.5268 40.1023 35.9626ZM17.943 29.3577C17.9118 29.357 17.8815 29.3469 17.8561 29.3287L17.7693 29.2612C16.6114 28.3976 15.5114 27.5291 14.4934 26.7186C14.4759 26.7039 14.462 26.6854 14.4528 26.6645C14.4436 26.6436 14.4394 26.6208 14.4403 26.598L14.7636 22.7045C14.7671 22.6695 14.7832 22.637 14.809 22.613C14.8347 22.5891 14.8683 22.5753 14.9035 22.5743L22.0294 23.1581C22.0648 23.1605 22.098 23.1763 22.1222 23.2023C22.1464 23.2283 22.1598 23.2625 22.1597 23.298L22.1114 26.13C22.1113 26.1513 22.1064 26.1722 22.0973 26.1914C22.0881 26.2106 22.0748 26.2275 22.0584 26.241L21.822 26.4243C21.3263 26.834 20.8341 27.2123 20.3365 27.5948L20.0706 27.7993C19.5225 28.2216 18.9451 28.6523 18.3774 29.0758L18.3773 29.0759L18.2518 29.1695L18.025 29.3384C18.0005 29.3537 17.9717 29.3605 17.943 29.3577ZM16.8625 27.9464L16.8626 27.9465C17.2212 28.1898 17.5751 28.4299 17.9285 28.6678C18.5075 28.1853 19.0864 27.7366 19.675 27.2831L19.7356 27.2364L19.7359 27.2362C20.3029 26.7993 20.8531 26.3754 21.4167 25.9515L21.4987 25.8888L21.5904 23.6743L15.1495 23.0133L14.7636 26.5353C15.4973 27.0202 16.1878 27.4887 16.862 27.9461L16.8625 27.9464ZM20.3109 25.3292C20.3109 25.3114 20.3044 25.2942 20.2925 25.2809C20.0532 24.9897 19.7112 24.8015 19.3372 24.755C19.0043 24.7349 18.6719 24.8014 18.3723 24.948C17.7491 25.144 17.1659 25.4495 16.6499 25.8502C16.6453 25.8583 16.6428 25.8674 16.6428 25.8767C16.6428 25.8861 16.6453 25.8952 16.6499 25.9033C16.6544 25.917 16.6638 25.9285 16.6762 25.9356C16.6887 25.9428 16.7034 25.945 16.7175 25.9419C17.3143 25.832 17.9198 25.7755 18.5267 25.773C18.8118 25.8089 19.1003 25.8089 19.3855 25.773C19.709 25.6964 20.0162 25.5624 20.2925 25.3774C20.3044 25.3641 20.3109 25.347 20.3109 25.3292ZM36.1818 36.1972C36.1818 36.1972 35.9747 36.1972 35.8224 36.1503C35.713 36.1167 35.5945 36.1157 35.4649 36.1146C35.414 36.1141 35.3613 36.1137 35.3068 36.1113C35.2226 36.1075 35.1427 36.1115 35.0724 36.115H35.0724C34.9878 36.1192 34.9171 36.1228 34.8693 36.1113C34.8552 36.1079 34.8398 36.1043 34.8234 36.1006L34.8066 36.0968C34.6135 36.053 34.308 35.9838 34.3849 35.83C34.4474 35.705 34.588 35.6034 34.7365 35.5722C34.8849 35.5409 35.0412 35.5722 35.3615 35.6659C35.5638 35.7252 36.0412 36.0175 36.1818 36.1972ZM38.4552 35.1347C38.5099 34.8691 38.7677 34.3222 39.1271 34.0488C39.4531 33.8007 39.5991 33.8355 39.7575 33.8733C39.7737 33.8772 39.7901 33.8811 39.8068 33.8847C39.9299 33.9115 39.5807 34.3465 39.3849 34.4628C39.1227 34.6185 38.9593 34.757 38.8215 34.8738C38.6966 34.9798 38.5927 35.0678 38.4552 35.1347Z" fill="url(#paint1_linear_1485_591)"/>
<defs>
<linearGradient id="paint0_linear_1485_591" x1="-0.000894742" y1="24.0013" x2="47.9991" y2="24.0013" gradientUnits="userSpaceOnUse">
<stop stop-color="#00BB2E"/>
<stop offset="0.53" stop-color="#0091DE"/>
<stop offset="0.67" stop-color="#0097D9"/>
<stop offset="0.86" stop-color="#00A7CB"/>
<stop offset="1" stop-color="#00B8BC"/>
</linearGradient>
<linearGradient id="paint1_linear_1485_591" x1="-1.43981" y1="2.87997" x2="42.7202" y2="47.04" gradientUnits="userSpaceOnUse">
<stop offset="0.02" stop-color="#00F856"/>
<stop offset="0.53" stop-color="#0091DE"/>
<stop offset="0.6" stop-color="#0097E2"/>
<stop offset="0.7" stop-color="#00A7EE"/>
<stop offset="0.8" stop-color="#01BFFF"/>
<stop offset="1" stop-color="#00B5BF"/>
</linearGradient>
</defs>
</svg>
