<svg width="127" height="24" viewBox="0 0 127 24" fill="none" xmlns="http://www.w3.org/2000/svg">
<path d="M9.98438 19.5469L16.6875 0.25H19.9531L11.5312 23H9.20312L9.98438 19.5469ZM3.71875 0.25L10.3594 19.5469L11.1875 23H8.85938L0.453125 0.25H3.71875ZM35.3913 0.25H38.3913V15.6406C38.3913 17.349 38.011 18.7708 37.2506 19.9062C36.4902 21.0417 35.4798 21.8958 34.2194 22.4688C32.9694 23.0312 31.61 23.3125 30.1413 23.3125C28.5996 23.3125 27.2038 23.0312 25.9538 22.4688C24.7142 21.8958 23.7298 21.0417 23.0006 19.9062C22.2819 18.7708 21.9225 17.349 21.9225 15.6406V0.25H24.9069V15.6406C24.9069 16.8281 25.1256 17.8073 25.5631 18.5781C26.0006 19.349 26.61 19.9219 27.3913 20.2969C28.1829 20.6719 29.0996 20.8594 30.1413 20.8594C31.1933 20.8594 32.11 20.6719 32.8913 20.2969C33.6829 19.9219 34.2975 19.349 34.735 18.5781C35.1725 17.8073 35.3913 16.8281 35.3913 15.6406V0.25ZM56.2825 20.5469V23H44.9075V20.5469H56.2825ZM45.5013 0.25V23H42.4856V0.25H45.5013ZM63.1894 0.25V23H60.2206V0.25H63.1894ZM70.5019 0.25V2.71875H52.9238V0.25H70.5019ZM86.2525 0.25H89.2525V15.6406C89.2525 17.349 88.8723 18.7708 88.1119 19.9062C87.3515 21.0417 86.341 21.8958 85.0806 22.4688C83.8306 23.0312 82.4713 23.3125 81.0025 23.3125C79.4608 23.3125 78.065 23.0312 76.815 22.4688C75.5754 21.8958 74.591 21.0417 73.8619 19.9062C73.1431 18.7708 72.7838 17.349 72.7838 15.6406V0.25H75.7681V15.6406C75.7681 16.8281 75.9869 17.8073 76.4244 18.5781C76.8619 19.349 77.4713 19.9219 78.2525 20.2969C79.0442 20.6719 79.9608 20.8594 81.0025 20.8594C82.0546 20.8594 82.9713 20.6719 83.7525 20.2969C84.5442 19.9219 85.1588 19.349 85.5963 18.5781C86.0338 17.8073 86.2525 16.8281 86.2525 15.6406V0.25ZM93.3469 0.25H100.878C102.586 0.25 104.029 0.510417 105.206 1.03125C106.394 1.55208 107.295 2.32292 107.909 3.34375C108.534 4.35417 108.847 5.59896 108.847 7.07812C108.847 8.11979 108.633 9.07292 108.206 9.9375C107.79 10.7917 107.185 11.5208 106.394 12.125C105.613 12.7188 104.675 13.1615 103.581 13.4531L102.738 13.7812H95.6594L95.6281 11.3281H100.972C102.055 11.3281 102.956 11.1406 103.675 10.7656C104.394 10.3802 104.935 9.86458 105.3 9.21875C105.665 8.57292 105.847 7.85938 105.847 7.07812C105.847 6.20312 105.675 5.4375 105.331 4.78125C104.988 4.125 104.446 3.61979 103.706 3.26562C102.977 2.90104 102.034 2.71875 100.878 2.71875H96.3625V23H93.3469V0.25ZM106.644 23L101.113 12.6875L104.253 12.6719L109.863 22.8125V23H106.644ZM126.879 20.5469V23H114.832V20.5469H126.879ZM115.441 0.25V23H112.426V0.25H115.441ZM125.285 10.0312V12.4844H114.832V10.0312H125.285ZM126.723 0.25V2.71875H114.832V0.25H126.723Z" fill="url(#paint0_linear_136896_584)"/>
<defs>
<linearGradient id="paint0_linear_136896_584" x1="3.67464" y1="12.322" x2="128" y2="12.322" gradientUnits="userSpaceOnUse">
<stop stop-color="#D639C0"/>
<stop offset="1" stop-color="#F0B4E7"/>
</linearGradient>
</defs>
</svg>
